<?xml version="1.0" encoding="UTF-8"?> <svg xmlns="http://www.w3.org/2000/svg" width="648" height="122" viewBox="0 0 648 122" fill="none"><path d="M647.911 118.768H622.137C617.261 118.768 614.823 109.19 614.823 100.831V81.6742C614.823 78.5396 612.559 74.1859 608.205 74.1859H601.065V118.768H569.893V2.78516H614.126C629.277 2.78516 643.383 13.234 643.383 29.2557V46.3222C643.383 52.2432 639.204 59.3833 631.193 62.6921C639.204 66.0009 643.906 73.141 643.906 79.2362V99.4374C643.906 106.752 645.821 112.673 647.911 118.245V118.768ZM613.952 47.3671V32.042C613.952 27.8625 612.211 26.2951 608.728 26.2951H601.065V53.114H608.728C612.211 53.114 613.952 51.5466 613.952 47.3671Z" fill="#151515"></path><path d="M559.543 118.768H493.193V2.78516H559.543V28.0366H524.365V48.412H547.179V70.3546H524.365V91.949H559.543V118.768Z" fill="#151515"></path><path d="M481.183 90.0334C481.183 107.448 466.032 121.728 443.916 121.728C422.147 121.728 405.603 107.448 405.603 90.0334V2.78516H437.124V89.8592C437.124 93.6905 440.433 95.9544 443.916 95.9544C447.747 95.9544 451.056 93.6905 451.056 89.8592V2.78516H481.183V90.0334Z" fill="#151515"></path><path d="M394.333 118.769H377.093L373.61 107.449C369.256 116.505 359.852 121.73 350.274 121.73C329.028 121.73 315.792 106.753 315.792 89.6863V31.8691C315.792 16.1958 331.64 0 355.324 0C378.834 0 393.811 16.1958 393.811 31.8691V46.4975H363.683V32.2174C363.683 28.3861 361.071 25.5998 355.847 25.5998C350.622 25.5998 347.836 28.3861 347.836 32.2174V88.9897C347.836 92.8209 351.145 95.9556 356.195 95.9556C361.593 95.9556 364.554 92.8209 364.554 88.9897V78.8891H355.847V60.0811H394.333V118.769Z" fill="#151515"></path><path d="M308.821 118.768H244.386V2.78516H275.558V92.4714H308.821V118.768Z" fill="#151515"></path><path d="M236.542 118.768H172.107V2.78516H203.28V92.4714H236.542V118.768Z" fill="#151515"></path><path d="M160.098 90.0334C160.098 107.448 144.947 121.728 122.83 121.728C101.062 121.728 84.5176 107.448 84.5176 90.0334V2.78516H116.038V89.8592C116.038 93.6905 119.347 95.9544 122.83 95.9544C126.661 95.9544 129.97 93.6905 129.97 89.8592V2.78516H160.098V90.0334Z" fill="#151515"></path><path d="M73.3164 93.8646C73.3164 110.06 60.7777 118.768 45.8009 118.768H0V2.78516H45.8009C60.7777 2.78516 73.3164 11.6667 73.3164 27.6883V39.7046C73.3164 48.0637 70.3558 57.6418 58.1655 59.7316C69.8334 62.6921 73.3164 70.5288 73.3164 79.7586V93.8646ZM44.2336 45.1031V32.042C44.2336 27.8625 42.1438 26.2951 38.835 26.2951H31.1725V50.85H38.835C42.1438 50.85 44.2336 49.1086 44.2336 45.1031ZM44.2336 89.6851V76.624C44.2336 72.6185 42.1438 70.8771 38.835 70.8771H31.1725V95.4319H38.835C42.1438 95.4319 44.2336 93.8646 44.2336 89.6851Z" fill="#151515"></path></svg> 