<?xml version="1.0" encoding="UTF-8"?> <svg xmlns="http://www.w3.org/2000/svg" width="80" height="50" viewBox="0 0 80 50" fill="none"><g clip-path="url(#clip0_354_1448)"><path d="M1.14976 29.2002C0.934761 29.2102 0.723761 29.1392 0.559761 29.0002C0.419761 28.8332 0.354761 28.6162 0.379761 28.4002V8.00019C0.354761 7.78419 0.419761 7.56719 0.559761 7.40019C0.725761 7.27419 0.931761 7.21419 1.13976 7.23019H3.35976C3.77976 7.18819 4.15776 7.48319 4.21976 7.90019L4.43976 8.70019C5.07876 8.08319 5.83376 7.59719 6.65976 7.27019C7.50476 6.92819 8.40776 6.75119 9.31976 6.75019C11.1378 6.69019 12.8758 7.49919 13.9998 8.93019C15.2378 10.6362 15.8528 12.7152 15.7398 14.8202C15.7738 16.3482 15.4808 17.8652 14.8798 19.2702C14.3838 20.4402 13.5778 21.4532 12.5498 22.2002C11.5558 22.8782 10.3728 23.2282 9.16976 23.2002C8.35276 23.2042 7.54076 23.0692 6.76976 22.8002C6.06076 22.5622 5.40576 22.1882 4.83976 21.7002V28.4202C4.86176 28.6342 4.80176 28.8492 4.66976 29.0202C4.49876 29.1522 4.28376 29.2122 4.06976 29.1902L1.14976 29.2002ZM7.87976 19.8402C8.86776 19.9112 9.82376 19.4692 10.4098 18.6702C11.0328 17.5522 11.3148 16.2762 11.2198 15.0002C11.3158 13.7122 11.0378 12.4242 10.4198 11.2902C9.83176 10.4832 8.86576 10.0402 7.86976 10.1202C6.81276 10.1212 5.77676 10.4072 4.86976 10.9502V19.0002C5.76976 19.5602 6.80976 19.8542 7.86976 19.8502L7.87976 19.8402Z" fill="white"></path><path d="M19.54 22.8798C19.182 22.9468 18.837 22.7108 18.77 22.3518C18.755 22.2718 18.755 22.1898 18.77 22.1098V7.99983C18.745 7.78383 18.81 7.56683 18.95 7.39983C19.116 7.27383 19.322 7.21383 19.53 7.22983H21.74C22.16 7.18783 22.538 7.48283 22.6 7.89983L23 9.53983C23.657 8.77083 24.442 8.12083 25.32 7.61983C26.036 7.24483 26.832 7.04983 27.64 7.04983H28.07C28.287 7.03083 28.504 7.09083 28.68 7.21983C28.82 7.38683 28.885 7.60383 28.86 7.81983V10.3998C28.877 10.6078 28.817 10.8138 28.69 10.9798C28.523 11.1198 28.306 11.1848 28.09 11.1598H27.54C27.313 11.1598 27.027 11.1598 26.68 11.1598C26.102 11.1718 25.526 11.2388 24.96 11.3598C24.37 11.4688 23.794 11.6398 23.24 11.8698V22.1198C23.256 22.3278 23.196 22.5338 23.07 22.6998C22.903 22.8398 22.686 22.9048 22.47 22.8798H19.54Z" fill="white"></path><path d="M33.29 4.79017C32.608 4.82417 31.939 4.59517 31.42 4.15017C30.938 3.69917 30.679 3.05917 30.71 2.40017C30.676 1.73717 30.935 1.09317 31.42 0.640172C32.516 -0.236828 34.074 -0.236828 35.17 0.640172C35.652 1.09117 35.911 1.73117 35.88 2.39017C35.911 3.04917 35.652 3.68917 35.17 4.14017C34.65 4.59117 33.977 4.82417 33.29 4.79017ZM31.82 22.8902C31.462 22.9572 31.117 22.7212 31.05 22.3622C31.035 22.2822 31.035 22.2002 31.05 22.1202V8.00017C31.025 7.78417 31.09 7.56717 31.23 7.40017C31.396 7.27417 31.602 7.21417 31.81 7.23017H34.76C34.974 7.20817 35.189 7.26817 35.36 7.40017C35.492 7.57117 35.552 7.78617 35.53 8.00017V22.1202C35.547 22.3282 35.487 22.5342 35.36 22.7002C35.193 22.8402 34.976 22.9052 34.76 22.8802L31.82 22.8902Z" fill="white"></path><path d="M40.1001 22.88C39.7421 22.947 39.3971 22.711 39.3301 22.352C39.3151 22.272 39.3151 22.19 39.3301 22.11V7.99999C39.3051 7.78399 39.3701 7.56699 39.5101 7.39999C39.6761 7.27399 39.8821 7.21399 40.0901 7.22999H42.3001C42.7201 7.18799 43.0981 7.48299 43.1601 7.89999L43.4101 8.72999C44.3201 8.10299 45.3041 7.59299 46.3401 7.20999C47.1951 6.91199 48.0941 6.75699 49.0001 6.74999C50.5761 6.61499 52.0901 7.39199 52.9001 8.74999C53.8131 8.12199 54.8051 7.61799 55.8501 7.24999C56.7721 6.94299 57.7381 6.78799 58.7101 6.78999C59.9381 6.71599 61.1421 7.14999 62.0401 7.98999C62.8681 8.89799 63.2941 10.103 63.2201 11.33V22.12C63.2361 22.328 63.1761 22.534 63.0501 22.7C62.8831 22.84 62.6661 22.905 62.4501 22.88H59.5401C59.1821 22.947 58.8371 22.711 58.7701 22.352C58.7551 22.272 58.7551 22.19 58.7701 22.11V12.27C58.7701 10.877 58.1471 10.18 56.9001 10.18C55.7381 10.193 54.5931 10.467 53.5501 10.98V22.12C53.5671 22.328 53.5071 22.534 53.3801 22.7C53.2131 22.84 52.9961 22.905 52.7801 22.88H49.8401C49.4821 22.947 49.1371 22.711 49.0701 22.352C49.0551 22.272 49.0551 22.19 49.0701 22.11V12.27C49.0701 10.877 48.4471 10.18 47.2001 10.18C46.0241 10.187 44.8661 10.472 43.8201 11.01V22.11C43.8361 22.318 43.7761 22.524 43.6501 22.69C43.4831 22.83 43.2661 22.895 43.0501 22.87L40.1001 22.88Z" fill="white"></path><path d="M73.9198 23.3402C71.7648 23.4812 69.6478 22.7252 68.0698 21.2502C66.6268 19.5982 65.9058 17.4372 66.0698 15.2502C65.9258 12.9832 66.6558 10.7462 68.1098 9.00024C69.6248 7.43624 71.7458 6.60724 73.9198 6.73024C75.5278 6.63424 77.1158 7.12524 78.3898 8.11024C79.4678 9.03024 80.0618 10.3952 79.9998 11.8102C80.0728 13.1952 79.4118 14.5172 78.2598 15.2902C76.7088 16.1762 74.9318 16.5862 73.1498 16.4702C72.1398 16.4822 71.1318 16.3682 70.1498 16.1302C70.1558 17.2362 70.6018 18.2942 71.3898 19.0702C72.3228 19.7322 73.4588 20.0472 74.5998 19.9602C75.1578 19.9602 75.7158 19.9232 76.2698 19.8502C77.0318 19.7322 77.7858 19.5712 78.5298 19.3702H78.7098H78.8598C79.2068 19.3702 79.3798 19.6072 79.3798 20.0802V21.4902C79.3988 21.7292 79.3508 21.9682 79.2398 22.1802C79.0978 22.3472 78.9098 22.4682 78.6998 22.5302C77.1698 23.0932 75.5498 23.3682 73.9198 23.3402ZM72.9198 13.7102C73.7068 13.7672 74.4938 13.6012 75.1898 13.2302C75.6678 12.9032 75.9378 12.3482 75.8998 11.7702C75.8998 10.4832 75.1328 9.84024 73.5998 9.84024C71.6328 9.84024 70.4968 11.0472 70.1898 13.4602C71.0828 13.6312 71.9908 13.7152 72.8998 13.7102H72.9198Z" fill="white"></path><path d="M72.31 40.1098C63.55 46.5698 50.85 49.9998 39.92 49.9998C25.314 50.0778 11.204 44.7048 0.349959 34.9298C-0.470041 34.1898 0.259959 33.1798 1.24996 33.7498C13.308 40.6348 26.955 44.2508 40.84 44.2398C51.201 44.1848 61.45 42.0878 71 38.0698C72.52 37.4398 73.76 38.9998 72.31 40.1098Z" fill="white"></path><path d="M76 36C74.88 34.57 68.6 35.32 65.77 35.66C64.91 35.76 64.77 35.02 65.55 34.48C70.55 30.96 78.78 31.98 79.73 33.16C80.68 34.34 79.48 42.57 74.73 46.5C74.01 47.1 73.32 46.78 73.64 45.98C74.71 43.29 77.08 37.39 76 36Z" fill="white"></path></g><defs><clipPath id="clip0_354_1448"><rect width="80" height="50" fill="white"></rect></clipPath></defs></svg> 