<?xml version="1.0" encoding="UTF-8"?> <svg xmlns="http://www.w3.org/2000/svg" width="126" height="25" viewBox="0 0 126 25" fill="none"><path d="M15.034 16.045C15.812 15.364 16.319 14.469 16.558 13.361H24.238C23.886 16.528 22.611 19.092 20.414 21.055C18.216 23.018 15.51 24 12.298 24C9.955 24 7.846 23.485 5.97 22.456C4.094 21.427 2.63 19.997 1.578 18.166C0.526 16.335 0 14.28 0 12C0 9.72 0.526 7.665 1.578 5.834C2.63 4.003 4.094 2.573 5.97 1.544C7.846 0.514 9.955 0 12.298 0C15.459 0 18.128 0.947 20.305 2.842C22.481 4.736 23.767 7.219 24.16 10.29H16.59C16.269 9.277 15.72 8.462 14.942 7.844C14.165 7.227 13.294 6.918 12.33 6.918C11.003 6.918 9.933 7.385 9.12 8.319C8.305 9.253 7.899 10.48 7.899 11.999C7.899 13.509 8.309 14.731 9.127 15.665C9.947 16.599 11.013 17.065 12.33 17.065C13.356 17.065 14.257 16.725 15.034 16.045ZM42.294 9.805C43.785 11.235 44.531 13.085 44.531 15.352C44.531 17.944 43.673 20.034 41.956 21.62C40.238 23.207 37.976 24 35.166 24C32.39 24 30.133 23.204 28.394 21.612C26.654 20.019 25.785 17.956 25.785 15.419C25.785 14.034 26.024 12.64 26.501 11.238C26.978 9.836 27.716 8.302 28.715 6.638L32.245 0.768L39.705 0.767L35.528 7.693C35.945 7.671 36.274 7.66 36.516 7.66C38.875 7.66 40.801 8.375 42.294 9.805ZM37.257 17.48C37.794 16.933 38.063 16.224 38.063 15.352C38.063 14.481 37.794 13.766 37.257 13.207C36.719 12.648 36.022 12.369 35.167 12.369C34.311 12.369 33.613 12.649 33.077 13.207C32.538 13.766 32.27 14.481 32.27 15.352C32.27 16.224 32.538 16.933 33.076 17.48C33.613 18.028 34.311 18.302 35.166 18.302C36.022 18.302 36.72 18.028 37.257 17.48Z" fill="white"></path><path d="M118.469 23.9738H115.359V3.41515H107.935V0.699219H125.859V3.41515H118.469V23.9738Z" fill="white"></path><path d="M97.6116 24.3517C96.1848 24.3517 94.7692 24.1339 93.3647 23.6985C91.9603 23.2401 90.8344 22.6442 89.9873 21.9108L90.723 19.2636C91.5924 19.9741 92.6402 20.5471 93.8663 20.9825C95.1147 21.418 96.3297 21.6357 97.5113 21.6357C99.1164 21.6357 100.365 21.3034 101.257 20.6387C102.148 19.9512 102.594 19.0229 102.594 17.8541C102.594 16.7539 102.193 15.9059 101.39 15.31C100.61 14.6912 99.2501 14.1068 97.3106 13.5567C94.903 12.892 93.1641 12.0555 92.094 11.047C91.0239 10.0157 90.4889 8.60612 90.4889 6.81842C90.4889 5.55786 90.7899 4.43481 91.3918 3.44928C91.9937 2.46375 92.8743 1.69596 94.0335 1.14589C95.2151 0.595832 96.6084 0.320801 98.2135 0.320801C99.3728 0.320801 100.521 0.481236 101.658 0.802106C102.817 1.12298 103.843 1.58136 104.734 2.17726L103.999 4.82444C103.129 4.25146 102.182 3.81599 101.156 3.51804C100.131 3.19717 99.161 3.03674 98.2469 3.03674C96.731 3.03674 95.5606 3.36907 94.7358 4.03372C93.9332 4.67546 93.5319 5.56932 93.5319 6.71528C93.5319 7.76957 93.8886 8.5832 94.602 9.15619C95.3377 9.70625 96.6084 10.2449 98.4141 10.772C101.089 11.5283 102.973 12.4451 104.065 13.5223C105.158 14.5995 105.704 15.9976 105.704 17.7165C105.704 19.0229 105.381 20.1804 104.734 21.1888C104.088 22.1743 103.151 22.9536 101.925 23.5266C100.721 24.0766 99.2836 24.3517 97.6116 24.3517Z" fill="white"></path><path d="M86.4408 23.9738H70.7241V0.699219H85.9392V3.38078H73.8006V10.7722H84.6351V13.4194H73.8006V21.2578H86.4408V23.9738Z" fill="white"></path><path d="M54.1099 23.9738H51V0.699219H66.0145V3.41515H54.1099V11.4942H63.5734V14.2101H54.1099V23.9738Z" fill="white"></path></svg> 