<?xml version="1.0" encoding="UTF-8"?> <svg xmlns="http://www.w3.org/2000/svg" width="132" height="41" viewBox="0 0 132 41" fill="none"><g clip-path="url(#clip0_354_1456)"><path d="M127.5 24.2802C126.3 24.2802 125.36 23.3402 125.36 22.1402C125.36 20.9302 126.3 19.9902 127.51 19.9902C128.7 19.9902 129.67 20.9302 129.65 22.1302C129.63 23.4702 128.59 24.2902 127.49 24.2702M125.73 22.1402C125.73 23.1202 126.52 23.9102 127.5 23.9102C128.48 23.9102 129.29 23.1002 129.28 22.1302C129.28 21.1502 128.48 20.3702 127.5 20.3602C126.51 20.3602 125.72 21.1502 125.72 22.1302" fill="white"></path><path d="M26.5801 29.8198C28.2501 29.8698 29.9001 29.9098 31.5901 29.9598C31.4101 31.9598 31.2401 33.9398 31.0701 35.9398H26.5901V29.8198H26.5801ZM30.5501 35.3798C30.6401 33.6998 30.7401 32.0598 30.8301 30.3798H27.1001V35.4498C28.2701 35.4298 29.4001 35.4098 30.5501 35.3798Z" fill="white"></path><path d="M8.24023 29.9401C9.92023 29.9001 11.5702 29.8501 13.2402 29.8101V35.9601C12.8802 35.9601 12.5202 35.9601 12.1602 35.9601C11.2802 35.9601 10.3902 35.9501 9.51023 35.9401C9.30023 35.9401 9.09023 35.9301 8.88023 35.9301C8.79023 35.9301 8.75023 35.9001 8.74023 35.8001C8.64023 34.5601 8.54023 33.3201 8.43023 32.0801C8.37023 31.3801 8.31023 30.6901 8.24023 29.9501M9.27024 35.3601C10.4402 35.3801 11.5802 35.4001 12.7302 35.4301V30.3601H9.00023C9.09023 32.0301 9.18024 33.6801 9.27024 35.3601Z" fill="white"></path><path d="M26.26 17.1498C26.08 18.5198 25.91 19.8098 25.73 21.1198C24.91 21.2898 24.1 21.4598 23.28 21.6298C23.12 21.0198 23.03 20.4398 23.01 19.8398C22.99 19.3198 23.03 18.7998 23.22 18.3098C23.51 17.5398 24.09 17.1298 24.9 17.0898C25.34 17.0598 25.78 17.1298 26.26 17.1598" fill="white"></path><path d="M13.5801 17.18C14.3001 17.04 15.0001 16.95 15.6801 17.26C16.3001 17.55 16.5801 18.09 16.7101 18.73C16.8901 19.67 16.7501 20.6 16.5201 21.52C16.5201 21.56 16.4201 21.61 16.3701 21.6C15.6501 21.45 14.9301 21.3 14.2101 21.14C14.1101 21.12 14.0601 21.07 14.0501 20.96C13.9701 20.36 13.8901 19.75 13.8201 19.15C13.7401 18.53 13.6601 17.9 13.5801 17.28C13.5801 17.26 13.5801 17.23 13.5801 17.17" fill="white"></path><path d="M131.13 39.9699C128.75 39.9699 126.37 39.9699 123.99 39.9699C121.77 39.9699 119.55 39.9699 117.33 39.9699H117.08V21.9399H119.62V37.4799H130.86C130.95 37.4799 131.04 37.4799 131.13 37.4899V39.9699Z" fill="white"></path><path d="M33.5202 39.92C31.9402 39.92 30.3602 39.92 28.7802 39.92C25.5702 39.92 22.3702 39.91 19.1602 39.9C13.1302 39.9 7.09023 39.89 1.06023 39.88C0.900234 39.88 0.730234 39.86 0.570234 39.81C0.200234 39.68 -0.00976562 39.35 -0.00976562 38.91C-0.00976562 37.17 -0.00976562 35.42 -0.00976562 33.68C-0.00976562 32.17 -0.00976562 30.65 -0.00976562 29.14C-0.00976562 25.96 0.000234375 22.78 0.0102344 19.6C0.0102344 13.6 0.0102344 7.60996 0.0202344 1.60996C0.0202344 1.44996 0.0202344 1.28996 0.0202344 1.12996C0.0502344 0.589961 0.430234 0.209961 0.980234 0.209961C1.58023 0.209961 2.18023 0.209961 2.77023 0.209961C8.65023 0.209961 14.5302 0.219961 20.4102 0.229961C26.4802 0.229961 32.5502 0.239961 38.6202 0.249961C38.7602 0.249961 38.9002 0.249961 39.0402 0.269961C39.5102 0.339961 39.8102 0.709961 39.8102 1.20996C39.8102 2.54996 39.8102 3.87996 39.8102 5.21996C39.8102 6.95996 39.8002 8.68996 39.7902 10.43C39.7902 11.64 39.7902 12.85 39.7902 14.05C39.7902 20.16 39.7902 26.27 39.7802 32.39C39.7802 34.55 39.7802 36.71 39.7802 38.88C39.7802 39.59 39.4302 39.94 38.7102 39.94H33.5202V39.92ZM6.99023 9.07996C6.99023 9.18996 6.99023 9.25996 6.99023 9.32996C7.07023 10.16 7.15023 11 7.23023 11.83C7.31023 12.68 7.40023 13.52 7.48023 14.37C7.56023 15.18 7.63023 16 7.72023 16.81C7.72023 16.85 7.78023 16.92 7.83023 16.93C7.92023 16.95 8.02023 16.95 8.11023 16.96C8.73023 17 9.35023 17.04 9.97023 17.09C10.8102 17.15 11.6402 17.21 12.4802 17.27C12.7802 17.29 12.7802 17.28 12.8202 17.59C13.0002 18.94 13.1802 20.3 13.3502 21.65C13.3702 21.8 13.4302 21.84 13.5502 21.87C15.1202 22.24 16.6802 22.63 18.2502 22.99C19.2802 23.23 20.3202 23.24 21.3702 23.04C22.9802 22.73 24.5702 22.34 26.1502 21.92C26.3602 21.86 26.4702 21.8 26.4902 21.55C26.5902 20.62 26.7302 19.7 26.8502 18.78C26.9202 18.3 26.9802 17.82 27.0502 17.33C28.7402 17.21 30.4202 17.1 32.1002 16.98C32.3602 14.36 32.6202 11.77 32.8802 9.12996C30.4702 9.00996 28.0802 8.88996 25.6702 8.76996C25.5702 10.62 25.4802 12.45 25.3802 14.27C25.3702 14.27 25.3502 14.27 25.3302 14.27C25.2902 13.91 25.2402 13.55 25.2102 13.19C25.2002 13.05 25.1402 12.99 25.0102 12.97C24.2202 12.84 23.4402 12.67 22.6402 12.58C21.6702 12.46 20.6902 12.36 19.7202 12.34C19.0302 12.32 18.3302 12.42 17.6302 12.52C16.7002 12.64 15.7802 12.81 14.8502 12.96C14.6802 12.99 14.6402 13.07 14.6202 13.22C14.5802 13.58 14.5402 13.94 14.5002 14.29H14.4602C14.3702 12.45 14.2802 10.62 14.1802 8.75996C11.7902 8.86996 9.39023 8.98996 6.99023 9.09996M14.9102 27.25C14.9702 27.23 14.9902 27.22 15.0002 27.21C16.5202 26.29 18.1202 26.1 19.8002 26.68C19.8602 26.7 19.9502 26.69 20.0202 26.67C21.1002 26.3 22.1902 26.26 23.3002 26.56C23.8502 26.71 24.3702 26.95 24.8902 27.28C24.5502 25.79 24.2202 24.35 23.8802 22.89C23.8202 22.89 23.7802 22.89 23.7402 22.91C22.9802 23.07 22.2102 23.23 21.4502 23.39C20.4902 23.59 19.5302 23.63 18.5602 23.42C17.6902 23.23 16.8102 23.07 15.9102 22.89C15.5802 24.32 15.2402 25.77 14.9002 27.25M13.7202 32.39H19.7402V32.22C19.7402 30.62 19.7402 29.02 19.7502 27.42C19.7502 27.24 19.7002 27.15 19.5202 27.1C17.8602 26.64 16.3202 26.87 14.8802 27.81C14.8102 27.86 14.7502 27.95 14.7302 28.03C14.4502 29.22 14.1702 30.41 13.8902 31.6C13.8302 31.86 13.7802 32.11 13.7102 32.39M20.0402 32.4H26.0502C26.0502 32.4 26.0502 32.31 26.0402 32.28C25.7102 30.86 25.3802 29.43 25.0502 28.01C25.0302 27.95 24.9802 27.88 24.9302 27.84C23.4802 26.88 21.9302 26.64 20.2602 27.11C20.1002 27.15 20.0402 27.22 20.0402 27.4C20.0402 29 20.0402 30.59 20.0402 32.19V32.41V32.4ZM21.8402 7.46996C21.8402 7.46996 21.7702 7.41996 21.7402 7.39996C21.4002 7.78996 21.0702 8.17996 20.7102 8.59996C20.3802 7.99996 20.0902 7.47996 19.7902 6.92996C19.4902 7.49996 19.1902 8.03996 18.9002 8.58996C18.5202 8.15996 18.1502 7.73996 17.7902 7.32996C17.7802 7.32996 17.7602 7.33996 17.7502 7.34996C17.8802 8.63996 18.0202 9.92996 18.1502 11.24C19.3202 11.21 20.4902 11.19 21.6602 11.16C21.7202 9.90996 21.7802 8.68996 21.8402 7.46996Z" fill="white"></path><path d="M96.04 0.909961V0.249961H104.88C104.88 0.439961 104.88 0.629961 104.88 0.819961C104.88 0.859961 104.78 0.919961 104.73 0.919961C104.3 0.929961 103.86 0.919961 103.43 0.929961C103.02 0.949961 102.61 0.979961 102.2 1.04996C101.77 1.12996 101.56 1.37996 101.5 1.81996C101.47 2.02996 101.46 2.24996 101.46 2.46996C101.46 7.26996 101.46 12.07 101.46 16.87C101.46 17 101.46 17.13 101.49 17.25C101.56 17.69 101.72 17.86 102.16 17.91C102.49 17.95 102.82 17.98 103.15 17.99C104.26 17.99 105.37 18.01 106.47 17.99C106.97 17.98 107.49 17.91 107.97 17.79C109.03 17.53 109.69 16.8 110 15.79C110.22 15.08 110.38 14.36 110.5 13.63C110.69 12.43 110.82 11.21 110.98 10.01C110.98 9.95996 111.06 9.88996 111.1 9.88996C111.29 9.87996 111.48 9.88996 111.7 9.88996C111.46 12.62 111.23 15.32 110.99 18.06C111.34 18.04 111.66 18.06 111.98 18.01C112.36 17.95 112.74 17.89 113.09 17.76C113.71 17.54 114.03 17.02 114.25 16.44C114.75 15.08 115.23 13.72 115.71 12.36C116.87 9.06996 118.03 5.76996 119.19 2.47996C119.22 2.38996 119.25 2.28996 119.27 2.18996C119.34 1.79996 119.22 1.52996 118.87 1.33996C118.44 1.10996 117.96 1.03996 117.47 0.999961C117.03 0.969961 116.6 0.959961 116.15 0.939961V0.239961C116.21 0.239961 116.28 0.229961 116.35 0.229961C117.77 0.229961 119.19 0.229961 120.61 0.229961C120.76 0.229961 120.83 0.279961 120.88 0.419961C122.91 5.61996 124.94 10.81 126.98 16C127.09 16.28 127.22 16.55 127.34 16.82C127.69 17.61 128.33 17.97 129.17 17.99C129.77 18.01 130.36 17.99 130.98 17.99V18.71H122.18V18.03C122.24 18.03 122.31 18.03 122.38 18.03C123.02 18 123.65 17.98 124.28 17.95C124.36 17.95 124.44 17.93 124.52 17.91C125.14 17.78 125.37 17.47 125.2 16.86C125.03 16.26 124.81 15.67 124.59 15.08C124.31 14.33 124.02 13.59 123.73 12.84C123.52 12.28 123.07 11.95 122.46 11.95C120.89 11.95 119.33 11.95 117.76 11.95C117.56 11.95 117.36 12 117.17 12.07C116.91 12.15 116.71 12.32 116.62 12.59C116.2 13.83 115.79 15.06 115.39 16.3C115.32 16.52 115.31 16.76 115.3 17C115.28 17.36 115.45 17.64 115.8 17.75C116.15 17.86 116.52 17.94 116.89 17.97C117.36 18.01 117.83 17.97 118.31 17.97V18.69H88.66V18.01C89.04 18.01 89.42 18.02 89.8 18.01C90.19 17.99 90.59 17.96 90.97 17.9C91.64 17.79 91.86 17.46 91.68 16.81C91.53 16.25 91.31 15.71 91.11 15.16C90.82 14.38 90.5 13.62 90.22 12.83C90.01 12.23 89.46 11.95 88.96 11.95C87.39 11.94 85.82 11.94 84.24 11.95C84 11.95 83.76 12.04 83.53 12.12C83.32 12.2 83.17 12.38 83.09 12.6C82.69 13.78 82.29 14.96 81.9 16.15C81.83 16.37 81.8 16.6 81.77 16.82C81.71 17.3 81.89 17.63 82.36 17.77C82.68 17.87 83.03 17.91 83.37 17.96C83.6 17.99 83.84 17.99 84.07 18C84.3 18 84.54 18 84.79 18V18.68H77V18C77.15 18 77.29 18 77.43 18C78 17.96 78.57 17.93 79.13 17.85C79.81 17.75 80.3 17.35 80.57 16.72C80.87 16.01 81.14 15.29 81.39 14.57C82.82 10.53 84.24 6.47996 85.66 2.42996C85.7 2.32996 85.73 2.21996 85.75 2.11996C85.82 1.78996 85.7 1.50996 85.42 1.32996C85.07 1.09996 84.67 1.00996 84.27 0.979961C83.78 0.929961 83.28 0.909961 82.79 0.899961C82.65 0.899961 82.6 0.859961 82.61 0.709961C82.62 0.549961 82.61 0.389961 82.61 0.219961C82.69 0.219961 82.76 0.209961 82.83 0.209961C84.25 0.209961 85.67 0.209961 87.09 0.209961C87.23 0.209961 87.3 0.239961 87.35 0.379961C89.38 5.57996 91.42 10.78 93.46 15.98C93.61 16.36 93.8 16.73 94 17.09C94.28 17.6 94.75 17.86 95.32 17.93C96.38 18.05 97.44 18.05 98.5 17.93C99.16 17.85 99.44 17.55 99.46 16.88C99.48 16.36 99.5 15.84 99.5 15.32C99.5 11.19 99.5 7.04996 99.5 2.91996C99.5 2.51996 99.47 2.11996 99.43 1.71996C99.39 1.33996 99.15 1.10996 98.79 1.02996C98.46 0.959961 98.11 0.929961 97.77 0.909961C97.27 0.889961 96.78 0.899961 96.28 0.899961C96.22 0.899961 96.16 0.899961 96.08 0.889961M86.42 3.18996C86.38 3.28996 86.36 3.32996 86.34 3.37996C85.71 5.16996 85.09 6.96996 84.46 8.75996C84.24 9.37996 84.03 9.99996 83.84 10.63C83.73 10.99 83.88 11.18 84.26 11.2C84.76 11.22 85.26 11.22 85.77 11.22C86.74 11.22 87.7 11.22 88.67 11.2C89.32 11.18 89.45 10.96 89.21 10.35C88.53 8.57996 87.84 6.81996 87.15 5.05996C86.91 4.45996 86.68 3.84996 86.42 3.19996M119.93 3.19996C119.9 3.27996 119.88 3.31996 119.86 3.36996C119.07 5.63996 118.27 7.90996 117.48 10.19C117.42 10.37 117.36 10.55 117.34 10.74C117.31 11.05 117.43 11.19 117.74 11.2C118.07 11.22 118.4 11.22 118.73 11.22C119.88 11.22 121.03 11.22 122.18 11.2C122.81 11.19 122.95 10.95 122.72 10.35C121.82 8.02996 120.91 5.70996 120.01 3.38996C119.99 3.32996 119.96 3.27996 119.92 3.18996" fill="white"></path><path d="M61.1599 34.1198H63.4099C63.6832 34.1198 63.8699 34.2498 63.9699 34.5098C64.5599 36.0698 65.7099 36.9998 67.2599 37.4898C68.1899 37.7798 69.1499 37.8998 70.1299 37.9498C71.1699 37.9998 72.2099 37.9898 73.2399 37.7898C73.8099 37.6798 74.3499 37.5198 74.8499 37.2298C76.2399 36.4198 76.3699 34.6898 75.0899 33.6898C74.4899 33.2198 73.7899 32.9398 73.0599 32.7598C71.8699 32.4698 70.6799 32.2198 69.4799 31.9498C67.9999 31.6198 66.5199 31.2798 65.1299 30.6498C64.4499 30.3398 63.8199 29.9498 63.3099 29.3798C62.5899 28.5698 62.3699 27.5998 62.4299 26.5498C62.4999 25.4298 62.9099 24.4498 63.6999 23.6498C64.3799 22.9698 65.1999 22.5098 66.0999 22.1798C67.1699 21.7898 68.2799 21.5998 69.4199 21.5498C71.1199 21.4698 72.7699 21.6498 74.3299 22.3698C76.1699 23.2198 77.3099 24.6298 77.6799 26.6398C77.7199 26.8698 77.7399 27.1098 77.7599 27.3398C77.7599 27.4098 77.7599 27.4798 77.7599 27.5598H75.1599C75.0899 27.2698 75.0399 26.9698 74.9499 26.6798C74.5899 25.5298 73.7799 24.8298 72.6899 24.3998C71.8199 24.0598 70.9099 23.9298 69.9899 23.9098C68.8899 23.8898 67.8099 23.9998 66.7699 24.3998C66.2599 24.5998 65.7999 24.8798 65.4599 25.3198C64.8699 26.0698 64.7799 27.5898 65.9899 28.3198C66.6099 28.6998 67.2899 28.9298 67.9899 29.0898C69.5199 29.4498 71.0599 29.7798 72.5899 30.1198C73.7899 30.3798 74.9499 30.7198 76.0199 31.3398C76.9799 31.9098 77.7999 32.6398 78.1099 33.7398C78.6099 35.5098 78.3999 37.1698 77.0699 38.5498C76.3499 39.2898 75.4099 39.6598 74.4299 39.9198C73.4399 40.1798 72.4299 40.2798 71.4099 40.3198C69.7899 40.3798 68.1899 40.2898 66.6099 39.8898C65.4099 39.5898 64.2899 39.1098 63.3199 38.3098C62.1199 37.3198 61.4199 36.0498 61.1799 34.5198C61.1599 34.3998 61.1499 34.2698 61.1299 34.1198" fill="white"></path><path d="M49.2601 29.2702H59.2601V31.7502H49.2501V39.9502H46.6401V21.9302H60.7101V24.3902H49.2601V29.2702Z" fill="white"></path><path d="M105.38 36.9102C105.73 36.1602 106.08 35.4302 106.42 34.6902C108.4 30.4902 110.38 26.2802 112.37 22.0802C112.4 22.0102 112.49 21.9302 112.55 21.9302C113.47 21.9302 114.39 21.9302 115.35 21.9302C115.31 22.0202 115.29 22.0802 115.26 22.1502C112.65 27.6702 110.03 33.1902 107.41 38.7002C107.23 39.0702 107.05 39.4402 106.88 39.8202C106.83 39.9302 106.77 39.9802 106.64 39.9802C105.79 39.9802 104.95 39.9802 104.1 39.9802C103.98 39.9802 103.92 39.9402 103.87 39.8402C101.07 33.9402 98.2599 28.0302 95.4499 22.1302C95.4299 22.0802 95.4099 22.0302 95.3799 21.9602C95.4399 21.9602 95.4899 21.9502 95.5299 21.9502C96.3999 21.9502 97.2699 21.9502 98.1499 21.9502C98.2799 21.9502 98.3399 22.0002 98.3899 22.1102C100.03 25.6002 101.68 29.1002 103.32 32.5902C103.98 34.0002 104.65 35.4102 105.31 36.8202C105.33 36.8502 105.35 36.8902 105.37 36.9302" fill="white"></path><path d="M70.97 0.000234375C73.13 0.000234375 74.91 0.380234 76.54 1.34023C78.68 2.60023 79.99 4.49023 80.55 6.89023C81.04 9.02024 80.97 11.1502 80.19 13.2002C79.13 15.9702 77.12 17.7302 74.28 18.5502C72.95 18.9402 71.58 19.0102 70.2 18.9002C68.67 18.7802 67.23 18.3702 65.91 17.5802C64.07 16.4802 62.83 14.8902 62.18 12.8602C61.42 10.4802 61.42 8.08023 62.29 5.74023C63.39 2.78023 65.58 1.02023 68.62 0.280234C69.48 0.0702344 70.36 -0.00976562 70.97 -0.00976562M78.59 9.23023C78.59 8.11023 78.42 6.79023 77.97 5.51023C77.41 3.92023 76.48 2.61023 75.02 1.73023C74.06 1.15023 73 0.860234 71.88 0.780234C70.72 0.690234 69.6 0.820234 68.51 1.23023C66.68 1.93023 65.46 3.26023 64.71 5.04023C64.23 6.19023 64.01 7.39023 63.94 8.63023C63.85 10.2202 63.99 11.7902 64.49 13.3102C64.97 14.7602 65.75 16.0202 67.01 16.9202C68.8 18.2102 70.82 18.4802 72.93 18.0502C75.24 17.5802 76.81 16.1602 77.74 14.0302C78.38 12.5802 78.59 11.0402 78.59 9.24023" fill="white"></path><path d="M94.8498 21.9399V24.3899H88.2498V39.9599H85.6798V24.3999H79.0098V21.9399H94.8498Z" fill="white"></path><path d="M61.9199 3.99989C60.1199 6.60989 58.3199 9.21989 56.5099 11.8399C56.2999 11.6999 56.0999 11.5599 55.8799 11.4199C55.9099 11.3599 55.9399 11.3099 55.9699 11.2699C56.8699 9.85989 57.7699 8.45989 58.6699 7.04989C59.0699 6.41989 59.3399 5.73989 59.3799 4.98989C59.4399 3.91989 59.0399 3.02989 58.2699 2.29989C57.4799 1.54989 56.5199 1.13989 55.4699 0.919893C54.0399 0.629893 52.6199 0.669893 51.2399 1.13989C49.3399 1.78989 48.0599 3.10989 47.2699 4.91989C46.8399 5.89989 46.6099 6.92989 46.4999 7.98989C46.3999 8.98989 46.3899 9.99989 46.4999 10.9999C46.6999 12.7999 47.2299 14.4899 48.4299 15.8999C49.4799 17.1399 50.8299 17.8499 52.4299 18.1099C53.8599 18.3399 55.2699 18.2399 56.6299 17.6999C58.4199 16.9899 59.5799 15.6499 60.2899 13.8999C60.4799 13.4399 60.5999 12.9499 60.7599 12.4699H61.4999C61.4199 12.7799 61.3599 13.0799 61.2799 13.3799C60.8299 14.9399 60.0599 16.2899 58.7899 17.3299C57.7799 18.1599 56.6099 18.6399 55.3199 18.8299C53.4899 19.0999 51.6899 18.9599 49.9599 18.3099C46.9999 17.1999 45.1699 15.0699 44.4499 12.0099C43.8999 9.64989 44.0399 7.30989 45.0699 5.07989C46.1499 2.73989 47.9899 1.22989 50.4399 0.469893C51.8799 0.0198933 53.3499 -0.0801068 54.8499 0.0398932C56.3299 0.159893 57.7199 0.559893 58.9999 1.30989C60.0099 1.90989 60.8399 2.70989 61.5899 3.59989C61.6999 3.72989 61.7999 3.84989 61.9199 3.99989Z" fill="white"></path><path d="M21.9299 20.43C21.9999 21.46 21.2699 21.92 20.5499 22.15C19.7099 22.42 18.6899 22.11 18.1699 21.46C18.0199 21.27 17.9199 21.06 17.9099 20.82C17.8699 19.69 18.0399 18.6 18.5999 17.6C18.8299 17.18 19.1599 16.84 19.6399 16.69C20.1099 16.55 20.4699 16.76 20.7999 17.05C21.2299 17.45 21.4599 17.97 21.6199 18.53C21.7099 18.83 21.7799 19.13 21.8299 19.44C21.8799 19.77 21.8999 20.1 21.9299 20.42M18.4299 20.41V20.65C18.4299 21.25 18.7099 21.62 19.2799 21.79C19.6399 21.9 19.9999 21.91 20.3699 21.83C21.0799 21.67 21.4099 21.28 21.3799 20.55C21.3499 19.98 21.2899 19.4 21.1899 18.83C21.1099 18.35 20.9399 17.9 20.5899 17.54C20.1699 17.11 19.6099 17.1 19.2199 17.56C19.0199 17.8 18.8699 18.09 18.7599 18.38C18.5199 19.04 18.4599 19.74 18.4399 20.41" fill="white"></path><path d="M71.4501 13.3399C71.3901 13.2399 71.3401 13.1899 71.3401 13.1299C71.2801 12.5199 71.2101 11.9199 71.1901 11.3099C71.1401 10.2499 70.3401 9.59992 69.5101 9.57992C68.9601 9.55992 68.4201 9.50992 67.8701 9.46992C67.8401 9.46992 67.8001 9.46992 67.7801 9.45992C67.7301 9.42992 67.6901 9.37992 67.6401 9.33992C67.6901 9.30992 67.7301 9.25992 67.7801 9.24992C68.0301 9.21992 68.2901 9.19992 68.5401 9.16992C68.9601 9.12992 69.3801 9.10992 69.7901 9.04992C70.5601 8.94992 71.1801 8.25992 71.2301 7.47992C71.2601 6.92992 71.3001 6.37992 71.3501 5.82992C71.3501 5.76992 71.4301 5.71992 71.4701 5.66992C71.5001 5.71992 71.5601 5.77992 71.5701 5.82992C71.6101 6.39992 71.6501 6.96992 71.6901 7.53992C71.7401 8.30992 72.3901 9.00992 73.1501 9.08992C73.7501 9.14992 74.3501 9.18992 74.9501 9.24992C75.0101 9.24992 75.0601 9.31992 75.1201 9.34992C75.0601 9.38992 75.0101 9.45992 74.9501 9.45992C74.4601 9.49992 73.9701 9.52992 73.4801 9.54992C72.4701 9.57992 71.7701 10.2699 71.7101 11.2699C71.6701 11.8899 71.6101 12.5099 71.5601 13.1299C71.5601 13.1799 71.5101 13.2299 71.4601 13.3399" fill="white"></path><path d="M126.96 3.49016H126.56V1.16016C127.02 1.19016 127.49 1.19016 127.94 1.25016C128.18 1.28016 128.32 1.50016 128.34 1.75016C128.37 2.02016 128.25 2.23016 128.02 2.37016C127.95 2.42016 127.86 2.44016 127.81 2.46016C128.03 2.78016 128.27 3.11016 128.51 3.46016C128.13 3.56016 128.05 3.53016 127.88 3.24016C127.81 3.11016 127.73 2.99016 127.66 2.86016C127.51 2.59016 127.29 2.47016 126.96 2.55016V3.49016ZM126.96 2.20016C127.22 2.18016 127.46 2.18016 127.69 2.15016C127.86 2.13016 127.94 2.00016 127.93 1.83016C127.93 1.68016 127.83 1.56016 127.68 1.54016C127.44 1.51016 127.2 1.51016 126.96 1.50016V2.20016Z" fill="white"></path></g><defs><clipPath id="clip0_354_1456"><rect width="131.13" height="40.34" fill="white"></rect></clipPath></defs></svg> 