<?xml version="1.0" encoding="UTF-8"?> <svg xmlns="http://www.w3.org/2000/svg" width="141" height="66" viewBox="0 0 141 66" fill="none"><g clip-path="url(#clip0_383_27)"><path d="M140.857 40.3255C140.754 40.5359 140.571 40.7026 140.385 40.8574C138.5 42.3817 136.679 43.9576 134.778 45.4818C132.889 46.891 131.623 46.8037 130.103 45.0214C129.889 44.7673 129.568 44.4577 129.27 44.4776C128.223 44.7673 127.346 45.6089 126.29 45.9661C123.143 47.2879 120.818 45.1286 120.897 42.1396C120.675 36.2886 124.131 31.0926 128.774 27.7384C130.242 26.6428 132.052 25.71 133.893 25.6465C136.187 25.4163 138.504 27.0438 140.508 28.1711C141.067 28.5005 141.008 29.1873 140.988 29.8502C140.968 30.2908 140.798 30.6996 140.536 31.0529C138.012 34.7048 135.302 38.4122 133.734 42.6159C133.786 42.7906 134.103 42.596 134.242 42.5246C135.786 41.6593 137.139 40.5796 138.571 39.6904C139.29 39.2855 141.488 38.6703 140.885 40.258L140.857 40.3176V40.3255ZM135.532 29.8224C131.322 30.1915 128.719 32.6526 126.584 35.59C125.008 37.7573 123.262 40.0635 124.318 43.116C128.734 42.5564 134.119 36.2489 135.532 29.8224Z" fill="white"></path><path d="M51.205 41.1156C48.967 42.6756 47.1496 43.9537 45.3203 45.216C42.6061 47.0936 41.6458 46.8832 39.9474 43.918C38.9276 44.4499 37.9435 45.1763 36.8443 45.47C35.7412 45.7638 34.2928 46.0575 33.4039 45.5852C31.9794 44.827 31.8643 43.1043 32.4476 41.6872C33.3285 39.5556 34.273 37.4041 35.5428 35.4948C37.257 32.9187 39.3046 30.5648 41.2172 28.1196C41.9831 27.1391 42.8203 26.5001 44.0267 27.5361C45.229 28.5642 45.1576 29.6161 44.2608 30.8268C42.1735 33.6411 40.1339 36.4912 38.0903 39.3333C37.7173 39.8533 37.4118 40.4289 36.8364 41.3696C40.0307 40.8298 42.0664 39.2579 43.8759 37.2096C47.0266 33.6451 50.217 30.1083 53.4391 26.6112C54.6771 25.2695 56.3557 25.5355 56.812 27.1987C56.9866 27.8378 56.5898 28.8698 56.1096 29.4136C53.205 32.6686 50.1931 35.8243 47.2329 39.0356C46.6456 39.6747 46.1377 40.3892 45.7845 41.2426C49.0067 39.7818 52.0701 38.2298 54.2764 35.3797C57.2406 31.5492 60.8595 28.4768 65.4348 26.7581C66.7363 26.2698 68.3315 26.0158 69.6609 26.2897C71.2124 26.6072 71.9902 26.1071 72.8036 24.9956C75.1051 21.8479 77.4583 18.7358 79.8034 15.6198C80.2796 14.9887 80.7915 14.3774 81.3153 13.7859C82.1089 12.8849 83.0533 12.4879 84.0771 13.3652C85.085 14.2305 85.1684 15.2784 84.3549 16.3542C82.72 18.5135 81.0653 20.665 79.4344 22.8283C75.1448 28.5364 70.8513 34.2405 66.5895 39.9684C65.9348 40.8456 65.4507 41.8499 65.1372 43.0011C70.76 42.096 72.0219 36.8286 75.2004 33.1687C73.1409 31.5611 74.5972 30.7672 75.8313 29.9178C76.5376 29.4295 77.2519 28.9492 77.9662 28.4729C79.0415 27.7584 80.1248 27.7068 80.9939 28.7269C81.9542 29.8622 82.8351 29.6518 83.8747 28.8817C84.6684 28.2943 85.5533 27.8298 86.4024 27.3178C89.5611 25.4005 89.8468 25.4442 92.1245 28.1831C94.7593 28.064 96.6998 24.6662 100.144 26.2936C97.3228 29.8106 94.7673 32.9782 92.2356 36.1696C91.4975 37.0985 90.7198 38.0313 90.1841 39.0753C89.9103 39.6111 90.1246 40.3971 90.1166 41.0719C90.7317 41.0203 91.5134 41.195 91.9301 40.8814C93.3348 39.8136 94.7871 38.718 95.8942 37.3684C97.4815 35.4353 98.791 33.268 100.208 31.1959C101.747 28.9373 102.176 28.7865 105.394 29.7034C102.604 33.9229 99.8783 38.0432 97.1521 42.1675C97.2712 42.3262 97.3942 42.4811 97.5132 42.6398C98.9338 42.0325 100.35 41.4252 101.842 40.7861C101.497 43.4258 99.7037 45.5018 97.3585 46.125C95.4617 46.6291 94.8427 46.2719 92.7396 43.3583C91.2793 44.1125 89.823 44.9937 88.2635 45.6169C87.4381 45.9464 85.9858 46.2322 85.6009 45.8154C84.8985 45.0572 84.3985 43.7116 84.5215 42.6954C84.6684 41.4649 85.4064 40.2224 86.1405 39.1626C87.7357 36.8643 89.4936 34.6811 91.1841 32.4503C91.0253 32.2716 90.8666 32.093 90.7079 31.9104C89.5849 32.7162 88.3111 33.3791 87.3667 34.3556C83.8351 38.0194 80.4304 41.8102 76.9265 45.4978C76.5138 45.9305 75.7718 46.0456 75.1805 46.3076C75.2599 45.5971 75.1051 44.7317 75.4543 44.2038C77.4781 41.183 79.6288 38.2496 81.724 35.2765C82.1645 34.6533 82.5613 33.9983 82.9819 33.3593C82.8232 33.1648 82.6645 32.9703 82.5057 32.7718C81.1407 33.6609 79.5653 34.3477 78.4503 35.4829C75.5774 38.4044 72.9028 41.5165 70.1608 44.565C67.4585 47.5699 63.2563 46.9348 61.6452 43.013C60.5064 43.656 59.3992 44.2911 58.2802 44.9143C57.5898 45.2994 56.9072 45.7201 56.1811 46.0218C53.0462 47.3278 51.3241 46.2163 51.2169 42.8423C51.205 42.4572 51.2169 42.0722 51.2169 41.1156H51.205ZM54.5105 43.0407C58.8913 43.1043 68.0617 34.558 68.0696 30.406C63.0142 31.0927 54.7367 38.8093 54.5105 43.0407Z" fill="white"></path><path d="M13.3286 60.9074C13.1104 60.2961 13.535 59.4903 13.7691 58.6885C14.1619 57.4977 14.5746 56.283 14.9754 55.0485C15.0944 54.6317 15.2333 54.0879 14.8921 53.7624C14.654 53.5163 14.1461 53.4449 13.7691 53.4052C9.56286 53.0201 5.4717 52.651 1.40039 52.2778C0.876595 52.2381 -0.0876632 52.0754 0.00360405 51.4482C0.059158 51.218 0.317087 50.9679 0.658348 50.7814C1.63848 50.2733 2.80908 50.0589 3.90826 49.9359C7.55895 49.5429 11.2057 49.2372 14.8841 48.9753C16.6023 48.9356 18.142 48.3282 18.9515 46.7127C26.1457 33.8636 33.3241 20.9986 40.4985 8.13758C40.7961 7.47865 41.6532 6.32751 40.7525 6.18064C40.1533 6.06156 38.4351 7.04201 38.3914 5.95042C38.5263 5.08905 39.2803 4.40233 39.9033 3.81882C41.7088 2.42555 44.2682 -0.777797 46.7364 0.17884C48.5697 1.36967 47.5856 4.48172 46.8197 6.19255C39.6652 19.2878 31.9948 32.1408 24.6418 45.1289C24.241 46.145 22.0585 48.4156 24.0823 48.749C33.963 49.3206 43.9389 49.2809 53.8394 49.8366C55.5179 50.0589 57.4226 50.0788 58.9027 50.9639C59.621 51.4284 59.99 52.3175 59.7003 53.0082C59.1091 54.3102 57.1211 54.3419 55.8354 54.3102C45.1015 54.1355 34.3876 53.9252 23.6418 53.5639C22.1895 53.5163 20.5348 53.5481 19.3364 54.3896C17.9753 54.8183 14.3762 62.527 13.3445 60.959L13.3247 60.9193L13.3286 60.9074Z" fill="white"></path><path d="M114.33 14.6434C114.342 14.4688 114.584 14.2624 114.755 14.1433C115.703 13.4804 116.667 12.7778 117.647 12.1705C118.806 11.4798 119.759 12.0157 119.513 13.4923C119.259 14.7586 118.643 15.9335 118.223 17.1561C114.711 26.4962 110.001 35.3401 105.743 44.3468C105.576 44.9105 104.084 47.1334 105.318 47.05C108.902 46.5618 112.263 45.9584 115.564 45.5019C116.759 45.3868 118.096 45.0534 119.211 45.6091C120.163 46.0854 119.997 47.2445 119.159 47.7844C118.243 48.3957 117.1 48.6497 116.013 48.7966C112.921 49.1737 109.814 49.5071 106.699 49.7215C105.838 49.785 104.854 49.8445 104.132 50.3407C103.188 50.944 102.791 52.3532 102.279 53.4051C101.989 54.0323 101.676 54.6515 101.362 55.2707C101.088 55.763 100.91 56.3385 100.501 56.6045C100.037 56.8268 99.9853 56.0765 99.9892 55.755C100.005 54.854 100.029 53.9767 100.132 53.0558C100.287 51.9285 100.275 50.4995 99.0964 50.0668C98.4496 49.7492 97.5687 49.8088 97.025 49.3324C96.7393 48.8879 97.9893 48.4234 98.2948 48.2012C100.68 47.1731 101.414 47.4628 102.533 44.7239C106.56 35.7887 110.632 26.8654 114.62 17.9182C115.032 17.0926 115.104 16.0407 114.604 15.2508C114.501 15.0602 114.338 14.8896 114.326 14.6831V14.6434H114.33Z" fill="white"></path><path d="M105.164 65.861C105.072 64.3328 105.374 62.6299 105.255 61.1056C105.287 59.7878 103.814 59.2003 102.215 58.5374C102.148 58.4381 102.068 58.3865 102.215 58.2794C102.632 57.9698 103.096 57.5847 103.533 57.3307C103.83 57.1481 104.18 57.0965 104.537 57.025C108.156 56.4018 106.187 51.1304 109.921 51.2455C110.378 51.2773 111.084 51.2138 111.568 51.444C111.259 52.9286 110.54 54.3655 110.044 56.0604C109.997 56.2867 110.183 56.2907 110.354 56.2629C113.961 55.7111 117.112 55.1792 120.52 54.7347C121.54 54.6553 122.572 54.4171 123.584 54.6235C124.032 54.7624 124.473 54.9966 124.536 55.2904C124.627 55.7548 124.377 56.5249 123.957 56.8623C123.092 57.4736 121.969 57.9578 120.885 58.073C117.6 58.4659 114.314 58.7359 111.001 58.9621C110.084 59.0137 109.175 59.3075 108.604 60.0458C107.509 61.8677 106.771 63.916 105.747 65.7737C105.656 65.992 105.354 66.0754 105.203 65.9007L105.176 65.857L105.164 65.861Z" fill="white"></path><path d="M111.747 44.0333C111.624 43.8547 111.755 43.5252 111.866 43.3069C114.624 37.3011 117.54 31.6645 120.207 25.7103C120.338 25.1387 119.878 24.5473 119.933 24.0908C120.048 23.5113 120.552 22.8365 121.028 22.3006C121.592 21.6933 122.247 21.5146 123.012 21.3558C124.04 21.0304 124.501 21.8322 124.429 22.8166C124.33 23.5629 124.016 24.2774 123.798 24.9998C122.009 30.4856 119.175 35.5466 116.913 40.8419C116.473 41.8858 115.941 43.1084 114.985 43.7277C114.31 44.2 113.326 44.3906 112.322 44.2873C112.12 44.2675 111.902 44.2119 111.783 44.073L111.755 44.0333H111.747Z" fill="white"></path><path d="M104.104 24.6147C104.699 24.5948 105.239 25.2696 105.687 25.6467C105.953 25.9048 106.302 26.135 106.386 26.5002C106.481 27.1393 105.025 28.0165 104.314 27.9173C103.632 27.822 102.842 26.8535 102.604 26.0913C102.501 25.4086 103.422 24.7219 104.029 24.6187H104.108L104.104 24.6147Z" fill="white"></path></g><defs><clipPath id="clip0_383_27"><rect width="141" height="66" fill="white"></rect></clipPath></defs></svg> 