<?xml version="1.0" encoding="UTF-8"?> <svg xmlns="http://www.w3.org/2000/svg" width="194" height="43" viewBox="0 0 194 43" fill="none"><path d="M67.2003 11.2963C67.0576 11.1443 66.9096 10.9907 66.753 10.8309C66.5317 11.7841 66.3275 12.769 66.2168 13.7378C66.9111 13.3781 67.6055 12.9721 68.2366 12.4873C67.886 12.0512 67.5603 11.6799 67.2003 11.2963L68.5959 4.66669C69.6596 4.13487 70.844 3.78752 72.1337 3.97046C73.7592 4.37646 74.7691 5.84534 75.8421 7.00238C76.7414 8.11233 77.4988 9.69082 76.7733 11.1443C76.5365 11.551 76.2209 11.7849 75.8897 12.0821L76.4889 12.7698L76.3627 13.6914L76.5209 13.676L82.9902 9.67461C83.164 9.53413 83.3845 9.42452 83.6214 9.40908C84.237 10.1123 84.8059 10.6912 85.4363 11.3627C86.9044 10.597 89.1128 10.269 90.5809 11.2531C91.7646 12.0188 92.3638 13.2229 93.3893 14.1291L93.5 14.0504C93.9262 13.4722 94.4467 12.8154 95.0779 12.3939L95.1574 12.2689C97.6978 10.1902 101.815 9.70625 104.925 11.0493C105.966 11.4244 106.803 12.2689 107.591 12.9721C108.27 12.0736 109.141 11.3542 110.142 10.8602L115.42 17.7345C115.278 18.1845 115.137 18.6345 115.007 19.0837L114.881 19.2088C114.092 19.0367 113.287 19.0367 112.514 19.2559C111.441 19.6464 110.936 20.7726 110.778 21.8193L113.271 24.5702C113.729 25.4139 114.06 26.3525 114.911 26.9453C116.3 27.7264 118.446 28.0552 119.898 27.1954C120.955 26.6327 121.428 25.4756 121.397 24.2568C121.318 22.8026 120.34 21.6772 119.503 20.5835L116.537 17.2073L115.811 16.4571C115.688 16.8831 115.554 17.3092 115.419 17.7337L110.14 10.8594C111.14 10.3654 112.267 10.0953 113.459 10.0953C113.681 8.70436 113.964 7.34432 114.675 6.17184C115.701 4.35871 117.642 2.90527 119.757 2.48383C121.35 2.08323 122.896 2.32328 124.382 2.7069L124.323 10.1941C123.936 10.4341 123.623 10.7877 123.449 11.206C122.945 12.6903 123.844 14.0504 124.854 14.9257L128.246 18.7549L129.398 19.9583C129.51 19.5986 129.541 19.208 129.588 18.8175C128.909 17.9576 128.183 17.2544 127.443 16.3945L127.71 14.6285C127.142 13.8937 126.495 13.253 125.896 12.5498C125.975 11.6583 126.289 10.8772 126.259 9.97101C126.022 9.90771 125.769 9.8614 125.518 9.8614C125.089 9.85445 124.677 9.97718 124.325 10.1941L124.383 2.7069C125.162 2.90836 125.925 3.14919 126.67 3.35913C127.048 3.42166 127.443 3.34293 127.711 3.0774C127.9 2.85896 127.964 2.59266 128.027 2.32714L128.2 2.26462L131.703 2.32714L131.797 2.35879L134.306 5.20314L134.338 5.37527L133.535 9.73559C133.597 9.79888 133.691 9.72015 133.754 9.6885L138.03 6.98463L138.123 6.92211L140.855 10.0636C140.807 10.7359 140.571 11.3449 140.523 12.0172C141.312 12.1114 142.07 11.9231 142.78 11.7363L142.89 11.7517L143.615 12.5174C145.778 11.0323 148.492 10.1262 151.332 10.7822C153.667 11.3449 155.213 13.4236 156.76 15.0962L156.934 15.08L161.51 12.1724C162.851 11.2816 164.271 10.4218 165.628 9.53181L165.771 9.56346C166.307 10.1732 166.764 10.7514 167.332 11.3141C167.648 11.2515 167.916 11.0323 168.232 10.9389C169.478 10.4079 171.324 10.2203 172.492 11.0015C173.834 11.9238 174.59 13.2214 175.758 14.3151C177.904 11.5333 181.376 9.76646 185.131 10.5013C187.024 10.8764 188.286 12.3306 189.628 13.6274C191.001 15.1433 192.169 16.8623 192.531 18.8946C192.594 19.3323 192.72 19.7383 192.706 20.2076C191.869 20.6298 191.001 20.9895 190.15 21.3801C190.087 21.5051 190.261 21.5684 190.292 21.6618C191.127 22.6614 192.028 23.6934 192.186 25.0534C192.438 27.8036 191.001 30.1486 188.84 31.5557C187.452 32.2905 185.984 32.9474 184.248 32.8995C181.424 32.837 179.009 31.3519 177.29 29.2424L177.258 29.274C176.975 30.3516 176.817 31.4932 176.627 32.6186L176.516 32.7274L155.94 32.6656L154.552 31.1342H154.473C152.721 32.6656 150.134 33.4321 147.687 32.7274C146.125 32.3222 144.736 31.4932 143.568 30.4619L143.412 30.509C140.997 32.1338 138.283 33.5255 135.082 33.3055C133.518 33.1033 132.287 32.0088 131.34 30.79C130.442 32.1647 129.48 33.4939 128.075 34.5097C127.918 34.4942 127.933 34.6818 127.79 34.7127C124.919 36.4957 120.564 36.0418 117.741 34.5097C117.314 34.353 116.888 34.1654 116.43 34.1036C116.225 34.1191 116.083 34.2588 115.988 34.4325L116.004 34.8848L112.896 36.0109L112.802 35.9639C112.218 35.307 111.649 34.6818 111.05 34.0411L110.956 34.1036C108.131 38.5427 103.382 41.6834 97.8116 41.7143C94.8457 41.7768 92.0685 41.2304 89.9068 39.5585C88.392 38.4485 87.1615 36.87 86.0721 35.3379C85.5835 34.5097 85.6623 33.2438 85.9934 32.3839L64.8492 32.3523L52.0843 32.2581L52.0368 32.2743C52.0212 32.3839 52.1631 32.4302 52.195 32.5244C52.8574 33.649 53.2205 35.2738 52.6049 36.5567C51.4999 38.9479 48.9128 40.1829 46.3717 40.511L46.2563 40.5596C44.6113 40.7672 42.9991 40.8012 41.4304 40.6777L40.5522 32.7783C41.5871 32.7691 42.6157 32.5854 43.384 32.0559C43.0528 31.6336 42.6741 31.2114 42.2798 30.79H42.2011C40.4182 32.0088 37.8311 32.2581 35.6531 31.6491C36.4892 32.0867 37.3892 32.3839 38.3352 32.5715C39.0093 32.6903 39.7823 32.7822 40.553 32.7776L41.4304 40.6769C34.6322 40.1412 28.6499 36.6408 24.3555 31.4461C22.8095 29.4925 21.0889 27.5543 19.9216 25.3035C19.5584 24.6937 19.2436 24.0685 18.8961 23.4124L18.8485 23.4595C18.6272 24.6158 18.3911 25.7574 18.2329 26.9453L20.8052 29.8367C20.5683 31.1342 20.3634 32.4472 20.1101 33.7277L6.5878 33.6969H5.38775L2.72116 30.7113L3.47859 26.7577L3.54249 26.5084C4.86799 26.5702 6.47714 26.8365 7.3764 25.7736C7.59693 25.4455 7.66005 25.0704 7.73953 24.6791L9.47492 14.8639V14.8323C8.85931 15.036 8.24371 15.3795 7.50264 15.2699C4.89916 15.036 3.463 12.4256 1.91697 10.675C1.15954 9.51792 1.08083 7.67391 1.7432 6.43891C2.99 3.9226 5.86154 3.01565 8.46501 2.4846C12.7961 1.4117 17.6415 1.27971 22.2484 1.77757L21.9718 8.97297C21.8105 8.97452 21.6468 8.98455 21.4832 9.00231L21.3094 9.84674L20.5364 14.16L20.5044 14.4726C20.725 14.3946 20.9782 14.3637 21.1676 14.2071C22.5406 13.3788 23.7391 12.0975 24.0079 10.472C24.0235 10.0814 24.1186 9.59665 23.9285 9.25239C23.3051 9.08876 22.6497 8.96448 21.9718 8.97297L22.2484 1.77757C22.61 1.81616 22.9708 1.85938 23.3292 1.90647C25.7909 2.25072 28.0943 3.25107 29.8617 4.97004C31.1708 6.22047 32.2602 7.65847 33.2382 9.15822C33.5382 9.73713 33.7431 10.3315 33.9013 10.9721C34.4374 10.8934 34.8949 10.5661 35.4318 10.4411C36.3941 10.1756 37.6098 9.97178 38.7132 10.0891C39.0981 10.13 39.1083 10.1393 39.5657 10.1987C42.106 10.5237 43.7939 12.7235 45.3875 14.4896L45.5612 14.6455C45.7194 14.1299 45.7825 13.5517 45.8924 13.0045L44.7087 11.6761C44.157 10.6757 43.4471 9.65994 42.8627 8.70668V8.61251L44.33 7.64381L54.5242 1.28125L54.6504 1.3129L57.3646 4.29851L57.4214 4.38032C57.3747 4.86506 57.2126 5.47407 57.1658 5.97424C57.5796 5.78282 57.9802 5.50108 58.3745 5.28264L64.5913 1.32833L64.7176 1.39086L67.7153 4.73539C67.7153 4.87664 67.7153 5.01712 67.7153 5.1576C67.9982 4.98393 68.2928 4.81798 68.5959 4.66669L67.2003 11.2963ZM184.48 24.4815L184.038 24.1689C183.644 24.3726 183.203 24.4506 182.839 24.7169C182.903 24.7948 182.997 24.8581 183.059 24.9199C183.596 24.9978 184.149 24.8728 184.48 24.4815ZM97.6323 34.2603L95.6912 33.9639C95.565 34.1515 95.4231 34.3862 95.392 34.6046C96.1494 34.5583 96.9536 34.5266 97.6323 34.2603Z" fill="black"></path><path d="M183.407 20.084L179.494 21.9442C179.415 22.3193 179.558 22.6945 179.669 23.038C180.095 24.4134 181.105 25.5859 182.414 26.1787C183.455 26.523 184.671 26.3215 185.476 25.6631C185.854 25.3513 186.233 24.929 186.436 24.476C186.28 24.1471 186.027 23.8507 185.633 23.8345C185.223 23.6006 185.017 23.1159 185.112 22.6157C185.191 21.9905 185.665 21.397 186.232 21.1785C186.8 20.9439 187.621 20.9439 188.127 21.3198C188.836 21.8508 188.899 22.8982 188.726 23.7736C188.236 26.259 186.027 28.0397 183.63 28.6178C181.105 29.1489 178.264 28.7282 176.781 26.648C174.999 24.5539 174.493 21.3036 175.313 18.5372C176.04 16.0054 177.649 13.6296 180.11 12.4579C181.641 11.7076 183.63 11.3479 185.38 11.8481C187.795 12.4108 188.995 14.9271 189.278 17.2242V17.3184L183.407 20.084ZM184.528 15.6295C184.228 14.8013 183.566 13.9569 182.603 13.8635C181.656 13.6913 180.821 14.1776 180.285 14.8345C179.464 15.8348 179.191 17.005 179.143 18.365C179.112 18.771 179.084 19.3337 179.21 19.7251C179.32 19.881 179.431 20.0531 179.62 20.0848C181.356 19.2558 183.123 18.4901 184.858 17.6464C184.764 16.9733 184.733 16.2547 184.528 15.6295Z" fill="white"></path><path d="M173.328 28.7747L164.962 28.7909C164.994 28.2907 165.104 27.7751 165.214 27.2904C166.082 27.18 167.014 26.774 167.329 25.8994L167.518 25.1337L168.574 18.5226C168.574 17.5848 167.897 16.8816 167.139 16.444C166.335 16.0997 165.372 16.3498 164.741 16.8654C163.873 17.5539 163.29 18.5543 163.1 19.6635L162.122 25.4309C162.107 26.1958 162.596 26.8373 163.258 27.1499L163.573 27.2433C163.573 27.7751 163.421 28.3409 163.359 28.8565L163.053 28.855H154.768L155.006 27.4316C155.242 27.3529 155.51 27.3529 155.763 27.2904C156.505 27.1337 157.278 26.791 157.625 26.0862L157.846 25.3051L158.667 20.4284C158.715 19.9753 158.792 19.4126 158.478 19.0684C158.068 18.6778 157.499 18.3181 156.884 18.5373C156.331 18.7712 155.795 19.1 155.369 19.5377C154.912 22.8351 153.476 26.1017 150.682 28.009C149.105 29.0556 146.737 29.369 144.876 28.6967C143.425 28.1965 142.241 27.2271 141.167 26.0862L141.011 26.1179C138.864 27.8376 136.355 29.5249 133.278 29.5103C132.032 29.4632 130.706 28.7438 130.311 27.5567C129.854 26.1804 129.98 24.3989 130.28 22.9926L131.543 16.0997C131.336 15.8967 131.21 15.4907 130.847 15.4907L130.831 15.4591L129.095 15.4274L129.331 14.1307L135.96 10.0197L136.749 9.58203C136.607 10.7074 136.37 11.8166 136.181 12.9266C136.354 13.1612 136.527 13.3797 136.733 13.5518L141.119 13.5672C140.867 14.3491 140.583 15.0994 140.252 15.8496C139.936 15.8026 139.637 15.6621 139.289 15.6304C138.138 15.5988 136.938 15.5679 135.787 15.5834L135.692 15.818L134.824 21.1007L134.477 23.1014C134.443 23.2789 134.446 23.414 134.446 23.414C134.303 24.5394 134.84 25.5398 135.677 26.1642C136.733 26.6798 137.854 26.0708 138.77 25.6332C139.338 25.2897 139.905 24.9771 140.394 24.5548C140.048 22.8204 139.968 20.6793 140.537 19.0383C141.689 15.3186 145.002 12.4897 148.947 11.9895C150.746 11.927 152.435 12.3801 153.728 13.4592C154.675 14.3653 155.149 15.6629 155.48 16.9287L155.922 17.3818C157.436 16.4131 158.983 15.4436 160.497 14.5058L164.08 12.1763C164.19 12.1454 164.317 12.0204 164.394 12.0358C164.3 12.9266 164.08 13.771 163.968 14.6617C164.08 14.8809 164.269 15.0994 164.472 15.2561L164.647 15.1773C166.052 13.6923 167.741 12.3484 169.792 11.8953C170.959 11.6923 172.143 11.9895 172.853 12.8648C173.72 14.1461 173.406 16.0063 173.121 17.4598L172.317 21.7892L171.684 25.1654C171.654 26.0723 172.205 26.8265 173.007 27.1684L173.562 27.3073C173.506 27.8206 173.417 28.2513 173.328 28.7747ZM151.076 20.0687C151.155 18.8183 151.44 17.5995 151.266 16.302C151.202 15.2862 150.493 14.4418 149.593 14.0195C148.947 13.7386 148.11 13.7849 147.574 14.2542C146.137 15.3479 145.838 17.2081 145.364 18.8492C145.017 20.7256 144.543 22.7255 144.923 24.7262C145.096 25.7258 145.745 26.7724 146.769 27.0241C147.51 27.2417 148.252 26.977 148.788 26.5393C150.145 25.258 150.415 23.3816 150.84 21.6464L151.076 20.0687Z" fill="white"></path><path d="M129.317 11.4723L129.254 11.5194L127.629 11.4569C127.802 10.1432 127.802 8.65886 126.871 7.72103C125.783 6.43895 124.094 5.54898 122.311 6.09547C121.159 6.43895 120.15 7.33047 119.896 8.53382C119.486 10.3624 120.605 11.8629 121.6 13.1133C123.778 15.8172 126.207 18.2085 128.071 21.0374C129.143 22.8351 128.891 25.539 127.96 27.3359C127.092 29.5396 124.898 31.4322 122.516 31.8683C119.565 32.5406 117.04 31.1806 114.516 30.3369C114.106 30.2281 113.522 30.0876 113.128 30.3215C112.749 30.5399 112.432 30.8996 112.354 31.3682C112.006 31.5557 111.628 31.68 111.218 31.7587L110.54 29.8676L108.52 24.0693L108.536 24.0377C109.136 23.8339 109.735 23.6317 110.319 23.4912C111.692 26.476 114.421 28.8997 117.908 29.024C119.772 29.1174 121.537 28.2104 122.342 26.6474C122.942 25.5382 123.083 23.8509 122.405 22.7093C121.206 20.4269 119.108 18.5983 117.403 16.6138C115.794 14.7698 114.705 12.5506 114.973 9.89309C115.162 8.17412 115.841 6.48526 117.246 5.40696C118.808 4.14108 120.891 3.34374 123.083 3.75051C124.236 3.93808 125.308 4.3603 126.43 4.64126C127.312 4.78174 128.259 4.67213 128.763 3.95275L128.985 3.64014L130.594 3.67178L130.641 3.71887L129.522 10.2358L129.317 11.4723Z" fill="white"></path><path d="M111.896 15.2387C110.682 15.1445 109.483 15.3483 108.663 16.1765C107.432 17.3335 107.448 19.1775 106.628 20.5684C105.523 22.6942 103.456 24.1793 100.995 24.3977C99.4953 24.5228 98.0911 24.1947 96.7976 23.7262C96.5607 23.8983 96.5287 24.2101 96.4656 24.4764C96.2131 25.2421 96.4976 26.0549 97.0337 26.5705C97.7599 27.4621 99.1478 27.1965 100.253 27.1649C102.555 26.9619 105.27 26.6176 107.369 27.4775C107.984 27.9314 108.3 28.6808 108.11 29.4628C107.574 31.6194 105.98 33.3059 104.292 34.7447C100.647 37.9348 94.5409 38.9815 89.9176 36.8859C88.8126 36.3865 87.519 35.698 87.2977 34.3858C87.0764 32.9007 88.1814 31.7128 89.1913 30.8845C90.0594 30.2285 91.0849 29.7275 92.048 29.2435C92.1267 29.1602 91.8602 28.8754 91.7893 28.765C91.7052 28.633 91.6841 28.5874 91.5267 28.5404L82.722 28.5242C82.7376 28.1181 82.817 27.6959 82.9113 27.3054C83.7794 27.1178 84.6943 26.7581 85.1041 25.9453L85.2304 25.4606L86.4141 18.6148C86.4772 18.1301 86.4452 17.599 86.146 17.2401C85.5779 16.5678 84.6787 16.1618 83.7475 16.4428C82.3277 16.943 81.1596 18.2088 80.8915 19.6623L79.9923 25.0855C79.9923 25.977 80.5128 26.7735 81.3333 27.0862C81.3333 27.5555 81.2071 28.0394 81.1128 28.4933H73.2065C73.2385 28.1181 73.3164 27.6805 73.3959 27.2892C74.2952 27.0545 75.2264 26.6323 75.4632 25.6636L76.5355 19.5843C76.4404 18.9591 75.9199 18.4589 75.3518 18.2868L74.6411 18.2713C74.3731 17.8646 74.1206 17.4269 73.8837 16.9893L74.0575 16.8334L82.0892 11.9729C81.9949 13.2858 81.6637 14.52 81.49 15.8021C81.6474 15.958 81.758 16.1456 81.963 16.1773C83.0048 14.9739 84.1877 13.911 85.4821 12.9732C86.76 12.0354 88.9069 11.6602 90.3578 12.5518C91.2259 13.2241 91.3639 14.1766 91.2532 15.2711L91.2002 15.5798L89.7422 25.2591C89.7282 25.9762 90.421 26.728 91.1464 26.9935C91.5252 27.1494 91.9514 27.2428 92.3777 27.1973C92.5195 25.696 93.5138 24.2433 94.9967 23.8366C95.2173 23.7277 95.4541 23.6961 95.6599 23.5564C95.4386 23.2438 95.1082 22.9937 94.8549 22.6811C93.4032 21.1018 93.2302 18.3354 94.0344 16.3502C94.7762 14.537 96.2911 12.8806 98.215 12.2554C101.103 11.2396 104.858 11.6772 106.91 13.8501C107.289 14.2406 107.714 14.6466 108.03 15.1005C108.188 15.0843 108.204 14.8975 108.283 14.7879C109.087 13.0689 110.918 11.8339 112.843 11.7714C112.591 12.957 112.228 14.0816 111.896 15.2387ZM103.219 19.4122C103.597 18.0051 104.039 16.114 103.298 14.7547C102.793 13.9257 101.973 13.3476 100.946 13.4888C99.9364 13.6918 99.3691 14.598 98.9896 15.4579C98.3896 17.3335 97.5698 19.8807 98.7683 21.7255C99.2101 22.3353 99.8569 22.7884 100.694 22.6479C101.799 22.5066 102.461 21.3504 102.871 20.475L103.219 19.4122ZM102.903 32.5873C103.077 31.9304 102.698 31.3832 102.271 30.9942C101.293 29.9938 99.6527 30.5565 98.3904 30.6337C97.2542 30.7116 96.1492 30.6653 95.1089 30.4315C94.2884 30.2578 93.5465 29.9004 92.7727 29.5863C91.7948 30.7271 90.7218 32.1342 91.2735 33.8069C91.6522 34.6196 92.3621 35.5575 93.2777 35.7913C95.2032 36.3695 97.4116 35.9473 99.2109 35.3529L99.2273 35.3691C100.348 34.9168 101.468 34.4483 102.304 33.5406C102.555 33.2588 102.745 32.9316 102.903 32.5873Z" fill="white"></path><path d="M71.6605 9.47168C70.6981 10.2219 69.1988 10.6596 67.9684 10.0969C67.4159 9.54964 67.3372 8.5655 67.6208 7.84611C68.2364 6.43976 69.7357 5.67406 71.2342 5.50116C72.0072 5.48572 72.8434 5.73581 73.2065 6.43898C73.6016 7.75194 72.481 8.73685 71.6605 9.47168Z" fill="white"></path><path d="M71.8809 12.738L71.2022 16.7865L70.0185 23.5543C69.9078 24.4288 69.466 25.5836 70.0972 26.3662C70.4284 26.9606 71.1071 27.2261 71.7858 27.2894C71.7858 27.6807 71.7071 28.086 71.6121 28.4626L62.6499 28.431C62.6819 28.025 62.7606 27.6491 62.8393 27.2578C63.313 27.071 63.8967 27.0393 64.3541 26.7429C64.7328 26.4766 65.1116 26.1169 65.3009 25.6947C65.6796 23.7889 65.9656 21.948 66.2968 20.0261C66.2968 19.4001 65.8526 18.8189 65.3165 18.568C65.0952 18.5055 64.8427 18.568 64.6214 18.5055C64.2746 18.0207 64.0222 17.536 63.7697 16.9733L71.8801 12.1128L72.0064 12.0503C71.9604 12.2849 71.9581 12.3475 71.8809 12.738Z" fill="white"></path><path d="M59.8417 24.4919C59.668 25.3672 59.9048 26.2734 60.6459 26.7581C60.8197 26.8839 61.0402 26.9619 61.2459 27.0244C61.2304 27.4929 61.1353 27.9777 61.0254 28.4308L52.6305 28.352L52.583 28.3212C52.615 27.8673 52.6937 27.4458 52.7568 26.992L52.883 26.914C53.7036 26.772 54.5397 26.4918 54.9971 25.7724L55.1709 25.2568L56.1177 19.9116L57.2383 13.4402C57.317 12.7525 57.6957 11.9713 57.2858 11.3152C57.0489 10.9555 56.7021 10.5958 56.2603 10.5333C55.9922 10.4862 55.7398 10.565 55.4717 10.5488C55.2036 10.1273 54.9512 9.67422 54.7143 9.25201L54.8561 9.1424L60.9623 5.28226L63.3608 3.78174L62.9985 6.173L59.8417 24.4919Z" fill="white"></path><path d="M41.6805 25.133C40.528 26.3672 39.2188 27.6176 37.5146 28.0553C36.1571 28.4304 34.5005 28.6805 33.1274 28.1332C31.5502 27.6022 30.0821 26.3826 29.4829 24.852C28.7254 23.1956 28.4885 21.1007 28.8517 19.178C29.1197 17.6929 29.7509 16.2865 30.7297 15.1449C32.0552 13.6915 33.7274 12.3785 35.6522 11.7687C38.177 10.9405 41.1903 11.4407 42.974 13.3472C44.7577 15.5355 45.057 19.3485 43.779 21.9436C43.2109 23.1006 42.5002 24.1635 41.6805 25.133ZM39.6131 14.9265C39.2819 14.2704 38.6507 13.5826 37.8458 13.4892C37.0252 13.3009 36.3317 13.7393 35.7948 14.2241C34.2807 16.1622 33.7913 18.5998 33.4438 21.0698C33.3487 22.3673 33.0651 23.9296 33.602 25.1175C34.0906 25.8207 34.7381 26.6482 35.7636 26.5239C38.131 26.3216 38.6204 23.695 39.1721 21.8664C39.5656 19.6619 40.4181 17.2236 39.6131 14.9265Z" fill="white"></path><path d="M22.129 3.1938C22.7711 3.25941 23.4093 3.3366 24.039 3.42228C25.1907 3.67236 26.4219 3.78197 27.4155 4.40719C29.1509 5.53258 30.587 7.31484 30.76 9.45602C31.06 12.7226 29.1984 15.5986 26.3892 16.927C25.7113 17.2867 24.9694 17.5059 24.2112 17.7081C24.2431 18.6305 24.5268 19.4587 24.685 20.334C25.5055 23.5064 27.1942 26.4457 29.5132 28.7745C31.9593 31.3224 35.0038 33.5416 38.6967 34.1197C41.1747 34.3065 44.0618 34.3235 45.4185 32.1499C45.8284 31.4166 45.8603 30.3221 45.339 29.6336C44.7242 28.6803 43.6348 28.3214 42.5142 28.2589C42.5618 27.8367 42.5937 27.3519 42.72 26.9613L42.7675 26.9143C43.62 26.8664 44.4561 26.5229 44.8504 25.7727C45.0554 25.2879 45.1021 24.7569 45.1972 24.225L46.1284 19.052L47.5014 11.6273C47.549 11.1271 47.249 10.6269 46.8071 10.4394C46.4752 10.2673 46.0177 10.2047 45.639 10.3143C45.339 9.93921 45.0709 9.5332 44.8652 9.07934C45.0078 8.84469 45.2915 8.79838 45.4972 8.64169L53.1502 3.81207L53.1027 4.43729L49.5524 24.584C49.5205 25.3497 49.6942 26.1308 50.3418 26.5685C50.5623 26.7414 50.846 26.8818 51.1468 26.9289L51.1779 26.976L50.973 28.3044L46.2554 28.3353C46.2079 28.3831 46.239 28.4457 46.271 28.492C46.6178 28.8038 46.8391 29.1481 47.1547 29.4761C48.117 29.7424 49.1589 30.3205 49.4114 31.3672C49.7114 32.5397 49.2851 33.6959 48.5277 34.4941C45.7824 37.2597 41.2542 37.3214 37.4826 36.697C34.3266 36.0571 31.2338 35.0406 28.6779 33.134C25.1899 30.7103 22.4446 27.3195 20.5043 23.5682C19.8887 22.2398 19.4157 20.8496 18.9263 19.458L18.0271 18.4885C17.3327 18.3951 16.6228 18.348 15.913 18.3326C15.8498 18.348 15.7703 18.4113 15.7703 18.4885C15.408 20.9577 14.903 23.3652 14.5087 25.819C14.6038 26.9135 15.4392 27.7571 16.4491 28.1168C16.5753 28.1786 16.7491 28.1477 16.8909 28.1786C16.859 28.7575 16.7327 29.3356 16.6384 29.8991H15.8023H4.34653L4.31459 29.8196C4.42524 29.2253 4.45641 28.6008 4.64577 28.069C6.06556 28.0065 7.62796 27.8969 8.46409 26.6456C8.70099 26.2242 8.84281 25.7557 8.95346 25.2709L10.6421 15.9868L12.5824 5.70239C12.3915 5.52641 12.2115 5.07717 11.8336 5.18678C10.0031 5.20222 8.41734 5.79656 6.99755 6.74983C6.74507 7.01535 7.21885 7.06243 7.29678 7.24923C7.78615 7.71853 8.16486 8.35918 8.03862 9.10944C7.8968 9.84427 7.3599 10.5467 6.68117 10.8601C5.78191 11.2661 4.37693 11.2661 3.65144 10.5637C2.81531 9.71922 2.67348 8.23414 3.14649 7.17204C4.03016 5.21766 6.2705 4.56156 8.21162 3.99887C10.579 3.46705 13.0087 3.06104 15.549 2.96764C17.7504 2.8727 19.9705 2.9715 22.129 3.1938ZM22.3153 5.76414C21.0973 5.2987 19.6721 5.20453 18.2795 5.20453L18.211 5.20839L17.1917 10.8469L16.2924 15.9421L16.273 16.0733C16.5254 16.3133 16.5925 16.4893 16.813 16.5827C19.2746 16.5827 21.7043 15.9737 23.4086 14.3003C24.2766 13.4566 24.8291 12.5651 25.1759 11.4868C25.6645 10.1584 25.4128 8.51664 24.5447 7.45455C23.9681 6.62941 23.195 6.09991 22.3153 5.76414Z" fill="white"></path><path d="M38.746 21.3661C38.4927 22.3973 38.146 23.3977 37.7992 24.3818C37.4205 25.1792 36.7262 25.8515 35.8113 25.9765C35.0375 26.0383 34.2809 25.8036 33.8866 25.1792C33.1923 23.9604 33.6022 22.3194 33.6653 20.9277C33.917 18.849 34.4383 16.88 35.4007 15.0661C35.8737 14.3629 36.4581 13.6443 37.4361 13.6597C38.1623 13.6127 38.714 13.9886 39.0452 14.5505C39.8027 16.0201 39.3608 17.9892 39.1403 19.5522L38.746 21.3661ZM38.3829 20.1782C38.6509 18.4585 39.219 16.4578 38.5247 14.7388C38.3034 14.3791 37.8935 14.1916 37.4517 14.1761C36.695 14.1916 36.2056 14.8013 35.89 15.3795C35.0375 17.0205 34.6908 18.8653 34.3752 20.7255L34.3471 20.9416C34.256 21.5197 34.217 21.6178 34.1695 22.3811C34.1165 23.2395 34.0113 24.195 34.5006 24.882C34.6744 25.1475 34.9744 25.2571 35.2737 25.3042C35.9687 25.4138 36.5992 25.0379 36.9467 24.5385C37.4672 23.6316 37.7828 22.6474 38.0509 21.6463L38.3829 20.1782Z" fill="white"></path><path d="M24.848 9.67438C24.8815 11.7322 23.6215 13.5052 22.0357 14.5974C21.5464 14.9254 21.0258 15.2072 20.4577 15.4102C19.2429 15.8162 17.8815 15.9358 16.5093 15.9513L16.5763 15.3631L17.9961 7.56408L18.406 5.45377C19.6528 5.4229 20.8676 5.54794 21.9882 5.85978C23.3456 6.282 24.3867 7.42282 24.7491 8.76743C24.8106 9.07541 24.8426 9.37798 24.848 9.67438ZM21.0367 14.5418C21.0695 14.5248 21.103 14.5071 21.1357 14.4893C21.7505 14.1451 22.2874 13.7545 22.7924 13.2235C23.9916 11.9885 24.7335 10.1753 24.0548 8.44093C23.376 6.53363 21.2144 6.12685 19.3208 6.01801C19.1634 6.00258 18.9421 5.98637 18.8159 6.08054L18.579 7.31553C18.3265 8.5351 18.1535 9.75388 17.9322 10.9727L17.2215 14.8799L17.1903 15.2859L17.8052 15.3021C18.9663 15.2411 20.0666 15.0489 21.0367 14.5418Z" fill="white"></path><path d="M101.94 20.9592C101.577 21.5536 101.009 22.1008 100.252 22.0692C99.6994 22.0375 99.21 21.7404 98.8469 21.366C98.0739 20.2406 98.4689 18.6459 98.6419 17.3646C98.9419 16.1451 99.2887 14.8321 100.331 14.0201C100.74 13.8009 101.229 13.6604 101.735 13.77C102.303 13.9259 102.855 14.3798 102.965 15.005C103.233 16.1458 103.028 17.3963 102.808 18.5062C102.555 19.3337 102.398 20.209 101.94 20.9592ZM102.335 17.6464C102.414 16.7394 102.666 15.6611 102.223 14.8321C101.94 14.4261 101.435 14.2385 100.962 14.3636C100.063 14.8012 99.8256 15.7074 99.51 16.5356C99.21 17.8331 98.8313 19.2395 99.1157 20.6466C99.2895 20.9901 99.5568 21.2873 99.9363 21.3807C100.489 21.5374 100.993 21.2711 101.278 20.8805C101.83 19.8809 102.113 18.771 102.335 17.6464Z" fill="white"></path><path d="M101.467 33.4319C99.921 34.589 98.0111 35.2451 96.0076 35.4643C94.619 35.5893 93.2935 35.3701 92.2205 34.6978C91.6205 34.2601 91.2737 33.5261 91.3212 32.7133C91.463 31.6034 92.0935 30.5876 92.8673 29.8535C94.2715 30.6192 95.8814 30.9635 97.6324 30.9002C98.8168 30.8685 99.9366 30.5567 101.152 30.6655C101.578 30.7435 102.02 30.9627 102.24 31.3687C102.366 31.6342 102.398 31.9947 102.335 32.3065C102.129 32.728 101.83 33.0877 101.467 33.4319ZM101.703 31.8064C101.672 31.6497 101.546 31.5871 101.451 31.4783C100.647 31.009 99.6522 31.4621 98.7685 31.4467C97.3487 31.4937 95.865 31.5254 94.5871 31.1649C94.0034 31.0244 93.4829 30.7906 92.9312 30.6022C92.2524 31.3679 91.6368 32.4787 92.1098 33.5562C92.5205 34.3844 93.5304 34.697 94.4452 34.8375C96.67 35.0251 98.6267 34.3999 100.394 33.4312C100.883 32.9943 101.846 32.6662 101.703 31.8064Z" fill="white"></path><path d="M149.341 24.5385C149.04 25.3197 148.567 26.1788 147.699 26.5084C147.052 26.6481 146.248 26.5547 145.774 26.0545C144.875 25.1475 145.001 23.6941 145.048 22.3974C145.254 20.1466 145.695 17.99 146.515 15.9893C146.942 15.1456 147.541 14.2386 148.567 14.0665C149.229 14.004 149.861 14.2232 150.239 14.755C150.919 15.9893 150.666 17.6773 150.556 19.0999C150.334 20.991 149.956 22.8196 149.341 24.5385ZM149.119 14.6763C148.473 14.4725 147.905 14.8955 147.51 15.3486C146.548 16.958 146.2 18.8653 145.886 20.7563C145.791 22.1627 145.396 23.7574 145.917 25.085C146.122 25.5072 146.532 25.8368 146.99 25.9302C147.479 25.9773 147.858 25.7427 148.173 25.383C148.884 24.3355 149.262 23.0851 149.499 21.8038C149.751 20.4592 149.956 19.0991 150.035 17.6928C150.114 16.5983 150.272 15.1294 149.119 14.6763Z" fill="white"></path><path d="M179.51 19.4895L179.399 19.5211C179.288 17.552 179.51 15.4417 181.151 14.3634C181.671 13.942 182.539 14.0037 183.123 14.2693C184.085 14.8158 184.165 16.0353 184.244 17.0982L184.212 17.3174L179.51 19.4895ZM183.518 17.0357C183.534 16.27 183.566 15.4888 183.045 14.957C182.604 14.6135 181.893 14.6444 181.42 14.879C180.205 15.661 180.001 17.1769 180.016 18.6141L180.078 18.6304L183.518 17.0357Z" fill="white"></path><path d="M70.0506 24.5067C69.94 25.0231 69.8769 25.6321 70.24 26.0543C70.6818 26.5699 71.3442 26.8054 72.0704 26.82L72.1024 26.8988L71.7868 28.6802L62.0508 28.6494L62.0033 28.5868L62.3189 26.7112C63.2813 26.695 64.3075 26.3994 64.7018 25.4916L64.86 24.9922L65.7437 19.8654C65.7437 19.5212 65.6806 19.1623 65.4125 18.943C65.0813 18.6312 64.5289 18.7555 64.1501 18.896C63.7402 18.2237 63.4083 17.5205 63.0296 16.8482L63.0607 16.7231L71.613 11.55L72.3237 11.1278L72.3899 11.1595L72.3237 11.6905L70.0506 24.5067ZM63.187 6.15772L61.941 13.4257C61.7041 14.8166 61.4672 16.2237 61.1983 17.6301L60.3147 22.8819C60.236 23.7101 59.9523 24.5067 60.031 25.3828C60.1261 25.9771 60.6466 26.3986 61.2147 26.5545C61.3246 26.6016 61.5459 26.5707 61.5459 26.7428L61.2459 28.6177L61.009 28.6648L52.0149 28.5868L51.9673 28.5089L52.2829 26.4765C53.1666 26.3662 54.2233 26.1786 54.5552 25.2577L54.7446 24.5067L56.8906 12.2378C56.8906 11.753 56.9701 11.1595 56.4963 10.9086C56.1013 10.6431 55.5659 10.7527 55.1864 10.9403L55.0446 10.9248L53.9879 9.12712L54.0199 9.00208L63.6452 2.92203L63.7239 2.95367C63.66 4.07907 63.3288 5.07942 63.187 6.15772ZM121.318 2.51602C119.834 2.54767 118.523 3.0162 117.34 3.75102C115.084 5.07942 113.947 7.61116 113.758 10.2371L113.695 10.3312C112.409 10.315 111.225 10.579 110.19 11.1078C109.193 11.618 108.332 12.3736 107.651 13.3632H107.603C105.537 10.8152 101.955 10.0186 98.6725 10.8469C95.5329 11.5508 92.818 14.3164 92.3606 17.5367C91.9974 19.5212 92.7237 21.413 93.9541 22.7878C93.9861 22.8356 94.0336 22.929 93.9705 22.9915C93.0081 23.3504 92.1237 24.164 91.6663 25.0702C91.4457 25.2732 91.572 25.9146 91.1145 25.7108C90.7358 25.5233 90.6891 25.1165 90.6891 24.7414L92.0621 15.5514C92.1416 14.7386 92.1416 13.8479 91.8408 13.1447C91.3047 11.8634 90.0735 10.9727 88.6381 10.8785C86.3183 10.816 84.3616 12.1444 82.8942 13.6603C82.8623 13.7074 82.768 13.7699 82.7041 13.7074C82.9098 12.4099 83.1303 11.1132 83.3517 9.81563H83.2729L77.766 13.1764L72.7959 16.2554L72.1647 16.6143L72.1328 16.5827L72.8115 12.5187C72.9697 11.6126 73.1583 10.6747 73.2533 9.78322C72.7803 9.98699 72.3229 10.315 71.8647 10.5489C71.8335 10.5806 71.7385 10.596 71.7229 10.5489C72.6222 9.86118 73.5058 9.0646 73.9796 8.06425C74.4051 7.29855 74.3264 6.12608 73.8534 5.4229C73.2222 4.46964 72.1328 4.04742 70.9343 4.17246C68.7727 4.48507 66.6741 5.75095 66.0905 7.92377C65.8536 8.6586 66.0741 9.45517 66.4536 10.0495C67.211 11.0653 68.5202 11.347 69.8137 11.1911C70.3343 11.1278 70.7769 10.8785 71.2974 10.8469L71.2818 10.8785C70.3351 11.5346 69.3251 12.1135 68.3464 12.7387L67.3232 13.3778L64.5912 15.0829L62.114 16.5834L62.0664 16.5363C62.0345 16.5209 62.0345 16.4576 62.0664 16.4422L64.465 2.20341L64.5281 1.67236L64.433 1.71945L53.3723 8.75276C53.2928 8.79985 53.1985 8.84693 53.1198 8.79985C53.483 6.45489 53.9404 4.12615 54.3035 1.78197L54.0191 1.92168L47.2022 6.15772L43.9356 8.23638L43.2257 8.75199C43.7774 9.67438 44.3938 10.6585 45.0086 11.5655C45.3718 11.4242 45.7029 10.9395 46.1604 11.1741C46.3341 11.2529 46.3653 11.4404 46.3341 11.6118L45.4193 16.7378C45.3873 16.7378 45.3562 16.7378 45.3398 16.7069C44.8824 13.8626 42.8782 11.3308 40.023 10.5481C36.694 9.82953 33.5061 11.0329 31.1863 13.1115H31.0764C31.1871 12.643 31.4076 12.2054 31.5026 11.7052C32.0076 9.78244 31.5026 7.7501 30.4616 6.23491C28.6942 3.53104 25.5227 2.35856 22.3511 2.0143C18.2959 1.54578 13.9251 1.67082 9.94858 2.40487C6.95002 3.0162 3.46287 3.61054 1.94801 6.62702C1.3324 7.78329 1.41188 9.47138 2.16932 10.5497C3.11533 11.8634 4.80474 12.3319 6.47701 12.0502C7.62953 11.6442 8.70177 10.8777 8.96984 9.61186C9.20673 8.62695 8.85918 7.65825 8.24358 6.98594C8.89035 6.5645 9.61661 6.31441 10.374 6.14229C10.6896 6.11064 10.9897 5.9856 11.2889 6.06355L11.2258 6.6579L9.42648 16.6135L7.97629 24.8355L7.75498 25.663C6.98197 27.0238 5.15151 26.7729 3.69976 26.7891C3.44729 28.0241 3.21117 29.2746 3.05299 30.5397L16.5286 30.5713L17.3647 30.5397C17.6172 29.3981 17.7746 28.2256 17.9803 27.0701C17.3647 26.9767 16.7179 26.9914 16.1499 26.7575C15.5342 26.4295 15.3761 25.6939 15.4392 25.0069L16.4335 19.2865L16.5597 19.2078L17.5533 19.2711C18.6107 22.7098 20.283 25.883 22.4922 28.742C25.0014 31.7268 28.109 34.2123 31.6445 35.7753C34.3664 36.9007 37.3634 37.7536 40.482 37.8462C41.5215 37.8771 42.575 37.8231 43.6364 37.6672C46.1136 37.1986 48.9696 36.2292 49.9795 33.7275C50.5 32.6338 50.3893 31.134 49.7745 30.1483C49.5532 29.7585 49.2228 29.5231 48.8909 29.2422C48.9072 29.226 48.9228 29.2105 48.9384 29.226L62.7607 29.3047L89.1742 29.3525C89.2537 29.368 89.3955 29.3525 89.3955 29.4621C87.9438 30.3212 86.5707 31.3833 86.0502 33.0251C85.6715 34.2285 86.2551 35.4473 87.0757 36.213C88.5438 37.4171 90.3579 38.0894 92.2203 38.4962C96.7174 39.292 101.309 38.2762 104.607 35.5885C106.595 33.8842 108.567 31.963 108.994 29.2422L109.041 29.1943C109.514 30.3822 109.925 31.5863 110.335 32.7889L110.398 32.8831C111.392 32.6021 112.323 32.1637 113.27 31.8202C113.223 31.6018 113.318 31.3826 113.443 31.1942C113.807 30.914 114.28 31.1634 114.675 31.2259C116.852 32.0703 119.013 33.0398 121.586 32.8514C124.869 32.6785 127.914 30.1939 128.923 27.1936C128.971 27.0832 129.002 26.8964 129.112 26.8818C129.396 28.2874 130.422 29.4753 131.763 30.0071C135.313 31.0854 138.452 29.0855 141.072 27.2716L141.184 27.2554C142.508 28.444 143.897 29.4135 145.632 29.757C147.968 30.2402 150.208 29.5532 151.866 28.1461C154.39 26.1454 155.558 23.098 156.11 20.0345L156.267 19.8469C156.614 19.6439 156.914 19.1908 157.373 19.3938C157.498 19.488 157.562 19.6439 157.578 19.8006L156.741 25.0053C156.694 25.2083 156.647 25.4276 156.553 25.6306C156.017 26.3345 155.007 26.2249 154.122 26.2712C153.901 27.3341 153.744 28.4132 153.554 29.4753H155.054L173.926 29.5069C174.099 28.444 174.335 27.4128 174.477 26.35C173.957 26.2867 173.373 26.3337 172.947 26.0366C172.521 25.8019 172.552 25.2709 172.536 24.8016C172.884 22.848 173.262 20.9098 173.562 18.9562C173.814 17.2681 174.415 15.5954 174.067 13.7977C173.751 12.4539 172.773 11.0313 171.321 10.7975C168.828 10.4694 166.841 11.7353 165.072 13.1733L165.041 13.1416C165.231 12.0479 165.372 10.9225 165.545 9.84419L156.205 15.783C156.157 15.8301 156.063 15.8301 156.016 15.783C155.351 13.7823 153.869 11.9545 151.834 11.2189C148.11 9.96847 144.371 11.75 142.035 14.3604C141.972 14.3921 141.909 14.5009 141.846 14.4384L142.699 12.0626C140.962 12.4531 139.007 12.2964 137.112 12.3281L137.082 12.2339L137.459 10.1861C137.634 9.26375 137.796 8.28887 137.915 7.33174L136.055 8.48261L130.406 12.0934C130.28 12.156 130.185 12.281 130.028 12.2185L130.091 11.7345L131.354 4.29442C131.416 3.70008 131.574 3.12194 131.59 2.54381C130.517 2.51216 129.333 2.51216 128.229 2.54381C128.15 2.88807 127.961 3.24776 127.614 3.43455C127.093 3.8722 126.367 3.49707 125.798 3.38747C125.353 3.24004 124.908 3.09107 124.455 2.95831C123.47 2.67348 122.453 2.46276 121.318 2.51602ZM173.452 29.0708L164.425 29.0546L164.363 28.9612L164.71 26.7722C165.467 26.7259 166.192 26.5074 166.635 25.8976C166.887 25.4291 166.935 24.8818 167.044 24.35L167.992 18.2707C168.023 17.661 167.723 17.0666 167.219 16.7702C166.46 16.348 165.436 16.5672 164.82 17.0983C164.063 17.6772 163.653 18.5679 163.4 19.4895L162.375 25.4137C162.422 25.9764 162.817 26.3662 163.29 26.5699C163.48 26.6325 163.701 26.6325 163.874 26.7428C163.795 27.4931 163.633 28.3753 163.523 29.1264L163.385 29.1341H154.201C154.201 28.3522 154.422 27.6174 154.518 26.8517L154.549 26.7899C155.416 26.7737 156.331 26.7583 156.915 26.1323L157.168 25.6329C157.578 23.6322 157.846 21.5852 158.209 19.5845C158.161 19.2402 158.02 18.9276 157.705 18.7563C156.851 18.5533 156.111 19.1623 155.575 19.6941C155.322 21.2417 154.88 22.7268 154.233 24.1169C153.617 25.4608 152.702 26.5398 151.598 27.6174C150.193 28.7906 148.427 29.4158 146.422 29.2275C144.293 29.1025 142.524 27.8049 141.152 26.3824C140.237 26.9921 139.352 27.7108 138.375 28.2264C136.449 29.3217 133.973 30.1808 131.7 29.368C129.571 28.336 129.333 25.8042 129.524 23.5689L129.712 22.3501L130.96 15.7699L130.944 15.7228C130.123 15.6603 129.318 15.6757 128.483 15.6603C128.577 15.035 128.688 14.3782 128.844 13.753C131.591 12.0332 134.301 10.2556 137.125 8.5212L137.083 8.89247L136.434 12.7997L136.561 12.8468L141.562 12.863V13.0343L140.364 16.1604C140.158 16.1134 139.985 15.9883 139.78 15.9258L139.197 15.8316L135.978 15.8007L135.897 15.9104L134.62 23.5534C134.556 24.4434 134.904 25.2878 135.693 25.6622C136.734 26.0844 137.682 25.4283 138.534 25.0223L139.953 24.1462C139.132 20.5208 140.206 16.8003 142.794 14.3936C145.05 12.1266 148.568 10.5481 151.866 11.8773C153.933 12.7526 155.117 14.6591 155.685 16.7224L155.795 16.7062L162.234 12.6268C163.085 12.0958 163.874 11.5168 164.758 11.0645L164.806 11.1425C164.664 12.2833 164.379 13.3616 164.253 14.5032C164.631 14.3473 164.916 13.9722 165.295 13.7221C167.094 12.2216 169.507 10.4555 172.033 11.6897C173.407 12.6739 173.879 14.5032 173.563 16.2538L173.027 19.2078L172.049 24.3037C171.923 24.9289 171.765 25.7571 172.27 26.2419C172.664 26.6471 173.263 26.7266 173.833 26.7891L173.863 26.82C173.687 27.5548 173.577 28.3213 173.452 29.0708ZM129.491 11.6905L129.412 11.7376L126.997 11.6905C127.107 10.4084 127.344 8.82995 126.539 7.81494C125.751 6.64246 124.33 6.03268 122.816 6.23645C121.649 6.42402 120.575 7.14263 120.212 8.28346C119.944 9.158 120.022 10.268 120.449 11.0337C121.522 12.8784 123.131 14.2693 124.551 15.8795C126.634 18.3333 129.332 20.74 128.953 24.4133C128.653 27.4298 126.918 30.525 124 31.6188C122.153 32.4153 119.629 32.4632 117.736 31.7592C116.441 31.3378 115.242 30.7581 113.901 30.4625C113.459 30.4316 113.017 30.603 112.78 30.9619C112.67 31.1178 112.623 31.337 112.574 31.54C111.975 31.8063 111.376 32.0248 110.744 32.1807L110.129 30.5242L107.762 23.6615L107.794 23.5998C108.646 23.3651 109.466 23.0371 110.334 22.8341C111.376 25.8668 114.169 28.3985 117.593 28.5228C119.217 28.6324 120.7 28.0072 121.568 26.7884C122.437 25.5843 122.516 23.5998 121.743 22.3185C119.834 18.6297 115.62 16.3634 114.657 12.1583C114.232 10.877 114.374 9.26683 114.784 8.0164C115.541 5.62513 117.703 3.65608 120.212 3.2493C121.286 3.04553 122.564 3.04553 123.62 3.29639C124.788 3.53104 125.829 4.10917 127.06 4.20257C127.675 4.24965 128.212 3.87452 128.48 3.35891L128.653 3.0463L130.895 3.09338C130.911 3.26551 130.895 3.4523 130.863 3.62443L129.491 11.6905ZM112.039 15.4727C111.849 15.5206 111.644 15.4256 111.438 15.4418C110.24 15.3947 109.087 15.7853 108.457 16.7386C107.621 17.9118 107.494 19.4424 106.8 20.6937C105.569 22.8819 103.375 24.5854 100.662 24.6163C99.3045 24.7414 98.0896 24.4133 96.9215 24.0536C96.5748 24.553 96.4961 25.4137 96.8272 25.9609C97.3634 26.7266 98.4208 26.6008 99.3045 26.5699C101.466 26.4295 103.755 26.1014 105.916 26.492C106.972 26.7891 108.22 27.4761 108.346 28.6949C108.44 30.4308 107.384 31.7901 106.421 33.0243C104.228 35.4627 101.403 37.4155 98.0413 37.9165C94.4443 38.5579 90.5784 37.979 87.77 35.9636C87.0126 35.3847 86.4601 34.5882 86.6175 33.5562C87.0913 31.0869 89.3316 29.977 91.272 28.8362V28.8199L90.1997 28.7729L82.1524 28.7412L82.1212 28.7096L82.4524 26.8192C83.2566 26.678 84.1091 26.4449 84.5353 25.6622L84.7083 25.0995L85.8289 18.4884C85.8764 17.9103 85.7969 17.3321 85.4338 16.957C85.0395 16.551 84.4091 16.4568 83.8247 16.5819C82.3098 17.1291 81.2531 18.5201 81.0162 20.0831L80.2113 25.1003C80.2276 25.5063 80.3063 25.8976 80.5744 26.1778C80.8432 26.4449 81.2212 26.5692 81.5843 26.678L81.6318 26.7714L81.3007 28.7096H72.5754C72.6229 28.0535 72.7803 27.429 72.8754 26.7884C73.6173 26.6934 74.4214 26.4758 74.769 25.8035L74.9584 25.2253L75.9371 19.505C75.9527 19.1136 75.7953 18.7547 75.4641 18.5671C75.101 18.4267 74.6272 18.4267 74.3116 18.6451L74.1697 18.6297L73.0975 16.832L73.2082 16.7069L82.4228 11.08H82.4547L82.4391 11.4705C82.2334 12.7835 81.9654 14.0648 81.776 15.3778C82.1236 15.1748 82.3277 14.8621 82.6441 14.5812C84.3008 13.0652 85.9255 11.4551 88.3724 11.486C89.556 11.611 90.6447 12.1899 91.1972 13.252C91.4964 13.9243 91.5283 14.7371 91.434 15.4874L90.2348 23.2077L89.9823 25.0216C89.9823 25.4893 90.2823 25.8969 90.661 26.1624C90.9922 26.3507 91.4029 26.4603 91.8291 26.4441C92.1283 25.4901 92.5071 24.5523 93.3596 23.9432C93.8326 23.6144 94.4007 23.3651 94.9687 23.1775C94.6851 22.7553 94.2744 22.3015 93.9588 21.8492C92.5702 20.0823 92.7751 17.1284 93.817 15.2689C94.9212 13.1432 97.0672 11.6427 99.4658 11.283C101.895 10.924 104.451 11.2359 106.203 12.8144C106.707 13.2983 107.26 13.8772 107.748 14.362C108.539 12.9865 109.785 11.7669 111.331 11.3301C111.931 11.1579 112.562 11.0645 113.209 11.0483L113.241 11.0962L112.039 15.4727ZM72.2442 9.23673C71.1392 10.3621 69.3251 10.9256 67.7627 10.2996C67.1316 10.0495 66.8479 9.39342 66.8004 8.73655C66.7528 6.97051 68.2833 5.70463 69.7358 5.1265C70.6818 4.79845 72.1499 4.53216 72.9066 5.40746C73.4115 5.89143 73.5697 6.59538 73.4591 7.31476C73.3165 8.0959 72.7648 8.68947 72.2442 9.23673ZM43.2584 23.413C41.8067 25.663 39.7082 27.8042 36.994 28.4302C35.3054 28.884 33.3331 28.6795 31.9133 27.8042C29.4517 26.3986 27.9999 23.6314 28.0475 20.6782C28.0786 20.1935 28.1121 19.8299 28.1908 19.3436C28.208 19.2147 28.2984 18.5787 28.3607 18.4213C28.6147 17.4857 28.6054 17.593 28.7706 17.1886C29.6948 14.9324 31.5658 13.3161 33.5692 12.0819C35.021 11.2536 36.6621 10.8623 38.4294 10.8469C40.9222 10.9565 43.2421 12.5512 44.1101 14.8166C45.025 16.9732 44.9938 20.0059 43.9364 22.0846L43.2584 23.413ZM20.4326 2.46122C20.9999 2.50058 21.5664 2.54998 22.1298 2.61019C23.5029 2.79776 24.8751 3.0162 26.0908 3.56345C26.1383 3.57889 26.217 3.61054 26.2801 3.61054C28.363 4.40711 29.9878 6.14229 30.7608 8.20551C31.5182 10.9094 30.6346 13.7229 28.7098 15.5676C27.5581 16.693 26.0588 17.4433 24.4808 17.8493C24.4652 18.287 24.5915 18.74 24.6546 19.1785C25.3333 22.8202 27.1794 26.1647 29.7992 28.7281C33.1282 31.9638 37.7522 34.4014 42.8485 33.3068C43.9527 32.9649 45.0569 32.0888 45.184 30.8384C45.184 30.1661 45.0421 29.51 44.4896 29.1032C44.174 28.8693 43.8265 28.6972 43.4322 28.6185L43.4166 28.5876C42.9436 28.5251 42.4387 28.5251 41.9337 28.5097L41.9017 28.4309L42.2649 26.4302C42.6911 26.3368 43.2428 26.4302 43.6379 26.2264C43.9691 26.0543 44.2535 25.8204 44.3954 25.4608L44.8052 23.3667L46.9349 11.4566C46.9513 11.1911 46.9193 10.9403 46.7612 10.7373C46.5406 10.4717 46.1775 10.4555 45.8463 10.4872C45.625 10.5343 45.4053 10.5968 45.1995 10.6593L44.0953 8.8616L44.1109 8.79908L49.4441 5.46998L53.1682 3.11036L53.4838 2.96911L53.5157 3.00076L53.4214 3.70394L51.1172 16.6459L49.7285 24.8664C49.6966 25.4762 50.0278 25.9918 50.5327 26.2728C50.8008 26.4148 51.1172 26.4765 51.432 26.5228L51.4639 26.6162L51.1483 28.4927C49.6335 28.5552 48.276 28.4765 46.8095 28.5706C47.9612 29.1333 49.3498 29.9778 49.6498 31.3378C49.981 32.9317 49.208 34.3388 48.0719 35.2597C44.1109 38.3395 37.6891 37.3553 33.3027 35.8224C29.2787 34.2593 25.871 31.7268 23.0306 28.3514C20.6641 25.4754 19.1017 22.1463 17.918 18.6613C17.3024 18.6142 16.64 18.5054 16.0244 18.6142L15.8194 19.5521L14.7308 25.663C14.7308 26.5082 15.3628 27.101 16.0883 27.3835C16.4358 27.5085 16.8146 27.5556 17.2089 27.5865C17.1294 28.4464 16.9252 29.2429 16.799 30.0719L16.6899 30.109H3.93822C3.82211 30.0974 3.65457 30.136 3.68418 30.0256C3.826 29.1495 3.93666 28.2434 4.1416 27.4159C5.64088 27.5564 7.36068 27.4159 8.15006 26.0713L8.32384 25.4615L12.0003 5.53405C12.0159 5.5024 11.984 5.47153 11.9528 5.47153C10.2011 5.39357 8.65502 5.94006 7.32951 6.87788C7.59758 7.23758 7.92876 7.51854 8.10253 7.94075C8.45008 8.61228 8.32384 9.56632 7.86642 10.1599C7.20328 11.1132 5.87777 11.5516 4.5998 11.2853C3.55872 11.1132 2.57998 10.3004 2.3275 9.25371C1.98074 7.47145 2.91194 5.86132 4.31615 4.90883C5.56295 4.00265 7.0934 3.67383 8.57631 3.28326C12.323 2.43266 16.4101 2.18412 20.4326 2.46122ZM166.35 24.9606C166.224 25.3666 166.003 25.7888 165.592 25.9447C164.898 26.2257 163.856 26.2573 163.21 25.8035C162.972 25.5379 162.957 25.1628 163.004 24.8193L163.966 19.4116C164.204 18.5988 164.693 17.864 165.418 17.3484C165.781 17.1608 166.302 17.0512 166.697 17.2233C166.933 17.3175 167.169 17.4888 167.28 17.7235C167.422 18.0832 167.36 18.5679 167.328 18.9585L166.35 24.9606ZM139.069 22.8194C139.1 23.1791 139.211 23.5542 139.227 23.8977C138.264 24.4604 137.333 25.3975 136.038 25.1474C135.707 24.9914 135.375 24.6943 135.297 24.2883C135.203 23.8823 135.234 23.3975 135.265 22.9753L136.449 16.3326L136.528 16.3017C137.697 16.4576 139.243 15.8957 140.142 16.8019C139.289 18.5988 138.816 20.6466 139.069 22.8194ZM85.1985 18.6459C84.7566 20.8033 84.4878 23.0378 84.0304 25.2099C83.7623 25.7417 83.2262 26.0234 82.6262 26.0543C81.995 26.0705 81.2375 26.0852 80.9858 25.4453C80.8588 25.1474 80.8588 24.7568 80.9064 24.4288L81.7744 19.5212C82.09 18.5525 82.8786 17.5213 83.9041 17.255C84.2353 17.1616 84.6935 17.1299 84.9296 17.4271C85.2935 17.6926 85.246 18.2237 85.1985 18.6459ZM74.437 24.57C74.3895 25.054 74.2477 25.5534 73.8058 25.8367C73.1115 26.2419 72.0549 26.1948 71.2818 25.9609C70.9499 25.7734 70.7294 25.4453 70.7605 25.0385L70.7925 24.5075L72.086 17.0365H72.1336C72.7648 17.8809 73.2541 18.74 73.9165 19.5374C74.264 19.349 74.6272 19.0372 75.069 19.2248C75.1952 19.3027 75.242 19.4594 75.2584 19.5999L74.437 24.57ZM64.1494 25.179C63.7231 26.0234 62.6664 26.0543 61.782 25.9764C61.4033 25.8976 60.9459 25.7255 60.8196 25.3041C60.6614 24.7414 60.8516 24.1161 60.9295 23.538C61.277 21.3343 61.6713 19.146 62.0501 16.9578C62.1451 16.8953 62.1451 17.0365 62.1919 17.0674L63.7699 19.6933C64.101 19.5837 64.4322 19.2873 64.8265 19.4278C65.1265 19.5845 65.0478 20.0059 65.0159 20.2877L64.1494 25.179ZM54.0822 24.8193C53.956 25.5071 53.2297 25.7417 52.6149 25.8513C51.9517 25.9764 51.1164 25.9609 50.6738 25.4909C50.3745 25.1319 50.3745 24.5847 50.4525 24.1161L51.2255 19.63L53.0567 9.2676L53.1043 9.23596C53.656 10.0333 54.1617 10.9248 54.729 11.7523L54.8241 11.8464C55.1864 11.6743 55.5659 11.2521 56.0233 11.503C56.2283 11.6751 56.2127 11.9715 56.1652 12.2061L54.0822 24.8193ZM43.779 25.2577C43.5421 25.6483 43.0215 25.663 42.5797 25.7255C42.5322 25.7101 42.469 25.7101 42.4059 25.6939L42.4215 25.585C43.1789 24.7406 43.7314 23.7565 44.2683 22.787C44.1889 23.6314 44.0782 24.492 43.779 25.2577ZM129.365 21.4277L129.332 21.491C129.175 21.3189 129.159 21.0371 129.034 20.8334C127.234 16.9732 123.416 14.4569 121.127 10.9086C120.591 10.0804 120.481 8.70568 121.096 7.87669C121.664 7.08011 122.673 6.62702 123.764 6.78294C124.773 6.92342 125.562 7.5332 126.13 8.2989C126.84 9.47061 126.351 11.0337 126.161 12.2995C127.329 12.4091 128.576 12.3628 129.727 12.4246L129.712 12.5187L128.18 13.4882C127.976 14.379 127.849 15.3013 127.691 16.2075L127.802 16.2546L130.185 16.3017L130.233 16.3488L129.698 19.4733L129.365 21.4277ZM36.1571 32.2123C33.1118 31.0715 30.6346 28.8207 28.5353 26.3214C26.831 23.9448 25.6162 21.2247 25.2383 18.2399C26.3588 17.9118 27.3679 17.3337 28.2836 16.6614C28.2041 17.0983 27.9991 17.5367 27.8893 17.9898C27.4474 19.6941 27.2737 21.8661 27.8893 23.5388C28.7254 26.1639 30.919 28.759 33.8692 29.1025C36.7891 29.4629 39.5344 28.4772 41.428 26.5707C41.4599 26.9312 41.3648 27.3364 41.3017 27.6961C41.2067 28.1492 41.1599 28.6031 41.0804 29.0561C42.3428 29.1349 43.9683 28.9627 44.4725 30.2911C44.6938 31.1973 44.1257 32.0109 43.4158 32.4323C42.5072 32.8754 41.4677 33.0436 40.4071 33.0351C38.9266 33.0197 37.4086 32.6585 36.1571 32.2123ZM112.528 25.3511C111.66 24.4133 111.123 23.2725 110.682 22.1C109.451 22.4126 108.235 22.8032 107.037 23.2254L108.394 27.3356H108.362C106.832 25.4291 104.165 25.585 101.846 25.7571C100.709 25.8513 99.6208 25.9138 98.4847 26.0072C98.0117 25.9602 97.4117 25.883 97.2698 25.3504C97.2379 25.1466 97.2535 24.8973 97.3486 24.7252C98.5003 25.0532 99.7627 25.3033 101.073 25.1929C104.244 24.9436 106.895 22.6928 107.842 19.8014C108.394 18.395 108.726 16.3472 110.604 16.1288C111.187 15.9875 111.85 16.0817 112.433 16.1604C112.875 14.629 113.333 13.1123 113.744 11.5655H113.807C114.171 13.5345 115.233 15.4241 116.426 16.7857C117.921 18.4907 119.503 20.0677 120.765 21.8337C121.632 23.0378 122.012 24.8981 121.222 26.2573C120.876 26.8833 120.324 27.3349 119.661 27.6166C119.023 27.8597 118.381 27.9663 117.752 27.9624C115.744 27.9508 113.848 26.8138 112.528 25.3511Z" fill="white"></path><path d="M189.42 17.9736L183.66 20.6782L180.394 22.225C180.299 22.6473 180.615 22.9591 180.709 23.3196C181.182 24.2883 182.035 25.2577 183.25 25.2415C183.913 25.2577 184.512 25.0231 184.906 24.4913V24.3971C184.338 24.1161 183.927 23.5534 183.818 22.9591C183.613 21.7866 184.308 20.8503 185.144 20.3031C185.854 19.8029 186.911 19.6462 187.763 19.9434C189.024 20.4436 189.783 21.7249 189.798 23.0695C189.704 24.8664 188.725 26.3661 187.478 27.5394C185.254 29.4621 181.94 30.2425 178.989 29.2429C175.928 28.1793 173.876 25.0848 173.671 21.8337C173.545 19.224 174.492 16.9732 175.66 14.9254C177.506 12.1907 180.505 10.4555 183.99 10.5806C186.31 10.7372 188.409 12.2532 189.308 14.3319C189.766 15.3314 190.05 16.426 190.16 17.5822L189.42 17.9736ZM189.529 17.4109C189.247 15.2226 188.331 13.066 186.422 11.909C184.37 10.5335 181.246 11.0969 179.274 12.2532C176.876 13.5507 175.487 16.0045 174.698 18.4737C173.767 21.2247 174.43 24.4133 176.15 26.5391C177.743 28.5397 180.331 29.368 182.982 28.9936C185.759 28.5706 188.142 26.7729 188.915 24.0382C189.199 23.0224 189.041 21.819 188.331 21.0997C187.763 20.4744 186.737 20.3185 185.916 20.6149C185.144 21.0055 184.434 21.7249 184.497 22.6789C184.528 23.21 184.875 23.6793 185.332 23.9448C185.506 24.0698 185.806 24.0073 185.933 24.2103C185.349 25.2732 184.197 26.0242 182.903 25.8366C181.389 25.6321 180.362 24.3817 179.905 23.0378C179.825 22.7407 179.684 22.4288 179.684 22.1L184.781 19.6933L189.529 17.4109Z" fill="white"></path></svg> 