<?xml version="1.0" encoding="UTF-8"?> <svg xmlns="http://www.w3.org/2000/svg" width="86" height="73" viewBox="0 0 86 73" fill="none"><g clip-path="url(#clip0_382_55)"><path d="M44.966 20.8986C46.2788 21.839 48.0515 22.3108 50.2873 22.3108C52.1532 22.3108 53.7193 22.1062 54.9854 21.6938C56.2483 21.2814 57.2712 20.6974 58.0476 19.9352C58.824 19.1763 59.3804 18.2624 59.7136 17.1901C60.0435 16.1211 60.2101 14.9366 60.2101 13.6366C60.2101 12.683 60.0335 11.8417 59.6836 11.1092C59.3304 10.38 58.8373 9.77294 58.2009 9.29782C57.5644 8.82271 56.7981 8.45977 55.9018 8.21231C55.0054 7.96815 54.0125 7.84277 52.9229 7.84277C51.057 7.84277 49.4876 8.05394 48.2247 8.47297C46.9586 8.89529 45.9389 9.48589 45.1626 10.2415C44.3862 11.0003 43.8331 11.9176 43.5032 12.9866C43.17 14.0589 43.0034 15.2434 43.0034 16.5401C43.0034 18.4966 43.6598 19.9484 44.9693 20.892L44.966 20.8986ZM50.6205 15.0949C50.7304 14.5076 50.847 14.0259 50.967 13.6399C51.087 13.2538 51.2069 12.947 51.3269 12.7193C51.4468 12.4917 51.5801 12.33 51.7267 12.2409C51.8766 12.1485 52.0532 12.1023 52.2532 12.1023C52.4931 12.1023 52.6697 12.1683 52.7796 12.297C52.8929 12.4257 52.9462 12.6731 52.9462 13.0361C52.9462 13.5145 52.8529 14.1975 52.6663 15.0949C52.5397 15.6987 52.4131 16.2002 52.2932 16.6028C52.1732 17.0053 52.0432 17.3221 51.9066 17.5497C51.77 17.7807 51.6167 17.939 51.4501 18.0314C51.2869 18.1238 51.1103 18.1667 50.9237 18.1667C50.7038 18.1667 50.5405 18.1073 50.4405 17.9885C50.3372 17.8698 50.2873 17.6553 50.2873 17.3418C50.2873 16.9228 50.4006 16.1705 50.6205 15.0916V15.0949Z" fill="white"></path><path d="M22.2918 40.6882C23.1848 40.6882 24.2377 40.5563 25.4505 40.289C25.4172 40.0053 25.3906 39.7281 25.3706 39.4542C25.3539 39.1804 25.3473 38.9032 25.3473 38.6195C25.3473 37.9827 25.3939 37.303 25.4939 36.5771C25.5938 35.8546 25.7204 35.1848 25.8804 34.5744C26.0403 33.964 26.2203 33.4559 26.4135 33.05C26.6101 32.6442 26.8034 32.4396 27.0033 32.4396C27.2165 32.4396 27.3232 32.6178 27.3232 32.9709C27.3232 33.2711 27.2499 33.6241 27.1099 34.03C26.9666 34.4358 26.7967 34.7625 26.6034 35.0132C27.3332 35.3662 28.1095 35.5411 28.9325 35.5411C29.6989 35.5411 30.432 35.386 31.1283 35.0792C31.8247 34.769 32.4378 34.35 32.9743 33.8188C33.5108 33.2909 33.9339 32.6706 34.2471 31.9612C34.557 31.2552 34.7136 30.5029 34.7136 29.7077C34.7136 28.9126 34.4704 28.2032 33.9772 27.639C33.4874 27.0748 32.7577 26.791 31.7948 26.791C30.8851 26.791 29.9388 27.1869 28.9559 27.9722C27.9729 28.7608 27.0899 29.8694 26.3069 31.3013C26.5201 30.6481 26.6268 30.0377 26.6268 29.4702C26.6268 28.6387 26.3535 27.9887 25.8104 27.5202C25.264 27.0517 24.3776 26.8174 23.1448 26.8174C22.1818 26.8174 20.9956 26.9758 19.5828 27.2958V27.7446C19.5828 28.6288 19.5062 29.4603 19.3529 30.2389C19.1996 31.0176 19.0364 31.7732 18.8598 32.5056C18.6798 33.2381 18.5166 33.9574 18.3633 34.6668C18.2134 35.3728 18.1367 36.0888 18.1367 36.8147C18.1367 39.3949 19.5195 40.6849 22.2884 40.6849L22.2918 40.6882Z" fill="white"></path><path d="M24.0474 57.8059C24.9304 57.3176 25.7001 56.6049 26.3699 55.6645C27.0363 54.7275 27.3695 53.4671 27.3695 51.8801C27.3695 50.4283 26.943 49.2339 26.09 48.2936C25.2336 47.3566 24.1107 46.6142 22.708 46.0764C21.3052 45.5353 19.7191 45.1591 17.9465 44.9447C16.1705 44.7335 14.3545 44.6279 12.4852 44.6279C10.8592 44.6279 9.26316 44.6873 7.70377 44.8061C6.14437 44.9249 4.70826 45.0503 3.4021 45.1822C3.45541 45.5782 3.4954 45.9741 3.52539 46.37C3.54871 46.766 3.56537 47.1751 3.56537 47.5974C3.56537 49.2867 3.37878 51.0387 3.00559 52.8468C2.6324 54.6549 2.22256 56.4333 1.78273 58.1754C1.3429 59.9175 0.93639 61.5705 0.563201 63.1279C0.190012 64.6852 0.00341797 66.0479 0.00341797 67.2093C0.00341797 68.5026 0.206673 69.5255 0.623178 70.2777C1.03635 71.03 1.61613 71.6074 2.3625 72C3.10888 72.396 4.0052 72.6533 5.0448 72.7754C6.08439 72.8942 7.24394 72.9536 8.52678 72.9536C10.8725 72.9536 13.1483 72.8282 15.3475 72.5774C17.5466 72.3267 19.4959 71.8714 21.1919 71.2082C22.8845 70.5483 24.244 69.6311 25.2736 68.4532C26.2999 67.2786 26.813 65.7641 26.813 63.9164C26.813 63.2301 26.6664 62.6428 26.3732 62.1512C26.08 61.6629 25.7068 61.2439 25.2503 60.8842C24.7971 60.5279 24.2907 60.2376 23.7309 60.0132C23.1711 59.7888 22.6247 59.6107 22.0915 59.4787C21.5584 59.3467 21.0619 59.2543 20.6088 59.2015C20.1556 59.1487 19.8091 59.1092 19.5692 59.0828C19.969 59.0597 20.5954 58.9574 21.4484 58.7858C22.3014 58.6142 23.1678 58.2843 24.0474 57.796V57.8059ZM15.2675 64.4641C15.0109 65.058 14.6811 65.5793 14.2679 66.0281C13.8514 66.4768 13.3849 66.8397 12.8651 67.1202C12.3453 67.3973 11.8288 67.5491 11.3257 67.5755C11.459 66.4669 11.6322 65.3121 11.8455 64.1078C12.0587 62.9068 12.312 61.6992 12.6085 60.485C12.7385 60.4586 12.8584 60.4454 12.9684 60.4454H13.3283C14.2612 60.4454 14.8843 60.65 15.1875 61.0591C15.4941 61.4682 15.6507 61.95 15.6507 62.5076C15.6507 63.2202 15.5241 63.8735 15.2708 64.4674L15.2675 64.4641ZM17.0268 54.975C16.8269 55.5029 16.547 55.9846 16.1871 56.4201C15.824 56.8556 15.3908 57.2186 14.8843 57.5089C14.3778 57.7993 13.8047 57.9972 13.1617 58.1028C13.4815 56.8358 13.7847 55.6151 14.0646 54.4372C14.3445 53.2626 14.5644 52.1869 14.7244 51.207C14.8577 51.1806 15.0443 51.1674 15.2842 51.1674C15.7906 51.1674 16.2605 51.3258 16.687 51.6425C17.1135 51.9593 17.3267 52.5004 17.3267 53.2659C17.3267 53.8729 17.2267 54.4405 17.0268 54.9684V54.975Z" fill="white"></path><path d="M5.41803 39.88C6.25771 40.596 7.5672 40.9523 9.3565 40.9523C10.606 40.9523 11.7356 40.794 12.7452 40.4739C13.7548 40.1572 14.6145 39.7316 15.3275 39.2003C16.0406 38.6691 16.5904 38.0554 16.9736 37.356C17.3567 36.6598 17.55 35.9306 17.55 35.1684C17.55 34.6042 17.3401 34.1456 16.9202 33.7893C16.4971 33.4362 15.9506 33.2581 15.2709 33.2581C14.8777 33.2581 14.4945 33.3208 14.1213 33.4428C13.9081 34.6273 13.5915 35.4687 13.1684 35.9603C12.7485 36.4585 12.3853 36.7027 12.0854 36.7027C11.7422 36.7027 11.5756 36.5014 11.5756 36.0956C11.5756 35.8283 11.619 35.4885 11.6956 35.0728C11.7756 34.657 11.8722 34.2017 11.9922 33.7068C12.1088 33.2119 12.2321 32.684 12.3653 32.1297C12.4986 31.5721 12.6286 31.0112 12.7519 30.4469C13.0551 30.536 13.3716 30.6053 13.7048 30.6581C14.0347 30.7109 14.3512 30.7373 14.6545 30.7373C15.2076 30.7373 15.6741 30.668 16.0472 30.5261C16.4204 30.3843 16.7203 30.2028 16.9436 29.9817C17.1668 29.7607 17.3267 29.5066 17.4234 29.2262C17.5233 28.9424 17.5733 28.662 17.5733 28.3782C17.5733 28.1307 17.5367 27.8899 17.4667 27.649C17.3967 27.4115 17.3134 27.1937 17.2235 26.999C16.6903 27.0716 16.0739 27.1145 15.3775 27.131C14.6811 27.1508 13.9581 27.1574 13.2083 27.1574C13.2083 26.0422 12.8651 25.1843 12.1754 24.5839C11.4857 23.9834 10.4394 23.6831 9.02996 23.6831C8.11699 23.6831 7.07072 23.8184 5.89451 24.0823C5.93117 24.3826 5.96115 24.6795 5.98781 24.9699C6.01113 25.2635 6.0278 25.5572 6.0278 25.8607C6.0278 26.9034 5.92783 27.9229 5.73124 28.9226C5.53465 29.9223 5.31807 30.8924 5.08816 31.8393C4.85492 32.7862 4.64167 33.6969 4.44841 34.5712C4.25182 35.4456 4.15186 36.2639 4.15186 37.0227C4.15186 38.2072 4.57169 39.1575 5.41137 39.8734L5.41803 39.88Z" fill="white"></path><path d="M27.9796 21.4892C28.5693 21.7631 29.2724 21.9709 30.0854 22.1062C30.8951 22.2448 31.7648 22.3108 32.6877 22.3108C35.8665 22.3108 38.2356 21.9083 39.7983 21.1032C41.3611 20.2981 42.1408 19.0179 42.1408 17.2626C42.1408 16.6028 41.9608 16.065 41.601 15.6426C41.2411 15.2236 40.7913 14.8706 40.2581 14.5868C39.7184 14.3031 39.1419 14.0688 38.5255 13.8873C37.9057 13.7059 37.326 13.5244 36.7928 13.3396C36.2564 13.1581 35.8099 12.9635 35.45 12.749C35.0868 12.5379 34.9102 12.2673 34.9102 11.9407C34.9102 11.6305 35.0102 11.4292 35.2134 11.3369C35.4167 11.2445 35.6033 11.2016 35.7699 11.2016C35.9898 11.2016 36.1697 11.2709 36.3097 11.4061C36.4463 11.5447 36.5163 11.713 36.5163 11.9143C36.5163 12.1155 36.443 12.3432 36.2964 12.6005C36.6296 12.8018 37.1127 12.9701 37.7491 13.1087C38.3889 13.2472 39.0586 13.3132 39.7583 13.3132C40.2015 13.3132 40.6347 13.2769 41.0612 13.2043C41.4877 13.1318 41.8675 13.0064 42.1974 12.8348C42.5306 12.6599 42.7972 12.429 43.0037 12.1353C43.207 11.845 43.307 11.4787 43.307 11.0399C43.287 10.0138 42.7005 9.22852 41.5476 8.67752C40.3914 8.12981 38.6155 7.85596 36.213 7.85596C34.9002 7.85596 33.694 7.93844 32.5945 8.10341C31.4949 8.26839 30.5486 8.51584 29.7556 8.84249C28.9592 9.17243 28.3461 9.59476 27.9129 10.1029C27.4798 10.6176 27.2599 11.2214 27.2599 11.9143C27.2599 12.7028 27.4398 13.3396 27.7996 13.8345C28.1628 14.3261 28.6193 14.7287 29.1724 15.0421C29.7256 15.3523 30.3153 15.6096 30.9451 15.8109C31.5748 16.0122 32.1646 16.2002 32.7211 16.3751C33.2775 16.5467 33.7307 16.7413 34.0939 16.9492C34.4537 17.1604 34.6337 17.4474 34.6337 17.8137C34.6337 18.49 34.3005 18.8299 33.634 18.8299C33.4308 18.8299 33.2642 18.7507 33.1342 18.5956C33.0076 18.4405 32.941 18.2459 32.941 18.0083C32.941 17.7708 33.0243 17.4969 33.1909 17.1868C32.7111 16.9294 32.1746 16.738 31.5848 16.6094C30.9917 16.4807 30.3986 16.418 29.8122 16.418C29.3324 16.418 28.8626 16.4675 28.4094 16.5698C27.9562 16.6687 27.5564 16.8304 27.2065 17.0515C26.8533 17.2692 26.5768 17.5497 26.3735 17.8862C26.1703 18.2261 26.0703 18.6418 26.0703 19.1334C26.0703 19.625 26.2402 20.1002 26.5801 20.4928C26.9233 20.8854 27.3898 21.2187 27.9829 21.4925L27.9796 21.4892Z" fill="white"></path><path d="M50.9572 32.6674C51.1604 31.7403 51.387 30.8164 51.6403 29.8959C51.8902 28.9786 52.1201 28.0944 52.3333 27.2431C51.5303 27.1375 50.7173 27.0485 49.8976 26.9792C49.2012 26.9099 48.4482 26.8472 47.6351 26.7911C46.8221 26.7383 46.0757 26.7119 45.3993 26.7119C43.2035 26.7119 41.3842 26.9825 39.9381 27.5236C38.492 28.0647 37.3291 28.784 36.4561 29.6847C35.5831 30.5855 34.9667 31.6314 34.6102 32.8159C34.2503 34.0004 34.0737 35.2476 34.0737 36.5541C34.0737 37.3526 34.1637 38.0125 34.3436 38.5437C34.5202 39.0749 34.7668 39.4972 35.08 39.814C35.3932 40.134 35.7531 40.3584 36.1629 40.4904C36.5728 40.6256 37.0193 40.6883 37.5024 40.6883C38.5753 40.6883 39.6016 40.3683 40.5845 39.7315C41.5675 39.0947 42.4838 38.1412 43.3401 36.8676C43.3235 36.9732 43.3101 37.082 43.3101 37.1876V37.4813C43.3101 38.4513 43.6134 39.23 44.2098 39.814C44.8062 40.398 45.7859 40.6883 47.142 40.6883C47.6085 40.6883 48.1083 40.652 48.6414 40.5827C49.1779 40.5135 49.7676 40.398 50.4074 40.2396C50.3008 39.5863 50.2475 38.8868 50.2475 38.1445C50.2475 37.28 50.3141 36.3826 50.4474 35.4521C50.5807 34.525 50.7506 33.5945 50.9572 32.6674ZM43.8066 32.3737C43.67 32.9149 43.5334 33.3834 43.3901 33.7793C43.2468 34.1752 43.0969 34.4887 42.9336 34.7064C42.7737 34.9308 42.5938 35.0397 42.4005 35.0397C42.094 35.0397 41.944 34.845 41.944 34.4557C41.944 34.1917 41.984 33.8387 42.064 33.3933C42.1439 32.9544 42.2639 32.5189 42.4238 32.0933C42.5871 31.671 42.787 31.3047 43.0269 30.9913C43.2702 30.6811 43.5501 30.5294 43.8733 30.5294C43.9965 30.5294 44.1165 30.5558 44.2198 30.6085C44.0765 31.2453 43.9366 31.8326 43.8033 32.3737H43.8066Z" fill="white"></path><path d="M84.7409 27.3754C84.3477 27.1477 83.8979 26.9762 83.3881 26.8706C82.8816 26.765 82.3385 26.7122 81.7687 26.7122C80.8391 26.7122 79.7695 26.8904 78.5566 27.2434C78.6833 27.5635 78.7432 27.8967 78.7432 28.2498C78.7432 28.6193 78.6799 28.9789 78.5566 29.3221C78.4334 29.6685 78.2634 29.9985 78.0502 30.3152C77.8369 30.6352 77.5904 30.9355 77.3138 31.2159C77.0372 31.4997 76.7573 31.7637 76.4675 32.0111C76.6307 31.4469 76.814 30.8761 77.0172 30.2987C77.2238 29.7246 77.4138 29.1406 77.5937 28.5368C77.7703 27.9363 77.9236 27.3292 78.0468 26.7056C78.1735 26.0886 78.2334 25.4419 78.2334 24.7689C78.2334 24.2409 78.1668 23.7592 78.0335 23.3237C77.9002 22.8915 77.6703 22.5153 77.3504 22.1953C77.0306 21.8785 76.6041 21.6311 76.0776 21.4529C75.5511 21.278 74.8881 21.189 74.0817 21.189C73.6186 21.189 73.1254 21.2154 72.599 21.2682C72.0725 21.3209 71.4861 21.4166 70.843 21.5585C70.9329 22.0534 70.9762 22.5483 70.9762 23.0465C70.9762 24.1222 70.8496 25.3199 70.6031 26.6363C70.3532 27.9528 70.0699 29.2528 69.7601 30.533C69.4468 31.8164 69.167 33.0141 68.9137 34.126C68.6638 35.2413 68.5405 36.1321 68.5405 36.8052C68.5405 39.3853 69.9233 40.6754 72.6889 40.6754C73.5819 40.6754 74.6348 40.5435 75.8477 40.2762C75.8144 39.9759 75.7844 39.6724 75.7677 39.359C75.7511 39.0488 75.7411 38.7387 75.7411 38.4186C75.7411 37.6202 75.791 36.8316 75.891 36.043C75.9876 35.2578 76.1076 34.4923 76.2509 33.7499C76.2342 33.872 76.2142 34.0238 76.1976 34.2019C76.1809 34.3438 76.1676 34.522 76.1576 34.7331C76.1476 34.9443 76.1442 35.1819 76.1442 35.4491C76.1442 36.0859 76.2076 36.7227 76.3308 37.3595C76.4575 37.9963 76.6807 38.5704 77.0039 39.0818C77.3271 39.5932 77.7536 40.0089 78.2867 40.329C78.8232 40.6457 79.5029 40.8041 80.3226 40.8041C81.5888 40.8041 82.5651 40.4511 83.2415 39.745C83.9212 39.0389 84.2578 38.1184 84.2578 36.9867C84.2578 36.2443 84.0978 35.4326 83.7746 34.5484C83.5614 34.6012 83.3448 34.6474 83.1182 34.6804C82.895 34.7166 82.6684 34.7331 82.4385 34.7331C81.8654 34.7331 81.3122 34.6342 80.7758 34.4428C80.2393 34.2481 79.7562 33.9479 79.3297 33.5388C80.256 33.5223 81.1257 33.4332 81.9387 33.2748C82.7517 33.1164 83.4581 32.8657 84.0578 32.5324C84.6543 32.1959 85.1308 31.7736 85.4773 31.2588C85.8272 30.7441 86.0004 30.1271 86.0004 29.4013C86.0004 28.9393 85.8871 28.5434 85.6639 28.2069C85.4406 27.8703 85.1341 27.5899 84.7409 27.3589V27.3754Z" fill="white"></path><path d="M53.7827 29.0347C52.9964 29.7672 52.4432 30.6514 52.1234 31.6875C51.8002 32.7235 51.6436 33.8684 51.6436 35.1222C51.6436 37.0325 52.2833 38.4381 53.5728 39.3389C54.8556 40.2396 56.7416 40.6916 59.2206 40.6916C60.3668 40.6916 61.4298 40.6025 62.4194 40.4277C63.4123 40.2528 64.272 39.9921 65.005 39.649C65.7348 39.3026 66.3145 38.8835 66.7344 38.3853C67.1509 37.8904 67.3608 37.3262 67.3608 36.6861C67.3608 36.2638 67.2342 35.9074 66.9876 35.627C66.7377 35.3432 66.4412 35.1684 66.1046 35.0958C65.7281 35.4158 65.3016 35.6963 64.8184 35.9437C64.4086 36.1549 63.9121 36.3463 63.3324 36.5145C62.7526 36.6828 62.1028 36.7686 61.3898 36.7686C60.6767 36.7686 60.1269 36.6102 59.6371 36.2902C59.144 35.9701 58.8974 35.4059 58.8974 34.591C58.8974 34.2577 58.9341 33.8717 59.004 33.4395C59.0773 33.0072 59.1806 32.5948 59.3272 32.2055C59.4672 31.8161 59.6471 31.4895 59.8637 31.2255C60.077 30.9616 60.3202 30.8263 60.5868 30.8263C60.8367 30.8263 61.0099 30.8956 61.1066 31.0375C61.2032 31.1793 61.2565 31.374 61.2565 31.6215C61.2565 31.9217 61.1932 32.2682 61.0666 32.6575C60.9433 33.0468 60.8 33.4098 60.6367 33.743C61.3864 34.1323 62.3327 34.327 63.4756 34.327C64.0987 34.327 64.7252 34.2544 65.3516 34.1125C65.9747 33.9707 66.5411 33.7562 67.0509 33.4626C67.5607 33.1722 67.9706 32.7994 68.2838 32.3473C68.5903 31.8953 68.7503 31.3542 68.7503 30.7174C68.7503 30.1532 68.607 29.6253 68.3204 29.1403C68.0339 28.6553 67.6007 28.2297 67.0209 27.8667C66.4412 27.5038 65.7214 27.2233 64.8651 27.0188C64.0088 26.8142 63.0158 26.7119 61.8929 26.7119C59.8904 26.7119 58.2377 26.9165 56.9248 27.3223C55.612 27.7281 54.5624 28.2989 53.7761 29.0314L53.7827 29.0347Z" fill="white"></path><path d="M84.1242 46.0962C83.5477 45.5947 82.7913 45.2186 81.8417 44.9645C80.8954 44.7138 79.7159 44.5884 78.2997 44.5884C76.8836 44.5884 75.4975 44.6676 74.138 44.8259C72.7785 44.9843 71.5524 45.1559 70.4561 45.3406C69.1733 45.5782 67.9604 45.829 66.8142 46.0929C66.7076 46.9376 66.361 47.8218 65.7746 48.7457C65.1882 49.6695 64.4818 50.6329 63.6521 51.6393C62.8257 52.6423 61.9461 53.6882 61.0131 54.7704C60.0801 55.8527 59.2138 56.9943 58.4108 58.1953C57.6111 59.3962 56.9514 60.6533 56.4316 61.9599C55.9118 63.2665 55.6519 64.6357 55.6519 66.0611C55.6519 68.4631 56.3782 70.2184 57.831 71.3303C59.2838 72.4389 61.213 72.9932 63.6121 72.9932C65.1049 72.9932 66.7176 72.7952 68.4536 72.3993C68.2403 71.8186 68.087 71.1983 67.9937 70.5384C67.9004 69.8785 67.8538 69.1758 67.8538 68.44C67.8538 67.7042 67.8938 66.975 67.9771 66.1799H70.656V66.9717C70.656 68.0804 70.8093 69.0207 71.1159 69.7862C71.4191 70.5516 71.8622 71.1752 72.4353 71.647C73.0085 72.1222 73.6882 72.4587 74.4779 72.66C75.2643 72.8579 76.1372 72.9569 77.1002 72.9569C77.8466 72.9569 78.6329 72.9041 79.4593 72.7985C80.2856 72.693 81.152 72.5478 82.0583 72.363C81.8983 71.4656 81.8184 70.5417 81.8184 69.5882C81.8184 67.8461 82.0183 66.0809 82.4181 64.2992C82.818 62.5175 83.2645 60.7886 83.7576 59.1092C84.2508 57.4298 84.7006 55.8526 85.0971 54.3712C85.497 52.8931 85.6969 51.5997 85.6969 50.4878C85.6969 49.5111 85.5769 48.6599 85.337 47.9307C85.0971 47.2048 84.6906 46.5911 84.1175 46.0896L84.1242 46.0962ZM73.7415 54.8727C73.5283 55.4402 73.2717 56.1067 72.9818 56.8722C72.6886 57.6376 72.3754 58.4889 72.0388 59.4259C71.7056 60.363 71.4191 61.3594 71.1792 62.4152C70.7027 62.3888 70.2529 62.3756 69.8397 62.3756H68.6202C68.91 61.135 69.2632 59.9473 69.6764 58.8089C70.0929 57.6739 70.5194 56.6775 70.9593 55.8197C71.3991 54.9618 71.8389 54.2755 72.2787 53.7575C72.7186 53.2428 73.1251 52.9854 73.4983 52.9854C73.8715 52.9854 74.0581 53.1702 74.0581 53.5397C74.0581 53.8565 73.9514 54.3019 73.7382 54.8694L73.7415 54.8727Z" fill="white"></path><path d="M55.2557 50.7914C54.6959 49.432 53.8996 48.2937 52.8733 47.3864C51.847 46.4724 50.6075 45.7894 49.1514 45.3242C47.6986 44.8623 46.0926 44.6313 44.3299 44.6313C42.0875 44.6313 39.9883 44.9811 38.0291 45.6806C36.0698 46.38 34.3605 47.4326 32.9077 48.8315C31.4549 50.2338 30.3154 51.9825 29.489 54.0809C28.6627 56.1794 28.2495 58.644 28.2495 61.4717C28.2495 63.4018 28.5227 65.0812 29.0692 66.5231C29.619 67.9617 30.3987 69.156 31.4116 70.1063C32.4246 71.0598 33.6541 71.7692 35.0935 72.2476C36.533 72.7227 38.1457 72.9603 39.935 72.9603C42.3607 72.9603 44.5699 72.5974 46.5557 71.8715C48.545 71.1456 50.2443 70.0502 51.6571 68.5819C53.0732 67.117 54.1628 65.3023 54.9392 63.1346C55.7122 60.9701 56.102 58.4329 56.102 55.5261C56.102 53.7312 55.8222 52.1541 55.259 50.7914H55.2557ZM44.11 55.1301C43.9901 56.1068 43.7968 57.3375 43.5303 58.8156C43.2337 60.2938 42.9671 61.5311 42.7306 62.5209C42.4873 63.5107 42.2541 64.3092 42.0308 64.9196C41.8043 65.5267 41.571 65.9622 41.3311 66.2261C41.0912 66.4901 40.838 66.6221 40.5714 66.6221C40.2782 66.6221 40.0583 66.4835 39.9117 66.2064C39.7684 65.9292 39.6951 65.4706 39.6951 64.8371C39.6951 64.2036 39.7584 63.4381 39.8917 62.4615C40.0249 61.4849 40.2249 60.2707 40.4914 58.8156C40.758 57.2847 41.0112 56.0177 41.2511 55.0147C41.491 54.0116 41.7176 53.2099 41.9309 52.616C42.1408 52.0221 42.364 51.6064 42.594 51.3688C42.8205 51.1312 43.0804 51.0092 43.3736 51.0092C43.6935 51.0092 43.9268 51.1345 44.0734 51.3853C44.2167 51.636 44.29 52.0914 44.29 52.7513C44.29 53.3584 44.23 54.1502 44.11 55.1269V55.1301Z" fill="white"></path><path d="M51.507 6.47642C51.7269 6.6249 52.0235 6.75027 52.3967 6.86245C52.7665 6.97134 53.2164 7.02743 53.7528 7.02743C54.4192 7.02743 55.139 6.93174 55.9153 6.74038C56.6917 6.54901 57.4081 6.25866 58.0645 5.87592C58.7176 5.49319 59.264 5.00817 59.7005 4.42087C60.1337 3.83357 60.3503 3.15719 60.3503 2.39172C60.3503 1.98919 60.267 1.64275 60.1004 1.3491C59.9338 1.05545 59.7072 0.807992 59.4206 0.606726C59.1341 0.405461 58.8042 0.253687 58.4243 0.154704C58.0478 0.0557206 57.6446 0.00292969 57.2181 0.00292969C56.7383 0.00292969 56.2485 0.0656189 55.7487 0.194297C55.2489 0.322975 54.7758 0.514342 54.3359 0.771698L54.3626 1.18413C54.3626 1.53057 54.3126 1.89351 54.2093 2.26964C54.106 2.64248 53.9294 3.03181 53.6695 3.43434C53.4096 3.83687 53.0531 4.2493 52.6033 4.66833C52.1501 5.09066 51.5703 5.50969 50.8706 5.93201C51.0339 6.13328 51.2505 6.31475 51.507 6.47972V6.47642Z" fill="white"></path></g><defs><clipPath id="clip0_382_55"><rect width="86" height="73" fill="white"></rect></clipPath></defs></svg> 