<?xml version="1.0" encoding="UTF-8"?>
<svg xmlns="http://www.w3.org/2000/svg" xmlns:xlink="http://www.w3.org/1999/xlink" width="500px" height="286px" viewBox="0 0 499 286" version="1.1">
<g id="surface1">
<path style=" stroke:none;fill-rule:nonzero;fill:rgb(100%,100%,100%);fill-opacity:1;" d="M 67.269531 93.089844 L 42.105469 93.089844 L 42.105469 17.234375 L 67.269531 17.234375 C 75.628906 17.234375 83.074219 22.140625 83.074219 32.503906 L 83.074219 42.640625 C 83.074219 47.648438 81.269531 53 74.726562 54.480469 C 81.046875 56.417969 83.074219 60.867188 83.074219 66.328125 L 83.074219 77.832031 C 83.074219 88.199219 75.628906 93.089844 67.269531 93.089844 M 66.828125 34.664062 C 66.828125 32.046875 65.699219 31.019531 63.78125 31.019531 L 59.492188 31.019531 L 59.492188 49.132812 L 63.78125 49.132812 C 65.699219 49.132812 66.828125 47.988281 66.828125 45.484375 Z M 66.828125 64.734375 C 66.828125 62.230469 65.699219 61.085938 63.78125 61.085938 L 59.492188 61.085938 L 59.492188 79.417969 L 63.78125 79.417969 C 65.699219 79.417969 66.828125 78.394531 66.828125 75.78125 Z M 66.828125 64.734375 "/>
<path style=" stroke:none;fill-rule:nonzero;fill:rgb(100%,100%,100%);fill-opacity:1;" d="M 499 176.671875 L 0 176.671875 L 0 198.296875 L 499 198.296875 Z M 499 176.671875 "/>
<path style=" stroke:none;fill-rule:nonzero;fill:rgb(100%,100%,100%);fill-opacity:1;" d="M 499 132.507812 L 0 132.507812 L 0 154.125 L 499 154.125 Z M 499 132.507812 "/>
<path style=" stroke:none;fill-rule:nonzero;fill:rgb(100%,100%,100%);fill-opacity:1;" d="M 499 220.84375 L 0 220.84375 L 0 242.464844 L 499 242.464844 Z M 499 220.84375 "/>
<path style=" stroke:none;fill-rule:nonzero;fill:rgb(100%,100%,100%);fill-opacity:1;" d="M 499 88.339844 L 128.296875 88.339844 L 128.296875 109.960938 L 499 109.960938 Z M 499 88.339844 "/>
<path style=" stroke:none;fill-rule:nonzero;fill:rgb(100%,100%,100%);fill-opacity:1;" d="M 498.429688 44.167969 L 128.296875 44.167969 L 128.296875 65.792969 L 498.429688 65.792969 Z M 498.429688 44.167969 "/>
<path style=" stroke:none;fill-rule:nonzero;fill:rgb(100%,100%,100%);fill-opacity:1;" d="M 498.429688 0 L 128.296875 0 L 128.296875 21.621094 L 498.429688 21.621094 Z M 498.429688 0 "/>
<path style=" stroke:none;fill-rule:nonzero;fill:rgb(100%,100%,100%);fill-opacity:1;" d="M 6.886719 285.558594 L 0.421875 285.558594 L 0.421875 266.066406 L 6.886719 266.066406 C 9.035156 266.066406 10.949219 267.324219 10.949219 269.988281 L 10.949219 272.589844 C 10.949219 273.878906 10.484375 275.253906 8.804688 275.632812 C 10.429688 276.132812 10.949219 277.277344 10.949219 278.679688 L 10.949219 281.636719 C 10.949219 284.300781 9.035156 285.558594 6.886719 285.558594 Z M 6.769531 270.542969 C 6.769531 269.871094 6.484375 269.605469 5.992188 269.605469 L 4.886719 269.605469 L 4.886719 274.261719 L 5.992188 274.261719 C 6.480469 274.261719 6.769531 273.96875 6.769531 273.324219 Z M 6.769531 278.269531 C 6.769531 277.625 6.484375 277.335938 5.992188 277.335938 L 4.886719 277.335938 L 4.886719 282.046875 L 5.992188 282.046875 C 6.480469 282.046875 6.769531 281.78125 6.769531 281.105469 Z M 6.769531 278.269531 "/>
<path style=" stroke:none;fill-rule:nonzero;fill:rgb(100%,100%,100%);fill-opacity:1;" d="M 26.820312 286 C 23.714844 286 21.335938 283.859375 21.335938 281.167969 L 21.335938 266.0625 L 25.832031 266.0625 L 25.832031 281.167969 C 25.832031 281.78125 26.296875 282.132812 26.820312 282.132812 C 27.398438 282.132812 27.863281 281.78125 27.863281 281.167969 L 27.863281 266.0625 L 32.15625 266.0625 L 32.15625 281.167969 C 32.15625 283.859375 29.980469 286 26.820312 286 Z M 26.820312 286 "/>
<path style=" stroke:none;fill-rule:nonzero;fill:rgb(100%,100%,100%);fill-opacity:1;" d="M 42.6875 285.558594 L 42.6875 266.066406 L 47.15625 266.066406 L 47.15625 281.664062 L 51.882812 281.664062 L 51.882812 285.558594 Z M 42.6875 285.558594 "/>
<path style=" stroke:none;fill-rule:nonzero;fill:rgb(100%,100%,100%);fill-opacity:1;" d="M 61.75 285.558594 L 61.75 266.066406 L 66.214844 266.066406 L 66.214844 281.664062 L 70.941406 281.664062 L 70.941406 285.558594 Z M 61.75 285.558594 "/>
<path style=" stroke:none;fill-rule:nonzero;fill:rgb(100%,100%,100%);fill-opacity:1;" d="M 89.363281 285.5625 L 88.871094 283.953125 C 88.234375 285.269531 86.929688 285.996094 85.566406 285.996094 C 82.519531 285.996094 80.636719 283.804688 80.636719 281.105469 L 80.636719 270.515625 C 80.636719 268.054688 82.925781 265.65625 86.261719 265.65625 C 89.597656 265.65625 91.742188 268.054688 91.742188 270.515625 L 91.742188 273.355469 L 87.480469 273.355469 L 87.480469 270.515625 C 87.480469 269.929688 87.105469 269.488281 86.351562 269.488281 C 85.597656 269.488281 85.191406 269.929688 85.191406 270.515625 L 85.191406 281.136719 C 85.191406 281.726562 85.648438 282.195312 86.378906 282.195312 C 87.160156 282.195312 87.566406 281.726562 87.566406 281.136719 L 87.566406 278.679688 L 86.351562 278.679688 L 86.351562 275.789062 L 91.859375 275.789062 L 91.859375 285.5625 Z M 89.363281 285.5625 "/>
<path style=" stroke:none;fill-rule:nonzero;fill:rgb(100%,100%,100%);fill-opacity:1;" d="M 107.699219 286 C 104.59375 286 102.21875 283.859375 102.21875 281.167969 L 102.21875 266.0625 L 106.710938 266.0625 L 106.710938 281.167969 C 106.710938 281.78125 107.175781 282.132812 107.699219 282.132812 C 108.277344 282.132812 108.742188 281.78125 108.742188 281.167969 L 108.742188 266.0625 L 113.035156 266.0625 L 113.035156 281.167969 C 113.035156 283.859375 110.863281 286 107.699219 286 Z M 107.699219 286 "/>
<path style=" stroke:none;fill-rule:nonzero;fill:rgb(100%,100%,100%);fill-opacity:1;" d="M 123.566406 285.558594 L 123.566406 266.066406 L 133.023438 266.066406 L 133.023438 269.839844 L 128.035156 269.839844 L 128.035156 273.878906 L 131.285156 273.878906 L 131.285156 277.246094 L 128.035156 277.246094 L 128.035156 281.578125 L 133.023438 281.578125 L 133.023438 285.558594 Z M 123.566406 285.558594 "/>
<path style=" stroke:none;fill-rule:nonzero;fill:rgb(100%,100%,100%);fill-opacity:1;" d="M 150.71875 285.558594 C 150.023438 285.558594 149.675781 283.859375 149.675781 282.546875 L 149.675781 278.972656 C 149.675781 278.472656 149.355469 277.859375 148.71875 277.859375 L 147.703125 277.859375 L 147.703125 285.558594 L 143.238281 285.558594 L 143.238281 266.066406 L 149.503906 266.066406 C 151.679688 266.066406 153.796875 267.527344 153.796875 270.164062 L 153.796875 273.558594 C 153.796875 274.523438 153.15625 275.578125 151.996094 276.136719 C 153.15625 276.691406 153.882812 277.714844 153.882812 278.738281 L 153.882812 282.3125 C 153.882812 283.539062 154.144531 284.535156 154.433594 285.472656 L 154.433594 285.558594 Z M 149.558594 270.542969 C 149.558594 269.871094 149.300781 269.605469 148.808594 269.605469 L 147.703125 269.605469 L 147.703125 274.644531 L 148.808594 274.644531 C 149.296875 274.644531 149.558594 274.378906 149.558594 273.703125 Z M 149.558594 270.542969 "/>
<path style=" stroke:none;fill-rule:nonzero;fill:rgb(100%,100%,100%);fill-opacity:1;" d="M 414.84375 286 C 411.449219 286 409.390625 284.121094 409.390625 280.933594 L 409.390625 279.527344 L 413.277344 279.527344 L 413.277344 280.933594 C 413.277344 281.78125 413.769531 282.394531 414.640625 282.394531 C 415.511719 282.394531 415.917969 281.867188 415.917969 280.933594 C 415.917969 279.558594 414.753906 278.53125 413.308594 277.1875 C 411.570312 275.722656 409.503906 273.789062 409.503906 271.125 C 409.503906 268.289062 411.335938 265.65625 414.988281 265.65625 C 417.945312 265.65625 419.980469 267.820312 419.980469 270.6875 L 419.980469 271.945312 L 416.089844 271.945312 L 416.089844 270.542969 C 416.089844 269.75 415.628906 269.28125 414.988281 269.28125 C 414.347656 269.28125 413.800781 269.722656 413.800781 270.570312 C 413.800781 272.121094 414.960938 272.910156 416.4375 274.316406 C 418.238281 275.925781 420.210938 277.769531 420.210938 280.523438 C 420.210938 283.59375 418.148438 286 414.84375 286 Z M 414.84375 286 "/>
<path style=" stroke:none;fill-rule:nonzero;fill:rgb(100%,100%,100%);fill-opacity:1;" d="M 436.6875 278.472656 L 434.828125 278.472656 L 434.828125 285.558594 L 430.363281 285.558594 L 430.363281 266.066406 L 436.6875 266.066406 C 439.007812 266.066406 440.890625 267.527344 440.890625 270.339844 L 440.890625 274.175781 C 440.890625 276.984375 439.007812 278.472656 436.6875 278.472656 M 436.714844 270.542969 C 436.714844 269.871094 436.425781 269.605469 435.933594 269.605469 L 434.828125 269.605469 L 434.828125 275.226562 L 435.933594 275.226562 C 436.425781 275.226562 436.714844 274.933594 436.714844 274.289062 Z M 436.714844 270.542969 "/>
<path style=" stroke:none;fill-rule:nonzero;fill:rgb(100%,100%,100%);fill-opacity:1;" d="M 456.734375 275.3125 L 450.644531 275.3125 L 450.644531 278.035156 L 456.734375 278.035156 Z M 456.734375 275.3125 "/>
<path style=" stroke:none;fill-rule:nonzero;fill:rgb(100%,100%,100%);fill-opacity:1;" d="M 473.328125 285.5625 L 466.859375 285.5625 L 466.859375 266.070312 L 473.328125 266.070312 C 475.472656 266.070312 477.386719 267.328125 477.386719 269.988281 L 477.386719 272.59375 C 477.386719 273.882812 476.925781 275.257812 475.242188 275.636719 C 476.863281 276.136719 477.386719 277.28125 477.386719 278.679688 L 477.386719 281.640625 C 477.386719 284.304688 475.472656 285.5625 473.328125 285.5625 Z M 473.207031 270.546875 C 473.207031 269.871094 472.917969 269.605469 472.429688 269.605469 L 471.324219 269.605469 L 471.324219 274.265625 L 472.429688 274.265625 C 472.917969 274.265625 473.207031 273.96875 473.207031 273.324219 Z M 473.207031 278.273438 C 473.207031 277.628906 472.917969 277.335938 472.429688 277.335938 L 471.324219 277.335938 L 471.324219 282.050781 L 472.429688 282.050781 C 472.917969 282.050781 473.207031 281.785156 473.207031 281.109375 Z M 473.207031 278.273438 "/>
<path style=" stroke:none;fill-rule:nonzero;fill:rgb(100%,100%,100%);fill-opacity:1;" d="M 495.285156 285.558594 C 494.59375 285.558594 494.242188 283.859375 494.242188 282.546875 L 494.242188 278.972656 C 494.242188 278.472656 493.921875 277.859375 493.285156 277.859375 L 492.269531 277.859375 L 492.269531 285.558594 L 487.804688 285.558594 L 487.804688 266.066406 L 494.070312 266.066406 C 496.242188 266.066406 498.359375 267.527344 498.359375 270.164062 L 498.359375 273.558594 C 498.359375 274.523438 497.722656 275.578125 496.5625 276.136719 C 497.722656 276.691406 498.449219 277.714844 498.449219 278.738281 L 498.449219 282.3125 C 498.449219 283.539062 498.707031 284.535156 499 285.472656 L 499 285.558594 Z M 494.125 270.542969 C 494.125 269.871094 493.863281 269.605469 493.375 269.605469 L 492.269531 269.605469 L 492.269531 274.644531 L 493.375 274.644531 C 493.863281 274.644531 494.125 274.378906 494.125 273.703125 Z M 494.125 270.542969 "/>
</g>
</svg>
