<?xml version="1.0" encoding="UTF-8"?> <svg xmlns="http://www.w3.org/2000/svg" width="192" height="110" viewBox="0 0 192 110" fill="none"><g clip-path="url(#clip0_354_1558)"><path d="M25.884 35.8031H16.2012V6.62891H25.884C29.0993 6.62891 31.9644 8.51504 31.9644 12.5009V16.3995C31.9644 18.3262 31.2702 20.3847 28.7527 20.9536C31.1848 21.6995 31.9644 23.41 31.9644 25.5108V29.936C31.9644 33.9223 29.0993 35.8033 25.884 35.8033M25.7127 13.333C25.7127 12.3257 25.2795 11.9306 24.5418 11.9306H22.8909V18.8965H24.5418C25.2797 18.8965 25.7127 18.4576 25.7127 17.4945V13.333ZM25.7127 24.8972C25.7127 23.9351 25.2795 23.4952 24.5418 23.4952H22.8909V30.5452H24.5418C25.2797 30.5452 25.7127 30.1524 25.7127 29.1468V24.8972Z" fill="white"></path><path d="M192 67.9512H0V76.2684H192V67.9512Z" fill="white"></path><path d="M192 50.9639H0V59.2789H192V50.9639Z" fill="white"></path><path d="M192 84.9404H0V93.2555H192V84.9404Z" fill="white"></path><path d="M192 33.9766H49.3643V42.2927H192V33.9766Z" fill="white"></path><path d="M191.781 16.9883H49.3643V25.3044H191.781V16.9883Z" fill="white"></path><path d="M191.781 0H49.3643V8.31614H191.781V0Z" fill="white"></path><path d="M2.65016 109.83H0.161621V102.333H2.65016C3.47651 102.333 4.21299 102.817 4.21299 103.841V104.842C4.21299 105.338 4.03429 105.867 3.38748 106.013C4.0124 106.205 4.21299 106.645 4.21299 107.184V108.322C4.21299 109.347 3.47651 109.83 2.65016 109.83ZM2.60532 104.055C2.60532 103.796 2.4944 103.694 2.30496 103.694H1.88V105.486H2.30496C2.49419 105.486 2.60532 105.372 2.60532 105.124V104.055V104.055ZM2.60532 107.027C2.60532 106.779 2.4944 106.667 2.30496 106.667H1.88V108.48H2.30496C2.49419 108.48 2.60532 108.378 2.60532 108.118V107.027Z" fill="white"></path><path d="M10.3189 110C9.12507 110 8.20947 109.177 8.20947 108.142V102.332H9.93922V108.142C9.93922 108.378 10.1183 108.513 10.3189 108.513C10.5422 108.513 10.7209 108.378 10.7209 108.142V102.332H12.3728V108.142C12.3728 109.177 11.5361 110 10.3189 110Z" fill="white"></path><path d="M16.4253 109.83V102.333H18.1439V108.333H19.9633V109.83H16.4253Z" fill="white"></path><path d="M23.7588 109.83V102.333H25.4778V108.333H27.2966V109.83H23.7588Z" fill="white"></path><path d="M34.3843 109.831L34.1951 109.212C33.9493 109.719 33.4475 109.999 32.923 109.999C31.7514 109.999 31.0259 109.155 31.0259 108.118V104.045C31.0259 103.098 31.9067 102.175 33.1907 102.175C34.4746 102.175 35.3001 103.098 35.3001 104.045V105.137H33.6594V104.045C33.6594 103.819 33.5148 103.65 33.2248 103.65C32.9347 103.65 32.7786 103.819 32.7786 104.045V108.13C32.7786 108.356 32.9556 108.536 33.2355 108.536C33.5367 108.536 33.6931 108.356 33.6931 108.13V107.185H33.225V106.072H35.3452V109.831H34.385L34.3843 109.831Z" fill="white"></path><path d="M41.439 110C40.2451 110 39.3306 109.177 39.3306 108.142V102.332H41.0593V108.142C41.0593 108.378 41.2384 108.513 41.439 108.513C41.6623 108.513 41.841 108.378 41.841 108.142V102.332H43.4929V108.142C43.4929 109.177 42.6562 110 41.439 110Z" fill="white"></path><path d="M47.5449 109.83V102.333H51.1835V103.785H49.2635V105.338H50.5144V106.633H49.2635V108.299H51.1835V109.83H47.5449Z" fill="white"></path><path d="M57.9921 109.83C57.725 109.83 57.5905 109.177 57.5905 108.672V107.297C57.5905 107.105 57.4674 106.869 57.2226 106.869H56.8317V109.83H55.1138V102.333H57.5244C58.3611 102.333 59.1759 102.895 59.1759 103.909V105.215C59.1759 105.586 58.9296 105.992 58.4838 106.206C58.9296 106.42 59.2095 106.813 59.2095 107.207V108.582C59.2095 109.053 59.3097 109.437 59.4213 109.797V109.83H57.9923L57.9921 109.83ZM57.5459 104.055C57.5459 103.796 57.4457 103.694 57.2563 103.694H56.8319V105.632H57.2563C57.4455 105.632 57.5459 105.53 57.5459 105.27V104.055Z" fill="white"></path><path d="M159.619 110C158.313 110 157.521 109.278 157.521 108.051V107.51H159.016V108.051C159.016 108.377 159.206 108.613 159.541 108.613C159.876 108.613 160.033 108.411 160.033 108.051C160.033 107.522 159.585 107.128 159.028 106.61C158.359 106.047 157.565 105.304 157.565 104.279C157.565 103.188 158.269 102.175 159.675 102.175C160.813 102.175 161.596 103.008 161.596 104.11V104.594H160.099V104.055C160.099 103.75 159.921 103.57 159.675 103.57C159.429 103.57 159.218 103.739 159.218 104.066C159.218 104.662 159.664 104.966 160.233 105.507C160.925 106.125 161.684 106.834 161.684 107.893C161.684 109.074 160.891 110 159.619 110Z" fill="white"></path><path d="M168.024 107.105H167.309V109.83H165.591V102.333H168.024C168.917 102.333 169.642 102.895 169.642 103.977V105.452C169.642 106.533 168.917 107.105 168.024 107.105M168.035 104.055C168.035 103.796 167.924 103.694 167.734 103.694H167.309V105.856H167.734C167.924 105.856 168.035 105.744 168.035 105.496V104.055Z" fill="white"></path><path d="M175.737 105.89H173.394V106.936H175.737V105.89Z" fill="white"></path><path d="M182.122 109.831H179.633V102.334H182.122C182.948 102.334 183.684 102.818 183.684 103.842V104.843C183.684 105.339 183.506 105.868 182.859 106.014C183.483 106.206 183.684 106.646 183.684 107.185V108.323C183.684 109.348 182.948 109.831 182.122 109.831ZM182.076 104.056C182.076 103.797 181.965 103.695 181.776 103.695H181.351V105.487H181.776C181.965 105.487 182.076 105.373 182.076 105.125V104.056V104.056ZM182.076 107.028C182.076 106.78 181.965 106.668 181.776 106.668H181.351V108.481H181.776C181.965 108.481 182.076 108.379 182.076 108.119V107.028Z" fill="white"></path><path d="M190.571 109.83C190.304 109.83 190.17 109.177 190.17 108.672V107.297C190.17 107.105 190.046 106.869 189.801 106.869H189.411V109.83H187.692V102.333H190.103C190.939 102.333 191.754 102.895 191.754 103.909V105.215C191.754 105.586 191.508 105.992 191.062 106.206C191.508 106.42 191.788 106.813 191.788 107.207V108.582C191.788 109.053 191.888 109.437 192 109.797V109.83H190.571V109.83ZM190.125 104.055C190.125 103.796 190.024 103.694 189.835 103.694H189.411V105.632H189.835C190.024 105.632 190.125 105.53 190.125 105.27V104.055Z" fill="white"></path></g><defs><clipPath id="clip0_354_1558"><rect width="192" height="110" fill="white"></rect></clipPath></defs></svg> 