<?xml version="1.0" encoding="UTF-8"?> <svg xmlns="http://www.w3.org/2000/svg" width="80" height="45" viewBox="0 0 80 45" fill="none"><g clip-path="url(#clip0_354_1613)"><path d="M0 24.2028H6.08845L9.47171 7.45453H3.38247L0 24.2028ZM3.71793 5.45695H9.83187L10.8367 0.445941H4.7251L3.71793 5.45695ZM8.45657 28.9157H14.5458L18.2661 10.8208H22.8327L23.506 7.45453H19.0271L19.1968 6.69721C19.4502 5.2698 19.9578 3.66713 22.2406 3.66713C23.5952 3.66713 24.8629 3.75119 26.1307 4.34039L26.808 0.805966C25.3951 0.30984 23.9086 0.0535659 22.4104 0.0478516C17.5052 0.0478516 14.1235 2.90981 12.8542 7.45453H10.7402L10.0637 10.8208H12.1777L8.45657 28.9157Z" fill="#EA1D2C"></path><path d="M27.738 24.5395C34.9261 24.5395 39.9157 18.0583 39.9157 12.7562C39.9157 8.8007 36.2791 7.11715 32.7277 7.11715C24.8608 7.11715 20.55 14.1067 20.55 18.9004C20.55 22.8559 24.2711 24.5395 27.738 24.5395ZM47.0209 24.5395C54.209 24.5395 59.1986 18.0583 59.1986 12.7562C59.1986 8.8007 55.4775 7.11715 51.9253 7.11715C44.0608 7.11715 39.7484 14.1027 39.7484 18.9004C39.7484 22.8559 43.554 24.5395 47.0209 24.5395ZM69.0926 24.2025H75.0966L80.0002 0.387695H73.9118L72.4735 7.45735L69.9365 7.20517C64.0169 7.20517 58.605 14.7792 58.605 20.1661C58.605 22.354 60.0392 24.5427 62.495 24.5427C65.9619 24.5427 68.4145 22.8591 69.4273 21.1756H69.7651L69.0926 24.2025ZM50.3173 36.7431C45.5913 40.6401 39.5212 42.543 33.4042 42.0451C25.3699 41.54 19.6193 35.3958 18.605 28.9153H18.9428C20.8034 32.9596 25.2855 36.7431 30.7827 37.3315C36.3604 38.0047 43.0448 35.4806 46.6807 32.0294L42.6217 28.9153H54.8839L52.1747 41.877L50.3986 36.8271L50.3173 36.7431Z" fill="#EA1D2C"></path></g><defs><clipPath id="clip0_354_1613"><rect width="80" height="45" fill="white"></rect></clipPath></defs></svg> 