<?xml version="1.0" encoding="UTF-8"?> <svg xmlns="http://www.w3.org/2000/svg" width="122" height="60" viewBox="0 0 122 60" fill="none"><g clip-path="url(#clip0_354_1148)"><path d="M5.60487 32.5655H0.502441V17.4473H5.60487C7.29913 17.4473 8.80883 18.4228 8.80883 20.4892V22.5092C8.80883 23.5087 8.44275 24.5757 7.11609 24.8698C8.39737 25.2555 8.80883 26.1409 8.80883 27.2304V29.5235C8.80883 31.5885 7.29913 32.5655 5.60487 32.5655ZM5.51411 20.9199C5.51411 20.3977 5.28569 20.1936 4.8954 20.1936H4.02559V23.8028H4.8954C5.28418 23.8028 5.51411 23.5762 5.51411 23.0765V20.9199ZM5.51411 26.9138C5.51411 26.4141 5.28569 26.1874 4.8954 26.1874H4.02559V29.8417H4.8954C5.28418 29.8417 5.51411 29.6376 5.51411 29.1153V26.9123V26.9138Z" fill="white"></path><path d="M21.3283 32.9061C18.8792 32.9061 17.0034 31.2494 17.0034 29.1604V17.4473H20.5508V29.1604C20.5508 29.6376 20.9168 29.9092 21.3283 29.9092C21.7852 29.9092 22.1527 29.6376 22.1527 29.1604V17.4473H25.5397V29.1604C25.5397 31.2494 23.8243 32.9061 21.3298 32.9061H21.3283Z" fill="white"></path><path d="M33.8477 32.5655V17.4473H37.3708V29.546H41.1012V32.5655H33.8477Z" fill="white"></path><path d="M48.8809 32.5655V17.4473H52.4055V29.546H56.1359V32.5655H48.8809Z" fill="white"></path><path d="M70.7974 32.5655L70.2785 31.3169C69.7748 32.3389 68.7461 32.9061 67.6691 32.9061C65.2668 32.9061 63.7783 31.2028 63.7783 29.1153V20.8974C63.7783 18.99 65.586 17.1292 68.2182 17.1292C70.8503 17.1292 72.5431 18.99 72.5431 20.8974V23.099H69.1788V20.8974C69.1788 20.4442 68.8808 20.1036 68.2863 20.1036C67.6918 20.1036 67.371 20.4442 67.371 20.8974V29.1379C67.371 29.5911 67.7371 29.9557 68.3089 29.9557C68.9276 29.9557 69.2483 29.5926 69.2483 29.1379V27.2304H68.2878V24.9824H72.6353V32.564H70.7974V32.5655Z" fill="white"></path><path d="M85.132 32.9061C82.6829 32.9061 80.8071 31.2494 80.8071 29.1604V17.4473H84.3545V29.1604C84.3545 29.6376 84.7206 29.9092 85.132 29.9092C85.5889 29.9092 85.9565 29.6376 85.9565 29.1604V17.4473H89.3435V29.1604C89.3435 31.2494 87.628 32.9061 85.1335 32.9061H85.132Z" fill="white"></path><path d="M97.6499 32.5655V17.4473H105.109V20.3752H101.173V23.5072H103.736V26.1184H101.173V29.4785H105.109V32.5655H97.6499Z" fill="white"></path><path d="M119.07 32.5655C118.521 32.5655 118.246 31.2494 118.246 30.2274V27.4586C118.246 27.0729 117.995 26.5956 117.491 26.5956H116.691V32.5655H113.166V17.4473H118.11C119.827 17.4473 121.497 18.5818 121.497 20.6258V23.2596C121.497 24.0084 120.993 24.8263 120.078 25.257C120.993 25.6877 121.565 26.4831 121.565 27.277V30.0473C121.565 31.0002 121.77 31.7731 121.999 32.4979V32.567H119.07V32.5655ZM118.155 20.9199C118.155 20.3977 117.949 20.1936 117.56 20.1936H116.691V24.0985H117.56C117.949 24.0985 118.155 23.8944 118.155 23.3721V20.9199Z" fill="white"></path><path d="M122 0H0V6.99182H122V0Z" fill="white"></path><path d="M122 43.0224H0V50.0143H122V43.0224Z" fill="white"></path><path d="M0 59.8709V54.782H2.93469V55.8895H1.37961V56.784H2.3886V57.7459H1.37961V58.6929H2.93469V59.8694H0V59.8709Z" fill="white"></path><path d="M5.29143 60C4.24462 60 3.6123 59.4582 3.6123 58.5488V58.2742H4.81341V58.5188C4.81341 58.7634 4.96771 58.939 5.22941 58.939C5.49111 58.939 5.61516 58.7934 5.61516 58.5263C5.61516 58.2127 5.23849 57.9921 4.81492 57.7234C4.26883 57.3873 3.65164 56.9746 3.65164 56.2257C3.65164 55.4318 4.22193 54.659 5.33076 54.659C6.23991 54.659 6.86316 55.3088 6.86316 56.1027V56.3158H5.66205V56.0786C5.66205 55.8565 5.51532 55.72 5.33076 55.72C5.14621 55.72 4.96922 55.8415 4.96922 56.0861C4.96922 56.3998 5.34589 56.6129 5.76945 56.88C6.31555 57.2237 6.94031 57.6439 6.94031 58.4228C6.94031 59.2016 6.35488 59.997 5.29295 59.997L5.29143 60Z" fill="white"></path><path d="M9.74205 55.9135V59.8709H8.36395V55.9135H7.40186V54.782H10.7132V55.9135H9.74356H9.74205Z" fill="white"></path><path d="M10.8975 59.871V58.7019H11.8838V59.871H10.8975Z" fill="white"></path><path d="M16.3571 57.9215C15.864 58.3342 15.7641 58.5713 15.7641 58.7919H17.4115V59.8694H14.3149V59.5633C14.3149 58.7229 14.6069 58.1346 15.516 57.2717C16.0939 56.7299 16.2633 56.4163 16.2633 56.1417C16.2633 55.8505 16.1332 55.7365 15.9018 55.7365C15.6552 55.7365 15.5478 55.8895 15.5478 56.1417V56.5243H14.4163V55.9811C14.4163 55.3388 14.8943 54.6515 15.8715 54.6515C17.0348 54.6515 17.4342 55.3538 17.4342 56.1342C17.4342 56.6849 17.2496 57.1727 16.3556 57.9215H16.3571Z" fill="white"></path><path d="M19.9379 60C18.9592 60 18.3511 59.4042 18.3511 58.5248V56.1342C18.3511 55.2472 18.9592 54.659 19.9379 54.659C20.9167 54.659 21.5172 55.2472 21.5172 56.1342V58.5248C21.5172 59.4027 20.9091 60 19.9379 60ZM20.2768 56.0741C20.2768 55.9061 20.1542 55.783 19.9379 55.783C19.7216 55.783 19.5915 55.9061 19.5915 56.0741V58.5803C19.5915 58.7484 19.714 58.8775 19.9379 58.8775C20.1618 58.8775 20.2768 58.7469 20.2768 58.5803V56.0741Z" fill="white"></path><path d="M28.0128 58.8384V59.8694H26.8344V58.8384H25.1099V57.9905L26.904 54.782H28.0128V57.8915H28.4515V58.8384H28.0128ZM26.8344 56.6459L26.1794 57.8915H26.8344V56.6459Z" fill="white"></path><path d="M100.233 60C99.1865 60 98.5542 59.4582 98.5542 58.5488V58.2742H99.7553V58.5188C99.7553 58.7634 99.9096 58.939 100.171 58.939C100.433 58.939 100.557 58.7934 100.557 58.5263C100.557 58.2127 100.179 57.9921 99.7568 57.7234C99.2092 57.3873 98.5935 56.9746 98.5935 56.2257C98.5935 55.4318 99.1638 54.659 100.273 54.659C101.182 54.659 101.805 55.3088 101.805 56.1027V56.3158H100.604V56.0786C100.604 55.8565 100.457 55.72 100.273 55.72C100.088 55.72 99.9111 55.8415 99.9111 56.0861C99.9111 56.3998 100.288 56.6129 100.713 56.88C101.259 57.2237 101.884 57.6439 101.884 58.4228C101.884 59.2016 101.298 59.997 100.235 59.997L100.233 60Z" fill="white"></path><path d="M104.67 58.0836H104.07V59.871H102.69V54.782H104.669C105.393 54.782 105.932 55.2413 105.932 56.0051V56.8605C105.932 57.6244 105.393 58.0836 104.669 58.0836H104.67ZM104.646 56.0652C104.646 55.8821 104.554 55.813 104.407 55.813H104.068V57.1427H104.407C104.554 57.1427 104.646 57.0661 104.646 56.8905V56.0652Z" fill="white"></path><path d="M108.582 57.9605V57.1892H111.47V57.9605H108.582Z" fill="white"></path><path d="M116.252 59.871H114.226V54.782H116.252C116.914 54.782 117.468 55.1722 117.468 55.8746V56.4013C117.468 56.7675 117.336 57.1877 116.798 57.2792C117.314 57.4098 117.468 57.7535 117.468 58.1571V58.7754C117.468 59.4853 116.913 59.868 116.252 59.868V59.871ZM116.184 56.0652C116.184 55.8821 116.091 55.813 115.945 55.813H115.606V56.8905H115.945C116.091 56.8905 116.184 56.814 116.184 56.6384V56.0652ZM116.184 58.0221C116.184 57.8465 116.091 57.77 115.945 57.77H115.606V58.8475H115.945C116.091 58.8475 116.184 58.7784 116.184 58.5954V58.0221Z" fill="white"></path><path d="M120.664 59.871C120.448 59.871 120.341 59.4508 120.341 59.0846V58.2442C120.341 58.1076 120.241 57.9155 120.049 57.9155H119.733V59.871H118.354V54.782H120.31C120.981 54.782 121.604 55.2413 121.604 55.9436V56.6924C121.604 56.9521 121.419 57.2657 121.065 57.4113C121.419 57.5569 121.627 57.8705 121.627 58.1376V59.0246C121.627 59.3457 121.711 59.6053 121.804 59.8499V59.8725H120.663L120.664 59.871ZM120.303 56.0652C120.303 55.8821 120.226 55.813 120.071 55.813H119.733V56.9896H120.071C120.226 56.9896 120.303 56.9206 120.303 56.7375V56.0652Z" fill="white"></path><path d="M23.1264 54.782L23.0159 54.9276C22.8147 55.1887 22.6529 55.3223 22.3276 55.3658V56.2632H22.8041V59.8694H24.0597V54.7805H23.1248L23.1264 54.782Z" fill="white"></path></g><defs><clipPath id="clip0_354_1148"><rect width="122" height="60" fill="white"></rect></clipPath></defs></svg> 