<?xml version="1.0" encoding="UTF-8"?> <svg xmlns="http://www.w3.org/2000/svg" width="80" height="34" viewBox="0 0 80 34" fill="none"><g clip-path="url(#clip0_354_1617)"><path fill-rule="evenodd" clip-rule="evenodd" d="M62.1607 13.4218C62.0515 14.0214 61.8791 14.7139 61.6477 15.477C61.4153 16.24 61.1173 17.0451 60.7659 17.8612C60.384 18.6839 59.9878 19.4537 59.5905 20.1472C59.1977 20.8341 58.8048 21.4249 58.4283 21.9031C58.0605 22.3691 57.7189 22.7137 57.4155 22.9279C57.1863 23.0891 57.0586 23.1068 57.015 23.1068C56.9944 23.1068 56.9778 23.1035 56.9604 23.0955C56.922 23.078 56.7945 22.9917 56.7389 22.582C56.6865 22.2065 56.715 21.7129 56.8207 21.1155C56.9299 20.5004 57.1012 19.8013 57.3336 19.0426C57.5628 18.2839 57.8608 17.4789 58.2176 16.6517C58.5712 15.8312 58.9576 15.0659 59.3679 14.3757C59.7761 13.6866 60.1733 13.1024 60.5498 12.6386C60.9155 12.1858 61.257 11.8468 61.5648 11.6292C61.7951 11.468 61.9217 11.4503 61.9653 11.4503C61.9874 11.4503 62.0037 11.4536 62.0188 11.4616C62.0571 11.4783 62.1847 11.5654 62.2414 11.9751C62.2926 12.3506 62.2653 12.8365 62.1607 13.4218ZM46.8403 13.4218C46.7312 14.0214 46.5588 14.7139 46.3274 15.477C46.0938 16.2445 45.7959 17.0484 45.4456 17.8612C45.0625 18.6862 44.6664 19.4559 44.2702 20.1472C43.8763 20.8352 43.4844 21.426 43.1079 21.9031C42.7402 22.3691 42.3996 22.7137 42.0941 22.9279C41.8649 23.0891 41.7383 23.1068 41.6946 23.1068C41.6741 23.1068 41.6575 23.1035 41.64 23.0959C41.6017 23.0784 41.4742 22.9921 41.4185 22.5824C41.3661 22.2081 41.3934 21.7155 41.5004 21.1159C41.6084 20.5019 41.7809 19.805 42.0133 19.043C42.2425 18.2832 42.5404 17.4793 42.8973 16.6521C43.252 15.8294 43.6394 15.0641 44.0465 14.3761C44.4568 13.6859 44.8541 13.1017 45.2295 12.639C45.5962 12.1862 45.9389 11.8461 46.2444 11.6296C46.4736 11.4684 46.6013 11.4507 46.6449 11.4507C46.667 11.4507 46.6833 11.454 46.6984 11.4616C46.7368 11.4783 46.8654 11.5654 46.9211 11.9751C46.9724 12.3506 46.945 12.8365 46.8403 13.4218ZM30.241 13.2672C30.1733 13.8768 30.0424 14.5725 29.8513 15.3367C29.6593 16.0987 29.3973 16.9004 29.071 17.7221C28.7458 18.5393 28.3999 19.3079 28.0408 20.0058C27.6894 20.6883 27.3347 21.2703 26.9844 21.7363C26.6439 22.1891 26.3241 22.527 26.0327 22.7402C25.8177 22.8981 25.6977 22.9158 25.6573 22.9158C25.6387 22.9158 25.6222 22.9125 25.6049 22.9045C25.5657 22.887 25.4303 22.7974 25.3604 22.3811C25.295 22.0001 25.2895 21.5086 25.3419 20.9189C25.3964 20.3204 25.5198 19.6324 25.7096 18.8748C25.8995 18.1161 26.1625 17.3133 26.49 16.4894C26.8195 15.6612 27.1666 14.8937 27.5213 14.2046C27.8705 13.5232 28.2263 12.9346 28.5788 12.4542C28.9171 11.9904 29.238 11.648 29.5283 11.4349C29.7432 11.2769 29.8633 11.2593 29.9048 11.2593C29.9233 11.2593 29.9398 11.2626 29.955 11.2705C29.9964 11.2881 30.1372 11.381 30.2234 11.8028C30.2998 12.1783 30.3062 12.6697 30.241 13.2672ZM63.8064 8.20269C64.6086 8.20269 65.2983 8.45116 65.8571 8.94259C66.3962 9.41636 66.7814 10.0933 67.0008 10.9536C67.2136 11.7874 67.2573 12.7956 67.1318 13.9519C67.0062 15.0938 66.6767 16.3969 66.1495 17.8248C65.653 19.1743 65.0833 20.3614 64.459 21.352C64.1567 21.8335 63.8457 22.2841 63.5303 22.7004C63.4899 22.7534 63.5503 22.823 63.6078 22.791C63.7911 22.6905 63.9734 22.5812 64.1535 22.4619C64.5638 22.1936 64.9578 21.9042 65.3321 21.5983C66.3765 20.7424 67.135 19.5851 67.5039 18.2842C67.7244 17.5012 67.9688 16.7249 68.2351 15.9596C68.6716 14.6995 69.1376 13.5234 69.6211 12.4632C70.1013 11.4064 70.5007 10.6157 70.8085 10.111C71.1577 9.53673 71.6466 9.17892 72.2654 9.0464C72.8438 8.92273 73.3971 8.93154 73.9057 9.0706C74.4263 9.21419 74.8519 9.4748 75.1695 9.84806C75.5154 10.2556 75.5908 10.7194 75.3856 11.1898C75.3245 11.3522 75.164 11.7232 74.9087 12.2942C74.6522 12.8684 74.3641 13.5388 74.029 14.3471C73.7071 15.1235 73.3764 15.9639 73.0468 16.8429C72.7249 17.7065 72.4728 18.5127 72.2982 19.2393C72.1279 19.9461 72.0614 20.5336 72.0996 20.9853C72.1367 21.4171 72.2993 21.4171 72.3877 21.4171C72.5121 21.4171 72.7325 21.3575 73.0752 21.0748C73.4048 20.7987 73.7529 20.4663 74.112 20.082C74.4711 19.6965 74.8159 19.2813 75.1346 18.8484C75.426 18.4541 75.6759 18.1052 75.8789 17.8103C76.0557 17.553 76.3372 17.4061 76.6505 17.4061C76.9812 17.4061 77.302 17.574 77.469 17.8335C77.6316 18.0875 77.6272 18.3901 77.4548 18.6618C77.2387 19.003 76.8611 19.5751 76.3001 20.4132C75.7446 21.2415 75.08 22.0951 74.3248 22.9521C73.5565 23.8212 72.7172 24.5932 71.8278 25.2458C70.8925 25.9338 69.9474 26.2817 69.0209 26.2817C68.1827 26.2817 67.5574 25.9879 67.1612 25.4071C66.8011 24.877 66.6178 24.1658 66.6178 23.2934V23.1542C66.62 23.0504 66.4999 22.9919 66.4202 23.057C66.2445 23.1995 66.0634 23.3409 65.8789 23.48C64.7896 24.3005 63.5324 24.9963 62.1398 25.5495C60.8968 26.0443 59.5271 26.295 58.0691 26.295L57.7723 26.2916L57.4743 26.2816C56.4812 26.2794 55.7446 25.9647 55.2829 25.3429C55.2011 25.2336 55.1257 25.121 55.0592 25.005C55.0057 24.9122 54.8671 24.9277 54.8366 25.0313C54.6871 25.536 54.5452 26.023 54.4142 26.489C54.1305 27.4907 53.8882 28.3576 53.6754 29.1394C53.4615 29.9235 53.2759 30.638 53.1232 31.2664C52.9758 31.8716 52.8732 32.3619 52.8209 32.7252L52.8175 32.7387C52.6833 33.4267 52.2238 33.6685 51.8604 33.7514C51.6989 33.7877 51.5309 33.8066 51.3606 33.8066C51.0528 33.8066 50.7276 33.7458 50.3947 33.6277C49.8884 33.4465 49.4333 33.134 49.0404 32.6978C48.6333 32.2451 48.4271 31.6785 48.4271 31.0137C48.4271 30.879 48.4609 30.5841 48.7217 29.4986C48.9171 28.6979 49.1801 27.7018 49.5064 26.5367C49.7269 25.7471 49.9779 24.888 50.2562 23.9692C50.2888 23.8587 50.1645 23.7671 50.0706 23.8322C49.1004 24.5003 48.0124 25.0779 46.825 25.5495C45.5809 26.0442 44.2123 26.2949 42.7543 26.2949C42.5578 26.2949 42.357 26.2903 42.1584 26.2815C41.1664 26.2793 40.4297 25.9646 39.967 25.3428C39.8851 25.2335 39.8109 25.122 39.7444 25.0049C39.6898 24.9121 39.5523 24.9287 39.5217 25.0312C39.3711 25.537 39.2292 26.0251 39.0983 26.4889C38.8134 27.4939 38.5712 28.3619 38.3605 29.1393C38.1466 29.9234 37.96 30.6379 37.8072 31.2663C37.6599 31.8726 37.5584 32.3629 37.5049 32.7251L37.5027 32.7386C37.3685 33.4266 36.908 33.6684 36.5445 33.7512C36.383 33.7876 36.216 33.8064 36.0458 33.8064C35.738 33.8064 35.4128 33.7457 35.0789 33.6275C34.5725 33.4465 34.1185 33.1339 33.7256 32.6977C33.3185 32.2449 33.1123 31.6784 33.1123 31.0136C33.1123 30.8778 33.1448 30.5829 33.4069 29.4984C33.6034 28.6901 33.8664 27.694 34.1905 26.5366C34.3826 25.8486 34.5954 25.1153 34.8344 24.3235C34.8695 24.2042 34.7253 24.1137 34.6336 24.1987C34.2265 24.5742 33.8075 24.9243 33.3775 25.2445C32.4553 25.9325 31.5167 26.2815 30.5891 26.2815C29.7509 26.2815 29.1245 25.9877 28.7294 25.4069C28.5702 25.1726 28.4458 24.902 28.3552 24.5983C28.2755 24.3278 27.9328 24.2449 27.7386 24.4493C27.4657 24.7364 27.1656 24.9981 26.8437 25.2289C26.4246 25.5293 25.9564 25.7811 25.45 25.9777C24.9284 26.1786 24.3641 26.2813 23.7726 26.2813C22.9727 26.2813 22.2709 26.0351 21.6882 25.5481C21.1206 25.0776 20.7005 24.4106 20.4375 23.5636C20.1821 22.7431 20.0882 21.7348 20.1581 20.5653C20.2279 19.4102 20.4877 18.1137 20.9308 16.7101C21.8748 13.799 23.1058 11.6378 24.5911 10.2828C26.1037 8.90239 27.6382 8.20225 29.1519 8.20225C29.7925 8.20225 30.3349 8.33256 30.7616 8.58875C31.1818 8.84273 31.5059 9.17846 31.7253 9.58707C31.8715 9.86204 31.9785 10.1569 32.0439 10.4705C32.0557 10.5258 32.1301 10.5368 32.1574 10.4872C32.2339 10.3481 32.307 10.2233 32.3757 10.1096C32.725 9.5375 33.2073 9.1797 33.8108 9.04607C34.3751 8.9224 34.9273 8.93012 35.45 9.06945C35.9859 9.21303 36.4192 9.47473 36.7378 9.84801C37.0838 10.2555 37.1591 10.7193 36.9528 11.1898C36.8928 11.3499 36.7378 11.7121 36.477 12.2941C36.2227 12.8639 35.9259 13.5541 35.5974 14.3471C35.2721 15.1322 34.9415 15.9726 34.6152 16.8429C34.2921 17.7065 34.04 18.5137 33.8665 19.2393C33.6963 19.9472 33.6297 20.5347 33.6679 20.9852C33.705 21.417 33.8676 21.417 33.955 21.417C34.0805 21.417 34.3009 21.3574 34.6425 21.0747C34.8313 20.9167 35.0278 20.739 35.2286 20.5435C36.0067 19.7848 36.5283 18.9566 36.8765 17.9262C37.3392 16.5591 37.8259 15.2096 38.3258 13.9087C38.8594 12.5249 39.38 11.2825 39.8733 10.2157C40.1309 9.66358 40.539 9.29142 41.0825 9.11251C41.5922 8.94464 42.1149 8.90933 42.629 9.00762C43.1419 9.107 43.5915 9.31353 43.9648 9.62274C44.1306 9.75968 44.2627 9.90765 44.3609 10.0634C44.3869 10.1053 44.4177 10.1097 44.4537 10.0755C44.8946 9.66357 45.3813 9.28589 45.9062 8.94906C46.6745 8.45322 47.5444 8.20253 48.4916 8.20253C49.2927 8.20253 49.9835 8.451 50.5412 8.94244C51.0814 9.4173 51.4666 10.0932 51.686 10.9534C51.8988 11.7861 51.9425 12.7955 51.817 13.9517C51.6914 15.0925 51.3608 16.3967 50.8347 17.8246C50.3371 19.1752 49.7674 20.3624 49.1432 21.3519C48.8409 21.8334 48.5298 22.2839 48.2144 22.7003C48.174 22.7533 48.235 22.8229 48.293 22.7908C48.4753 22.6903 48.6575 22.581 48.8387 22.4617C49.1323 22.2696 49.4171 22.0664 49.6921 21.8543C50.7376 21.0504 51.5179 19.9505 51.9337 18.6982L52.0974 18.2089C52.5885 16.7402 53.108 15.2935 53.6406 13.9086C54.1754 12.5227 54.6959 11.2803 55.1892 10.2157C55.4457 9.66357 55.8528 9.29251 56.3984 9.1125C56.9081 8.94463 57.4308 8.90932 57.9449 9.00761C58.4578 9.10699 58.9063 9.31352 59.2796 9.62163C59.4455 9.75966 59.5775 9.90767 59.6757 10.0634C59.702 10.1053 59.7325 10.1097 59.7685 10.0755C60.2094 9.66356 60.6961 9.28588 61.2211 8.94905C61.9904 8.45316 62.8602 8.20269 63.8064 8.20269ZM13.6111 1.32377C14.7614 1.32377 15.9139 1.45851 17.0379 1.72242C18.1697 1.98967 19.1966 2.39606 20.0882 2.93056C20.9908 3.47169 21.7318 4.15085 22.2906 4.94929C22.8603 5.76208 23.1484 6.71513 23.1484 7.78191C23.1484 8.93043 22.8952 10.0083 22.3954 10.9845C21.8999 11.9508 21.2178 12.8332 20.3698 13.6073C19.5295 14.3759 18.5331 15.054 17.4079 15.6216C16.4803 16.0898 15.4948 16.4896 14.4711 16.811C14.4056 16.8318 14.3827 16.8662 14.386 16.9324C14.4078 17.4404 14.4438 17.9429 14.4951 18.4266C14.5529 18.9821 14.6293 19.5232 14.7232 20.0367C14.8149 20.5414 14.9262 21.0328 15.0517 21.4978C15.1499 21.8578 15.2591 22.2079 15.3758 22.5403C15.45 22.7523 15.5286 22.9599 15.6083 23.1543C15.7687 23.5463 15.9455 23.9218 16.1332 24.2697C16.3177 24.612 16.5174 24.9367 16.7269 25.2348C16.931 25.5253 17.1504 25.7981 17.3785 26.0476C17.6011 26.2906 17.8368 26.5137 18.0791 26.7124C18.3148 26.9057 18.5637 27.0813 18.8179 27.2315C19.0657 27.3794 19.3254 27.5076 19.5906 27.6136C19.8515 27.7174 20.121 27.8013 20.3928 27.8621C20.6656 27.9228 20.9461 27.9615 21.2298 27.9802C21.5125 27.9978 21.8071 27.9944 22.1007 27.9681C22.3998 27.9418 22.7053 27.893 23.0087 27.8212C23.3198 27.7484 23.6362 27.6523 23.9516 27.5341C24.2747 27.4127 24.601 27.2647 24.9229 27.0979C25.0463 27.0338 25.1707 26.9654 25.294 26.8947C25.6956 26.6628 26.2085 26.7733 26.4781 27.1487C26.7488 27.5242 26.6888 28.0432 26.3395 28.348C26.1682 28.4971 25.9958 28.6429 25.8255 28.782C25.4119 29.1199 24.9972 29.4336 24.5923 29.713C24.2081 29.978 23.8174 30.2254 23.4311 30.4452C23.2379 30.5556 23.0349 30.6638 22.8287 30.7676C22.4325 30.9686 22.032 31.1453 21.6358 31.2933C21.2419 31.4401 20.8457 31.5627 20.4593 31.6555C20.0741 31.7483 19.6856 31.8156 19.3069 31.8543C19.0362 31.8818 18.7656 31.8962 18.5015 31.8962C18.3945 31.8962 18.2876 31.894 18.1806 31.8886C17.8139 31.873 17.4494 31.8301 17.0958 31.7605C16.9212 31.7263 16.7444 31.6843 16.572 31.6357C16.405 31.5904 16.2336 31.5363 16.0623 31.4734C15.7338 31.3542 15.4075 31.2073 15.0954 31.0362C14.7898 30.8683 14.4886 30.675 14.2026 30.4608C13.9713 30.2874 13.7443 30.0964 13.5293 29.8943C13.2706 29.6513 13.0185 29.3808 12.7795 29.0936C12.5438 28.8098 12.3179 28.5028 12.1084 28.1815C11.8977 27.8612 11.6991 27.5189 11.5158 27.1655C11.3335 26.8121 11.16 26.4366 11.0028 26.0501C10.8467 25.6669 10.7016 25.2605 10.5696 24.8397C10.4397 24.4267 10.3208 23.9894 10.2159 23.5388C10.1122 23.0894 10.0217 22.6233 9.94639 22.1529C9.87874 21.7365 9.82199 21.3047 9.77723 20.8663C9.76403 20.7338 9.57533 20.7162 9.53713 20.8454C9.37342 21.4175 9.22501 21.9719 9.09404 22.502C8.92926 23.1668 8.77755 23.7719 8.64004 24.3153C8.50582 24.8476 8.41087 25.276 8.3563 25.5886C8.24716 26.143 7.88375 26.493 7.30097 26.6068C6.80004 26.7062 6.26201 26.6642 5.7076 26.4853C5.15975 26.3075 4.6621 25.9994 4.22665 25.5676C3.77047 25.1148 3.5391 24.5461 3.5391 23.8758C3.5391 23.3302 3.67662 22.4677 3.95818 21.2408C4.23318 20.0426 4.62936 18.6224 5.13792 17.0178C5.64212 15.4265 6.25437 13.6717 6.9561 11.8054C7.55852 10.2019 8.23516 8.58733 8.96854 6.99487C9.20865 6.47363 9.7052 6.11472 10.2782 6.04846C11.5736 5.89828 12.6977 5.93581 13.6504 6.1589C14.2245 6.29363 14.5322 6.91537 14.2921 7.45097C13.6777 8.81814 13.1113 10.182 12.6049 11.5094C12.1956 12.5839 11.8028 13.6474 11.4317 14.6822C11.3958 14.7849 11.5005 14.8799 11.5987 14.8346C12.0931 14.6082 12.5809 14.3409 13.0578 14.0361C13.8392 13.5359 14.5508 12.9384 15.1739 12.2615C15.7938 11.5845 16.3024 10.8214 16.6854 9.99204C17.0631 9.17042 17.2551 8.27811 17.2551 7.33721C17.2551 6.12797 16.919 5.23456 16.2565 4.68349C15.5854 4.1258 14.6403 3.84199 13.4463 3.84199C12.1749 3.84199 11.0126 4.14238 9.99222 4.7354C8.94453 5.34278 8.03871 6.08931 7.29987 6.95511C6.55557 7.82754 5.96843 8.7596 5.55699 9.7259C5.14885 10.6834 4.94147 11.5227 4.94147 12.2217C4.94147 12.722 4.67629 13.0831 4.195 13.2388C3.77265 13.3757 3.30664 13.3559 2.82863 13.1781C2.36917 13.008 1.94355 12.6712 1.56267 12.1786C1.1796 11.6839 0.985352 11.0136 0.985352 10.1864C0.985352 9.46418 1.26035 8.61384 1.82569 7.5868C2.37572 6.58517 3.18987 5.61004 4.24302 4.68792C5.29507 3.76801 6.62215 2.96957 8.1915 2.3158C9.76959 1.65762 11.5932 1.32377 13.6111 1.32377ZM76.2183 0.55957C77.9786 0.55957 79.405 1.98417 79.405 3.74006C79.405 5.49596 77.9786 6.92055 76.2183 6.92055C74.458 6.92055 73.0316 5.49596 73.0316 3.74006C73.0316 1.98417 74.458 0.55957 76.2183 0.55957Z" fill="#FF441F"></path></g><defs><clipPath id="clip0_354_1617"><rect width="80" height="34" fill="white"></rect></clipPath></defs></svg> 